<?xml version="1.0" encoding="iso-8859-1"?>
<!-- Generator: Adobe Illustrator 19.0.0, SVG Export Plug-In . SVG Version: 6.00 Build 0)  -->
<svg version="1.1" id="Layer_1" xmlns="http://www.w3.org/2000/svg" xmlns:xlink="http://www.w3.org/1999/xlink" x="0px" y="0px"
	 viewBox="0 0 508 508" style="enable-background:new 0 0 508 508;" xml:space="preserve">
<path style="fill:#E9B526;" d="M447.6,167c0-19.2-20-36.4-52.4-49.6l-30-10c-34-9.2-76.4-14.8-122.4-14.8
	C129.6,92.6,38,125,38,166.2c0,16.4,14.4,30.8,38.4,42.8c37.2,19.6,97.6,32,166,32c60,0,113.6-9.6,151.2-24.8l1.2-0.8
	c4.8-1.6,9.2-2.8,13.6-6.4c11.6-3.6,21.2-12,27.6-19.6l1.6-0.8C444.4,181.8,447.6,174.6,447.6,167z"/>
<path style="fill:#F0C960;" d="M477.2,164.6L477.2,164.6C473.6,110.6,370,67,242.8,67C113.2,67,8.4,111,8.4,166.6
	c0,15.6,10,30.8,24.8,42.8c22.4,23.6,60.4,37.2,108.4,47.2v0.8c28,6.8,65.2,10.4,102.8,10.4c28.8,0,55.6-2.4,80.8-6.4
	c10.4-1.6,19.6-2.4,29.2-4.4l-1.2,1.2h1.2c4.4,0,9.6-3.2,13.6-4.4c35.6-10,66.8-24.4,86-44c14.8-12,22.8-27.2,22.8-42.8
	C477.6,166.2,477.2,165.4,477.2,164.6z M440,187.4l-1.6,0.8c-6.8,7.6-16.8,16.8-29.2,20.8c-4.8,4-9.6,5.6-14.8,7.6l-3.2,2
	c-37.2,14-89.6,22.4-148,22.4c-68.4,0-128.8-12-166-32c-24.4-12-38.4-26.4-38.4-42.8c0-41.2,91.6-74,204.8-74
	c46,0,88,5.6,122.4,14.8l30,10c32.4,13.2,52.4,30.8,52.4,49.6C447.6,174.2,445.2,181,440,187.4z"/>
<path style="fill:#E9B526;" d="M502.8,322.2c0,0-2-11.2-2-26.8c0-7.2-2-14-5.2-20.8c0-0.4,0.4-0.4,0.4-0.4h-0.4
	c3.6-8,5.6-15.2,5.6-22.8l-0.4-15.6c0,0,0-12.8,0-28.4c0-16.8-9.6-32.8-26.8-46.8l-0.4,0.4c0,0.8,0,0.8,0,1.6
	c0,15.6-8.4,30.8-22.8,42.8c-19.2,19.6-50.4,33.2-86,43.2l-13.6,3.6c-9.6,2-18.8,6-29.2,6h-0.4c-25.6,4-53.2,6-82,6
	c-37.6,0-72.4-4-104-10.8v-0.8C89.2,242.6,50.4,229,28,205.4L8.4,192.6l-3.2,12.8c0,8,2.8,16,6.4,23.2l0.4,0.8c2,4,4.8,8,8,11.6
	c-3.6-4-6.8-8-9.2-12.4v0.4c-3.6,7.2-5.6,14.8-5.6,22.4c0,14,6.8,27.6,19.2,40l-16-12.8l-2.8,18.8c0,17.2,10.4,33.2,28,49.2h0.8
	c7.6,4,6.8,4-0.8-2c4,54,107.6,96,234.8,96c4.8,0,6.4-0.8,14.4-0.8c122-3.2,219.6-47.2,219.6-100.4L502.8,322.2z"/>
<path d="M240,270.6c-134.4,0-239.2-46-239.2-104.8S106,61,240,61c134.4,0,239.2,46,239.2,104.8S374.4,270.6,240,270.6z M240,68.6
	c-127.6,0-231.2,43.6-231.2,96.8c0,53.6,104,96.8,231.2,96.8c127.6,0,231.2-43.6,231.2-96.8C471.6,112.2,367.6,68.6,240,68.6z"/>
<path d="M240,313.8C107.6,313.8,0,266.6,0,209v-30.8c0-2.4,1.6-4,4-4s4,1.6,4,4V209c0,53.2,104,96.8,232,96.8s232-43.6,232-97.2
	v-34.4c0-2.4,1.6-4,4-4s4,1.6,4,4V209C480,267,372.4,313.8,240,313.8z"/>
<path d="M240,244.2c-117.6,0-209.6-34.4-209.6-78.8s92-78.8,209.6-78.8c45.2,0,88,5.2,124,14.8c2,0.4,3.2,2.8,2.8,4.8
	s-2.8,3.2-4.8,2.8c-35.2-9.6-77.6-14.8-121.6-14.8c-109.2,0-201.6,32.4-201.6,70.8s92.4,70.8,201.6,70.8S442,203.4,442,165
	c0-16.8-18-33.2-50-46.4c-2-0.8-3.2-3.2-2.4-5.2s3.2-3.2,5.2-2.4c35.6,14.4,55.2,33.6,55.2,53.6C449.6,209.8,357.6,244.2,240,244.2z
	"/>
<path d="M252,318.2c-2.4,0-4-1.6-4-4v-44c0-2.4,1.6-4,4-4s4,1.6,4,4v44C256,316.6,254.4,318.2,252,318.2z"/>
<path d="M228,318.2c-2.4,0-4-1.6-4-4v-44c0-2.4,1.6-4,4-4s4,1.6,4,4v44C232,316.6,230.4,318.2,228,318.2z"/>
<path d="M200,314.2c-2.4,0-4-1.6-4-4v-40c0-2.4,1.6-4,4-4s4,1.6,4,4v40C204,312.6,202.4,314.2,200,314.2z"/>
<path d="M172,310.2c-2.4,0-4-1.6-4-4v-40c0-2.4,1.6-4,4-4s4,1.6,4,4v40C176,308.6,174.4,310.2,172,310.2z"/>
<path d="M144,306.2c-2.4,0-4-1.6-4-4v-40c0-2.4,1.6-4,4-4s4,1.6,4,4v40C148,304.6,146.4,306.2,144,306.2z"/>
<path d="M116,298.2c-2.4,0-4-1.6-4-4v-36c0-2.4,1.6-4,4-4s4,1.6,4,4v36C120,296.6,118.4,298.2,116,298.2z"/>
<path d="M88,290.2c-2.4,0-4-1.6-4-4v-40c0-2.4,1.6-4,4-4s4,1.6,4,4v40C92,288.6,90.4,290.2,88,290.2z"/>
<path d="M60,278.2c-2.4,0-4-1.6-4-4v-40c0-2.4,1.6-4,4-4s4,1.6,4,4v40C64,276.6,62.4,278.2,60,278.2z"/>
<path d="M32,262.2c-2.4,0-4-1.6-4-4v-40c0-2.4,1.6-4,4-4s4,1.6,4,4v40C36,260.6,34.4,262.2,32,262.2z"/>
<path d="M280,314.2c-2.4,0-4-1.6-4-4v-40c0-2.4,1.6-4,4-4s4,1.6,4,4v40C284,312.6,282.4,314.2,280,314.2z"/>
<path d="M308,310.2c-2.4,0-4-1.6-4-4v-40c0-2.4,1.6-4,4-4s4,1.6,4,4v40C312,308.6,310.4,310.2,308,310.2z"/>
<path d="M336,310.2c-2.4,0-4-1.6-4-4v-44c0-2.4,1.6-4,4-4s4,1.6,4,4v44C340,308.6,338.4,310.2,336,310.2z"/>
<path d="M364,302.2c-2.4,0-4-1.6-4-4v-44c0-2.4,1.6-4,4-4s4,1.6,4,4v44C368,300.6,366.4,302.2,364,302.2z"/>
<path d="M392,294.2c-2.4,0-4-1.6-4-4v-44c0-2.4,1.6-4,4-4s4,1.6,4,4v44C396,292.6,394.4,294.2,392,294.2z"/>
<path d="M420,278.2c-2.4,0-4-1.6-4-4v-40c0-2.4,1.6-4,4-4s4,1.6,4,4v40C424,276.6,422.4,278.2,420,278.2z"/>
<path d="M448,258.2c-2.4,0-4-1.6-4-4v-40c0-2.4,1.6-4,4-4s4,1.6,4,4v40C452,256.6,450.4,258.2,448,258.2z"/>
<path d="M267.2,314.6c-8,0-16.4,0-24.4-0.4c-2.4,0-4-2-4-4c0-2.4,2-4,4-4c8,0.4,16,0.4,24,0.4c127.6,0,231.6-43.6,231.6-96.8
	c0-15.2-8.4-30-25.6-44c-1.6-1.2-2-4-0.4-5.6c1.2-1.6,4-2,5.6-0.4c18.8,15.2,28.4,32.4,28.4,50C506.8,268.6,401.6,314.6,267.2,314.6
	z"/>
<path d="M268.4,358.6c-130,0-235.6-44.4-239.6-101.2c0-2.4,1.6-4,3.6-4.4c2.4,0,4,1.6,4.4,3.6c3.6,51.6,107.6,93.6,231.6,93.6
	C396,350.2,500,306.6,500,253v-34.8c0-2.4,1.6-4,4-4s4,1.6,4,4v35.2C508,311.4,400.4,358.6,268.4,358.6z"/>
<path d="M280,358.2c-2.4,0-4-1.6-4-4v-40c0-2.4,1.6-4,4-4s4,1.6,4,4v40C284,356.6,282.4,358.2,280,358.2z"/>
<path d="M252,358.2c-2.4,0-4-1.6-4-4v-40c0-2.4,1.6-4,4-4s4,1.6,4,4v40C256,356.6,254.4,358.2,252,358.2z"/>
<path d="M228,354.2c-2.4,0-4-1.6-4-4v-36c0-2.4,1.6-4,4-4s4,1.6,4,4v36C232,352.6,230.4,354.2,228,354.2z"/>
<path d="M200,354.2c-2.4,0-4-1.6-4-4v-36c0-2.4,1.6-4,4-4s4,1.6,4,4v36C204,352.6,202.4,354.2,200,354.2z"/>
<path d="M168,346.2c-2.4,0-4-1.6-4-4v-32c0-2.4,1.6-4,4-4s4,1.6,4,4v32C172,344.6,170.4,346.2,168,346.2z"/>
<path d="M140,342.2c-2.4,0-4-1.6-4-4v-32c0-2.4,1.6-4,4-4s4,1.6,4,4v32C144,340.6,142.4,342.2,140,342.2z"/>
<path d="M112,330.2c-2.4,0-4-1.6-4-4v-28c0-2.4,1.6-4,4-4s4,1.6,4,4v28C116,328.6,114.4,330.2,112,330.2z"/>
<path d="M84,322.2c-2.4,0-4-1.6-4-4v-28c0-2.4,1.6-4,4-4s4,1.6,4,4v28C88,320.6,86.4,322.2,84,322.2z"/>
<path d="M60,302.2c-2.4,0-4-1.6-4-4v-20c0-2.4,1.6-4,4-4s4,1.6,4,4v20C64,300.6,62.4,302.2,60,302.2z"/>
<path d="M308,354.2c-2.4,0-4-1.6-4-4v-36c0-2.4,1.6-4,4-4s4,1.6,4,4v36C312,352.6,310.4,354.2,308,354.2z"/>
<path d="M336,350.2c-2.4,0-4-1.6-4-4v-36c0-2.4,1.6-4,4-4s4,1.6,4,4v36C340,348.6,338.4,350.2,336,350.2z"/>
<path d="M364,350.2c-2.4,0-4-1.6-4-4v-40c0-2.4,1.6-4,4-4s4,1.6,4,4v40C368,348.6,366.4,350.2,364,350.2z"/>
<path d="M392,342.2c-2.4,0-4-1.6-4-4v-40c0-2.4,1.6-4,4-4s4,1.6,4,4v40C396,340.6,394.4,342.2,392,342.2z"/>
<path d="M420,334.2c-2.4,0-4-1.6-4-4v-40c0-2.4,1.6-4,4-4s4,1.6,4,4v40C424,332.6,422.4,334.2,420,334.2z"/>
<path d="M448,322.2c-2.4,0-4-1.6-4-4v-40c0-2.4,1.6-4,4-4s4,1.6,4,4v40C452,320.6,450.4,322.2,448,322.2z"/>
<path d="M476,306.2c-2.4,0-4-1.6-4-4v-40c0-2.4,1.6-4,4-4s4,1.6,4,4v40C480,304.6,478.4,306.2,476,306.2z"/>
<path d="M267.2,402.6c-8,0-16.4,0-24.4-0.4c-2.4,0-4-2-4-4s2-4,4-4c8,0.4,16,0.4,24,0.4c127.6,0,231.6-43.6,231.6-96.8
	c0-6.4-1.6-12.4-4.4-18.4c-0.8-2,0-4.4,2-5.2c2-0.8,4.4,0,5.2,2c3.6,7.2,5.2,14.4,5.2,22C506.8,356.6,401.6,402.6,267.2,402.6z"/>
<path d="M268.4,447C138,447,32.8,402.6,28.8,346.2c0-2.4,1.6-4,3.6-4.4c2.4,0,4,1.6,4.4,3.6c3.6,51.6,107.6,93.2,231.6,93.2
	C394,438.6,500,393.8,500,341v-34.8c0-2.4,1.6-4,4-4s4,1.6,4,4v35.2C508,399.8,400.4,447,268.4,447z"/>
<path d="M280,446.2c-2.4,0-4-1.6-4-4v-44c0-2.4,1.6-4,4-4s4,1.6,4,4v44C284,444.6,282.4,446.2,280,446.2z"/>
<path d="M252,446.2c-2.4,0-4-1.6-4-4v-40c0-2.4,1.6-4,4-4s4,1.6,4,4v40C256,444.6,254.4,446.2,252,446.2z"/>
<path d="M228,442.2c-2.4,0-4-1.6-4-4v-40c0-2.4,1.6-4,4-4s4,1.6,4,4v40C232,440.6,230.4,442.2,228,442.2z"/>
<path d="M200,442.2c-2.4,0-4-1.6-4-4v-40c0-2.4,1.6-4,4-4s4,1.6,4,4v40C204,440.6,202.4,442.2,200,442.2z"/>
<path d="M168,434.2c-2.4,0-4-1.6-4-4v-36c0-2.4,1.6-4,4-4s4,1.6,4,4v36C172,432.6,170.4,434.2,168,434.2z"/>
<path d="M140,430.2c-2.4,0-4-1.6-4-4v-36c0-2.4,1.6-4,4-4s4,1.6,4,4v36C144,428.6,142.4,430.2,140,430.2z"/>
<path d="M112,418.2c-2.4,0-4-1.6-4-4v-28c0-2.4,1.6-4,4-4s4,1.6,4,4v28C116,416.6,114.4,418.2,112,418.2z"/>
<path d="M84,406.2c-2.4,0-4-1.6-4-4v-28c0-2.4,1.6-4,4-4s4,1.6,4,4v28C88,404.6,86.4,406.2,84,406.2z"/>
<path d="M60,390.2c-2.4,0-4-1.6-4-4v-24c0-2.4,1.6-4,4-4s4,1.6,4,4v24C64,388.6,62.4,390.2,60,390.2z"/>
<path d="M308,442.2c-2.4,0-4-1.6-4-4v-40c0-2.4,1.6-4,4-4s4,1.6,4,4v40C312,440.6,310.4,442.2,308,442.2z"/>
<path d="M336,442.2c-2.4,0-4-1.6-4-4v-40c0-2.4,1.6-4,4-4s4,1.6,4,4v40C340,440.6,338.4,442.2,336,442.2z"/>
<path d="M364,438.2c-2.4,0-4-1.6-4-4v-44c0-2.4,1.6-4,4-4s4,1.6,4,4v44C368,436.6,366.4,438.2,364,438.2z"/>
<path d="M392,430.2c-2.4,0-4-1.6-4-4v-44c0-2.4,1.6-4,4-4s4,1.6,4,4v44C396,428.6,394.4,430.2,392,430.2z"/>
<path d="M420,422.2c-2.4,0-4-1.6-4-4v-44c0-2.4,1.6-4,4-4s4,1.6,4,4v44C424,420.6,422.4,422.2,420,422.2z"/>
<path d="M448,410.2c-2.4,0-4-1.6-4-4v-40c0-2.4,1.6-4,4-4s4,1.6,4,4v40C452,408.6,450.4,410.2,448,410.2z"/>
<path d="M476,390.2c-2.4,0-4-1.6-4-4v-40c0-2.4,1.6-4,4-4s4,1.6,4,4v40C480,388.6,478.4,390.2,476,390.2z"/>
<path d="M240,358.6c-134.4,0-239.2-46-239.2-104.8c0-8.4,2-12.4,5.6-19.2l0.4-0.8c1.2-2,3.6-2.8,5.6-1.6c2,1.2,2.8,3.6,1.6,5.6
	l-0.4,0.8c-3.6,6.4-4.8,9.2-4.8,15.6C8.8,307.8,112.4,351,240,351c4.4,0,5.2,0,6.4,0c0.8,0,2.4-0.4,5.6-0.4c2,0,4,1.6,4,4
	s-1.6,4-4,4c-3.2,0-4.4,0.4-5.2,0.4C245.6,358.6,244.8,358.6,240,358.6z"/>
<path d="M228,402.2c-2.4,0-4-1.6-4-4v-44c0-2.4,1.6-4,4-4s4,1.6,4,4v44C232,400.6,230.4,402.2,228,402.2z"/>
<path d="M252,402.2c-2.4,0-4-1.6-4-4v-40c0-2.4,1.6-4,4-4s4,1.6,4,4v40C256,400.6,254.4,402.2,252,402.2z"/>
<path d="M280,398.2c-2.4,0-4-1.6-4-4v-40c0-2.4,1.6-4,4-4s4,1.6,4,4v40C284,396.6,282.4,398.2,280,398.2z"/>
<path d="M308,398.2c-2.4,0-4-1.6-4-4v-40c0-2.4,1.6-4,4-4s4,1.6,4,4v40C312,396.6,310.4,398.2,308,398.2z"/>
<path d="M336,390.2c-2.4,0-4-1.6-4-4v-36c0-2.4,1.6-4,4-4s4,1.6,4,4v36C340,388.6,338.4,390.2,336,390.2z"/>
<path d="M364,386.2c-2.4,0-4-1.6-4-4v-36c0-2.4,1.6-4,4-4s4,1.6,4,4v36C368,384.6,366.4,386.2,364,386.2z"/>
<path d="M392,374.2c-2.4,0-4-1.6-4-4v-28c0-2.4,1.6-4,4-4s4,1.6,4,4v28C396,372.6,394.4,374.2,392,374.2z"/>
<path d="M420,362.2c-2.4,0-4-1.6-4-4v-28c0-2.4,1.6-4,4-4s4,1.6,4,4v28C424,360.6,422.4,362.2,420,362.2z"/>
<path d="M448,346.2c-2.4,0-4-1.6-4-4v-24c0-2.4,1.6-4,4-4s4,1.6,4,4v24C452,344.6,450.4,346.2,448,346.2z"/>
<path d="M200,398.2c-2.4,0-4-1.6-4-4v-40c0-2.4,1.6-4,4-4s4,1.6,4,4v40C204,396.6,202.4,398.2,200,398.2z"/>
<path d="M172,398.2c-2.4,0-4-1.6-4-4v-40c0-2.4,1.6-4,4-4s4,1.6,4,4v40C176,396.6,174.4,398.2,172,398.2z"/>
<path d="M144,394.2c-2.4,0-4-1.6-4-4v-44c0-2.4,1.6-4,4-4s4,1.6,4,4v44C148,392.6,146.4,394.2,144,394.2z"/>
<path d="M116,386.2c-2.4,0-4-1.6-4-4v-44c0-2.4,1.6-4,4-4s4,1.6,4,4v44C120,384.6,118.4,386.2,116,386.2z"/>
<path d="M88,378.2c-2.4,0-4-1.6-4-4v-40c0-2.4,1.6-4,4-4s4,1.6,4,4v40C92,376.6,90.4,378.2,88,378.2z"/>
<path d="M60,366.2c-2.4,0-4-1.6-4-4v-40c0-2.4,1.6-4,4-4s4,1.6,4,4v40C64,364.6,62.4,366.2,60,366.2z"/>
<path d="M32,350.2c-2.4,0-4-1.6-4-4v-40c0-2.4,1.6-4,4-4s4,1.6,4,4v40C36,348.6,34.4,350.2,32,350.2z"/>
<path d="M239.6,402.2C107.6,402.2,0,355,0,297.4v-27.2c0-2.4,1.6-4,4-4s4,1.6,4,4v27.2c0,53.6,104,96.8,231.6,96.8
	c126,0,227.2-40.8,231.2-92.4c0-2,2-4,4.4-3.6c2.4,0,4,2,3.6,4.4C474.8,358.6,369.6,402.2,239.6,402.2z"/>
<g>
</g>
<g>
</g>
<g>
</g>
<g>
</g>
<g>
</g>
<g>
</g>
<g>
</g>
<g>
</g>
<g>
</g>
<g>
</g>
<g>
</g>
<g>
</g>
<g>
</g>
<g>
</g>
<g>
</g>
</svg>
