<?xml version="1.0" encoding="iso-8859-1"?>
<!-- Generator: Adobe Illustrator 19.0.0, SVG Export Plug-In . SVG Version: 6.00 Build 0)  -->
<svg version="1.1" id="Layer_1" xmlns="http://www.w3.org/2000/svg" xmlns:xlink="http://www.w3.org/1999/xlink" x="0px" y="0px"
	 viewBox="0 0 512 512" style="enable-background:new 0 0 512 512;" xml:space="preserve">
<path style="fill:#FFDC64;" d="M315.858,67.875V33.67c0-4.722-3.829-8.551-8.551-8.551H50.772c-4.722,0-8.551,3.829-8.551,8.551
	v34.205c0,4.722,3.829,8.551,8.551,8.551H16.568c-4.722,0-8.551,3.829-8.551,8.551v34.205c0,4.722,3.829,8.551,8.551,8.551H33.67
	c-4.722,0-8.551,3.829-8.551,8.551v34.205c0,4.722,3.829,8.551,8.551,8.551H16.568c-4.722,0-8.551,3.829-8.551,8.551v34.205
	c0,4.722,3.829,8.551,8.551,8.551h34.205c-4.722,0-8.551,3.829-8.551,8.551v34.205c0,4.722,3.829,8.551,8.551,8.551H16.568
	c-4.722,0-8.551,3.829-8.551,8.551v34.205c0,4.722,3.829,8.551,8.551,8.551H33.67c-4.722,0-8.551,3.829-8.551,8.551v34.205
	c0,4.722,3.829,8.551,8.551,8.551H16.568c-4.722,0-8.551,3.829-8.551,8.551v34.205c0,4.722,3.829,8.551,8.551,8.551h34.205
	c-4.722,0-8.551,3.829-8.551,8.551v34.205c0,4.722,3.829,8.551,8.551,8.551h256.534c4.722,0,8.551-3.829,8.551-8.551V238.898
	c0-4.722-3.829-8.551-8.551-8.551h-34.205c4.722,0,8.551-3.829,8.551-8.551v-34.205c0-4.722-3.829-8.551-8.551-8.551h17.102
	c4.722,0,8.551-3.829,8.551-8.551v-34.205c0-4.722-3.829-8.551-8.551-8.551h-17.102c4.722,0,8.551-3.829,8.551-8.551V84.977
	c0-4.722-3.829-8.551-8.551-8.551h34.205C312.029,76.426,315.858,72.597,315.858,67.875z"/>
<path style="fill:#FFC850;" d="M307.307,230.347h-34.205c4.722,0,8.551-3.829,8.551-8.551v-9.694
	c-46.139,28.661-76.96,79.65-76.96,137.961c0,57.525,29.977,107.948,75.079,136.818h27.535c4.722,0,8.551-3.829,8.551-8.551V238.898
	C315.858,234.175,312.029,230.347,307.307,230.347z"/>
<g>
	<path style="fill:#FFF082;" d="M264.551,179.04h-17.102c-4.722,0-8.551-3.829-8.551-8.551v-34.205c0-4.722,3.829-8.551,8.551-8.551
		h17.102c4.722,0,8.551,3.829,8.551,8.551v34.205C273.102,175.211,269.274,179.04,264.551,179.04z"/>
	<path style="fill:#FFF082;" d="M247.449,127.733h-17.102c-4.722,0-8.551-3.829-8.551-8.551V84.977c0-4.722,3.829-8.551,8.551-8.551
		h17.102c4.722,0,8.551,3.829,8.551,8.551v34.205C256,123.904,252.171,127.733,247.449,127.733z"/>
	<path style="fill:#FFF082;" d="M247.449,230.347h-17.102c-4.722,0-8.551-3.829-8.551-8.551v-34.205
		c0-4.722,3.829-8.551,8.551-8.551h17.102c4.722,0,8.551,3.829,8.551,8.551v34.205C256,226.518,252.171,230.347,247.449,230.347z"/>
</g>
<path style="fill:#FFC850;" d="M127.733,76.426h34.205c-4.722,0-8.551-3.829-8.551-8.551V33.67c0-4.722,3.829-8.551,8.551-8.551
	H50.772c-4.722,0-8.551,3.829-8.551,8.551v34.205c0,4.722,3.829,8.551,8.551,8.551H16.568c-4.722,0-8.551,3.829-8.551,8.551v34.205
	c0,4.722,3.829,8.551,8.551,8.551H33.67c-4.722,0-8.551,3.829-8.551,8.551v34.205c0,4.722,3.829,8.551,8.551,8.551H16.568
	c-4.722,0-8.551,3.829-8.551,8.551v34.205c0,4.722,3.829,8.551,8.551,8.551h34.205c-4.722,0-8.551,3.829-8.551,8.551v34.205
	c0,4.722,3.829,8.551,8.551,8.551H16.568c-4.722,0-8.551,3.829-8.551,8.551v34.205c0,4.722,3.829,8.551,8.551,8.551H33.67
	c-4.722,0-8.551,3.829-8.551,8.551v34.205c0,4.722,3.829,8.551,8.551,8.551H16.568c-4.722,0-8.551,3.829-8.551,8.551v34.205
	c0,4.722,3.829,8.551,8.551,8.551h34.205c-4.722,0-8.551,3.829-8.551,8.551v34.205c0,4.722,3.829,8.551,8.551,8.551h111.165
	c-4.722,0-8.551-3.829-8.551-8.551v-34.205c0-4.722,3.829-8.551,8.551-8.551h-34.205c-4.722,0-8.551-3.829-8.551-8.551v-34.205
	c0-4.722,3.829-8.551,8.551-8.551h17.102c-4.722,0-8.551-3.829-8.551-8.551v-34.205c0-4.722,3.829-8.551,8.551-8.551h-17.102
	c-4.722,0-8.551-3.829-8.551-8.551v-34.205c0-4.722,3.829-8.551,8.551-8.551h34.205c-4.722,0-8.551-3.829-8.551-8.551v-34.205
	c0-4.722,3.829-8.551,8.551-8.551h-34.205c-4.722,0-8.551-3.829-8.551-8.551v-34.205c0-4.722,3.829-8.551,8.551-8.551h17.102
	c-4.722,0-8.551-3.829-8.551-8.551v-34.205c0-4.722,3.829-8.551,8.551-8.551h-17.102c-4.722,0-8.551-3.829-8.551-8.551V84.977
	C119.182,80.255,123.01,76.426,127.733,76.426z"/>
<path style="fill:#FFF082;" d="M281.653,76.426h-17.102c-4.722,0-8.551-3.829-8.551-8.551V33.67c0-4.722,3.829-8.551,8.551-8.551
	h17.102c4.722,0,8.551,3.829,8.551,8.551v34.205C290.205,72.597,286.376,76.426,281.653,76.426z"/>
<circle style="fill:#FFDC64;" cx="367.165" cy="350.063" r="136.818"/>
<circle style="fill:#FFF082;" cx="367.165" cy="350.063" r="102.614"/>
<path d="M367.165,205.228c-24.649,0-47.876,6.196-68.215,17.102h-9.307c0.005-0.179,0.027-0.354,0.027-0.534v-34.205
	c0-0.181-0.021-0.356-0.027-0.534h0.561c9.136,0,16.568-7.432,16.568-16.568v-34.205c0-9.136-7.432-16.568-16.568-16.568h-0.561
	c0.005-0.179,0.027-0.354,0.027-0.534V84.977c0-0.181-0.021-0.356-0.027-0.534h17.663c9.136,0,16.568-7.432,16.568-16.568V33.67
	c0-9.136-7.432-16.568-16.568-16.568H50.772c-9.136,0-16.568,7.432-16.568,16.568v34.205c0,0.181,0.021,0.356,0.027,0.534H16.568
	C7.432,68.409,0,75.841,0,84.977v34.205c0,9.136,7.432,16.568,16.568,16.568h0.561c-0.005,0.178-0.027,0.354-0.027,0.534v34.205
	c0,0.181,0.021,0.356,0.027,0.534h-0.561C7.432,171.023,0,178.455,0,187.591v34.205c0,9.136,7.432,16.568,16.568,16.568h17.663
	c-0.005,0.179-0.027,0.354-0.027,0.534v34.205c0,0.181,0.021,0.356,0.027,0.534H16.568C7.432,273.637,0,281.069,0,290.205v34.205
	c0,9.136,7.432,16.568,16.568,16.568h0.561c-0.005,0.178-0.027,0.354-0.027,0.534v34.205c0,0.181,0.021,0.356,0.027,0.534h-0.561
	C7.432,376.251,0,383.683,0,392.818v34.205c0,9.136,7.432,16.568,16.568,16.568h17.663c-0.005,0.178-0.027,0.354-0.027,0.534v34.205
	c0,9.136,7.432,16.568,16.568,16.568h256.534c5.787,0,10.882-2.988,13.846-7.495c14.462,4.858,29.934,7.495,46.012,7.495
	c79.862,0,144.835-64.973,144.835-144.835S447.027,205.228,367.165,205.228z M290.205,135.749c0.295,0,0.534,0.24,0.534,0.534
	v34.205c0,0.294-0.239,0.534-0.534,0.534h-17.102H33.67c-0.295,0-0.534-0.241-0.534-0.534v-34.205c0-0.294,0.239-0.534,0.534-0.534
	h239.432H290.205z M50.238,33.67c0-0.294,0.239-0.534,0.534-0.534h256.534c0.295,0,0.534,0.241,0.534,0.534v34.205
	c0,0.294-0.239,0.534-0.534,0.534h-34.205H50.772c-0.295,0-0.534-0.241-0.534-0.534V33.67z M16.568,119.716
	c-0.295,0-0.534-0.241-0.534-0.534V84.977c0-0.294,0.239-0.534,0.534-0.534h34.205h222.33c0.295,0,0.534,0.241,0.534,0.534v34.205
	c0,0.294-0.239,0.534-0.534,0.534H33.67H16.568z M16.568,222.33c-0.295,0-0.534-0.241-0.534-0.534v-34.205
	c0-0.294,0.239-0.534,0.534-0.534H33.67h239.432c0.295,0,0.534,0.241,0.534,0.534v34.205c0,0.294-0.239,0.534-0.534,0.534H50.772
	H16.568z M275.065,238.363c-12.096,9.991-22.539,21.91-30.874,35.273H50.772c-0.295,0-0.534-0.241-0.534-0.534v-34.205
	c0-0.294,0.239-0.534,0.534-0.534h222.33H275.065z M16.568,324.944c-0.295,0-0.534-0.241-0.534-0.534v-34.205
	c0-0.294,0.239-0.534,0.534-0.534h218.97c-5.104,11.08-8.852,22.909-11.022,35.273H33.67H16.568z M224.708,376.251H33.67
	c-0.295,0-0.534-0.241-0.534-0.534v-34.205c0-0.294,0.239-0.534,0.534-0.534h188.953c-0.187,3.006-0.293,6.034-0.293,9.086
	C222.33,359.003,223.15,367.754,224.708,376.251z M16.568,427.557c-0.295,0-0.534-0.241-0.534-0.534v-34.205
	c0-0.294,0.239-0.534,0.534-0.534h212.046c3.836,12.564,9.336,24.407,16.245,35.273H50.772H16.568z M50.772,478.864
	c-0.295,0-0.534-0.239-0.534-0.534v-34.205c0-0.294,0.239-0.534,0.534-0.534H256c0.218,0,0.432-0.016,0.646-0.032
	c12.269,14.48,27.32,26.53,44.327,35.306H50.772z M367.165,478.864c-71.022,0-128.802-57.78-128.802-128.802
	s57.78-128.802,128.802-128.802s128.802,57.78,128.802,128.802S438.186,478.864,367.165,478.864z"/>
<path d="M367.165,239.432c-61.002,0-110.63,49.629-110.63,110.63s49.629,110.63,110.63,110.63s110.63-49.629,110.63-110.63
	S428.167,239.432,367.165,239.432z M367.165,444.66c-52.161,0-94.597-42.436-94.597-94.597s42.436-94.597,94.597-94.597
	s94.597,42.436,94.597,94.597S419.326,444.66,367.165,444.66z"/>
<path d="M393.353,321.203c0,4.427,3.589,8.017,8.017,8.017c4.427,0,8.017-3.589,8.017-8.017c0-15.098-14.492-27.298-34.205-29.93
	v-1.068c0-4.427-3.589-8.017-8.017-8.017c-4.427,0-8.017,3.589-8.017,8.017v1.068c-19.713,2.632-34.205,14.832-34.205,29.93
	c0,21.354,18.87,29.655,34.205,34.718v36.709c-11.014-2.054-18.171-8.139-18.171-13.706c0-4.427-3.589-8.017-8.017-8.017
	c-4.427,0-8.017,3.589-8.017,8.017c0,15.098,14.492,27.298,34.205,29.93v1.068c0,4.427,3.589,8.017,8.017,8.017
	c4.427,0,8.017-3.589,8.017-8.017v-1.068c19.713-2.632,34.205-14.832,34.205-29.93c0-21.354-18.87-29.655-34.205-34.718v-36.709
	C386.195,309.551,393.353,315.636,393.353,321.203z M340.977,321.203c0-5.567,7.157-11.652,18.171-13.706v31.358
	C345.47,333.635,340.977,328.915,340.977,321.203z M393.353,378.923c0,5.567-7.157,11.652-18.171,13.706v-31.358
	C388.86,366.49,393.353,371.211,393.353,378.923z"/>
<g>
</g>
<g>
</g>
<g>
</g>
<g>
</g>
<g>
</g>
<g>
</g>
<g>
</g>
<g>
</g>
<g>
</g>
<g>
</g>
<g>
</g>
<g>
</g>
<g>
</g>
<g>
</g>
<g>
</g>
</svg>
