<?xml version="1.0" encoding="iso-8859-1"?>
<!-- Generator: Adobe Illustrator 19.0.0, SVG Export Plug-In . SVG Version: 6.00 Build 0)  -->
<svg version="1.1" id="Layer_1" xmlns="http://www.w3.org/2000/svg" xmlns:xlink="http://www.w3.org/1999/xlink" x="0px" y="0px"
	 viewBox="0 0 512.004 512.004" style="enable-background:new 0 0 512.004 512.004;" xml:space="preserve">
<path style="fill:#E6C275;" d="M232.389,351.714c0,25.019-52.022,45.302-116.195,45.302S0,376.734,0,351.714V267.83h232.389V351.714
	z"/>
<path style="fill:#FFD782;" d="M232.389,267.83c0,25.019-52.022,45.302-116.195,45.302S0,292.851,0,267.83v-83.883h232.389V267.83z"
	/>
<g>
	<path style="fill:#E6C275;" d="M232.389,183.947c0,25.019-52.022,45.302-116.195,45.302S0,208.968,0,183.947v-83.883h232.389
		V183.947z"/>
	<path style="fill:#E6C275;" d="M279.611,351.714c0,25.019,52.022,45.302,116.195,45.302s116.195-20.282,116.195-45.302V267.83
		h-232.39V351.714z"/>
</g>
<path style="fill:#FFD782;" d="M279.611,267.83c0,25.019,52.022,45.302,116.195,45.302s116.195-20.282,116.195-45.302v-83.883
	h-232.39V267.83z"/>
<path style="fill:#E6C275;" d="M279.611,183.947c0,25.019,52.022,45.302,116.195,45.302s116.195-20.282,116.195-45.302v-83.883
	h-232.39V183.947z"/>
<g>
	<ellipse style="fill:#FFD782;" cx="395.804" cy="100.065" rx="116.201" ry="45.301"/>
	<ellipse style="fill:#FFD782;" cx="116.201" cy="100.065" rx="116.201" ry="45.301"/>
</g>
<path style="opacity:0.1;enable-background:new    ;" d="M107.542,160.288V396.89c2.857,0.082,5.742,0.125,8.652,0.125
	c64.172,0,116.195-20.282,116.195-45.302v-83.883v-83.883v-83.882c0-5.582-2.596-10.928-7.333-15.866
	c-23.365,2.248-45.048,7.023-62.938,13.998C114.633,116.71,107.542,145.045,107.542,160.288z"/>
<path style="opacity:0.1;enable-background:new    ;" d="M404.457,160.288V396.89c-2.857,0.082-5.742,0.125-8.652,0.125
	c-64.172,0-116.195-20.282-116.195-45.302v-83.883v-83.883v-83.882c0-5.582,2.596-10.928,7.333-15.866
	c23.365,2.248,45.048,7.023,62.938,13.998C397.367,116.71,404.457,145.045,404.457,160.288z"/>
<path style="fill:#E6C275;" d="M372.194,411.938c0,25.019-52.022,45.302-116.195,45.302s-116.195-20.282-116.195-45.302v-83.883
	h232.389v83.883H372.194z"/>
<path style="fill:#FFD782;" d="M372.194,328.055c0,25.019-52.022,45.302-116.195,45.302s-116.195-20.282-116.195-45.302v-83.883
	h232.389v83.883H372.194z"/>
<path style="fill:#E6C275;" d="M372.194,244.172c0,25.019-52.022,45.302-116.195,45.302s-116.195-20.282-116.195-45.302v-83.883
	h232.389v83.883H372.194z"/>
<ellipse style="fill:#FFD782;" cx="256.002" cy="160.285" rx="116.201" ry="45.301"/>
<g>
</g>
<g>
</g>
<g>
</g>
<g>
</g>
<g>
</g>
<g>
</g>
<g>
</g>
<g>
</g>
<g>
</g>
<g>
</g>
<g>
</g>
<g>
</g>
<g>
</g>
<g>
</g>
<g>
</g>
</svg>
