<?xml version="1.0" encoding="iso-8859-1"?>
<!-- Generator: Adobe Illustrator 19.0.0, SVG Export Plug-In . SVG Version: 6.00 Build 0)  -->
<svg version="1.1" id="Layer_1" xmlns="http://www.w3.org/2000/svg" xmlns:xlink="http://www.w3.org/1999/xlink" x="0px" y="0px"
	 viewBox="0 0 502.8 502.8" style="enable-background:new 0 0 502.8 502.8;" xml:space="preserve">
<path style="fill:#E9B526;" d="M256.4,337.2c-138,0-248-47.6-248-106.4v43.6c0,25.2,20,48.4,55.6,66.4c15.6,8.4,31.6,15.6,55.2,21.6
	c15.6,4.8,35.6,8.8,55.2,12c15.6,2.8,35.6,4.4,55.2,5.6c8,0.4,15.6,0.8,27.6,0.8c8,0,15.6-0.4,27.6-0.8c15.6-0.8,35.6-2.8,55.2-5.6
	c19.6-2.8,35.6-7.2,55.2-12c19.6-6,38.8-13.2,54.4-21.6c31.6-18.4,50.4-41.2,50.4-66.4v-43.6C500.4,289.6,390.4,337.2,256.4,337.2z"
	/>
<path style="fill:#F0C960;" d="M256,124.8C119.2,124.8,8,172,8,231.2c0,59.2,111.2,106.4,248,106.4s244-47.2,244-106.4
	C500,172,393.2,124.8,256,124.8z M256,310c-119.6,0-216.4-35.6-216.4-78.8c0-43.2,96.8-78.8,216.4-78.8c48.4,0,93.2,5.6,129.2,15.6
	l31.6,10.8c34.4,14,55.6,33.2,55.6,52.8C472.8,274.4,375.6,310,256,310z"/>
<path style="fill:#E9B526;" d="M417.2,178.4l-31.6-10.8c-36-9.6-80.8-15.6-129.2-15.6C136.8,152,40,187.6,40,230.8
	s96.8,78.8,216.4,78.8s216.8-35.6,216.8-78.8C472.8,211.6,451.6,192.4,417.2,178.4z"/>
<path d="M253.2,340.4C113.6,340.4,0,290.8,0,229.6c0-30.4,26.8-58.4,75.6-79.2c47.6-20.4,110.8-31.6,178-31.6
	c139.6,0,249.2,48.8,249.2,110.8C502.4,291.6,393.2,340.4,253.2,340.4z M253.2,126.8C118,126.8,8,172.8,8,229.6
	s110,102.8,245.2,102.8c133.2,0,241.2-46,241.2-102.8S386.4,126.8,253.2,126.8z"/>
<path d="M253.2,312.8c-124.4,0-221.6-36.4-221.6-83.2c0-46.8,97.2-83.2,221.6-83.2c47.6,0,92.8,5.6,131.2,16c2,0.4,3.2,2.8,2.8,4.8
	s-2.8,3.2-4.8,2.8c-37.6-10-82-15.6-128.8-15.6c-116,0-213.6,34.4-213.6,75.2c0,40.8,98,75.2,213.6,75.2s213.6-34.4,213.6-75.2
	c0-18-18.8-35.2-53.2-49.2c-2-0.8-3.2-3.2-2.4-5.2s3.2-3.2,5.2-2.4c37.6,15.2,58.4,35.2,58.4,56.4
	C474.8,276.4,377.6,312.8,253.2,312.8z"/>
<path d="M252.4,384c-140,0-250-48.8-250-110.8v-29.6c0-2.4,1.6-4,4-4s4,1.6,4,4v29.6c0,56.8,108.4,102.8,242,102.8s242-46,242-102.8
	v-41.6c0-2.4,1.6-4,4-4s4,1.6,4,4v41.6C502.4,335.2,392.4,384,252.4,384z"/>
<path d="M250.4,383.6c-2.4,0-4-1.6-4-4v-40c0-2.4,1.6-4,4-4s4,1.6,4,4v40C254.4,382,252.8,383.6,250.4,383.6z"/>
<path d="M226.4,379.6c-2.4,0-4-1.6-4-4v-36c0-2.4,1.6-4,4-4s4,1.6,4,4v36C230.4,378,228.8,379.6,226.4,379.6z"/>
<path d="M198.4,379.6c-2.4,0-4-1.6-4-4v-36c0-2.4,1.6-4,4-4s4,1.6,4,4v36C202.4,378,200.8,379.6,198.4,379.6z"/>
<path d="M170.4,375.6c-2.4,0-4-1.6-4-4v-36c0-2.4,1.6-4,4-4s4,1.6,4,4v36C174.4,374,172.8,375.6,170.4,375.6z"/>
<path d="M142.4,371.6c-2.4,0-4-1.6-4-4v-36c0-2.4,1.6-4,4-4s4,1.6,4,4v36C146.4,370,144.8,371.6,142.4,371.6z"/>
<path d="M114.4,363.6c-2.4,0-4-1.6-4-4v-36c0-2.4,1.6-4,4-4s4,1.6,4,4v36C118.4,362,116.8,363.6,114.4,363.6z"/>
<path d="M86.4,355.6c-2.4,0-4-1.6-4-4v-36c0-2.4,1.6-4,4-4s4,1.6,4,4v36C90.4,354,88.8,355.6,86.4,355.6z"/>
<path d="M58.4,343.6c-2.4,0-4-1.6-4-4v-40c0-2.4,1.6-4,4-4s4,1.6,4,4v40C62.4,342,60.8,343.6,58.4,343.6z"/>
<path d="M30.4,323.6c-2.4,0-4-1.6-4-4v-36c0-2.4,1.6-4,4-4s4,1.6,4,4v36C34.4,322,32.8,323.6,30.4,323.6z"/>
<path d="M278.4,379.6c-2.4,0-4-1.6-4-4v-36c0-2.4,1.6-4,4-4s4,1.6,4,4v36C282.4,378,280.8,379.6,278.4,379.6z"/>
<path d="M306.4,379.6c-2.4,0-4-1.6-4-4v-36c0-2.4,1.6-4,4-4s4,1.6,4,4v36C310.4,378,308.8,379.6,306.4,379.6z"/>
<path d="M334.4,375.6c-2.4,0-4-1.6-4-4v-36c0-2.4,1.6-4,4-4s4,1.6,4,4v36C338.4,374,336.8,375.6,334.4,375.6z"/>
<path d="M362.4,371.6c-2.4,0-4-1.6-4-4v-40c0-2.4,1.6-4,4-4s4,1.6,4,4v40C366.4,370,364.8,371.6,362.4,371.6z"/>
<path d="M390.4,363.6c-2.4,0-4-1.6-4-4v-36c0-2.4,1.6-4,4-4s4,1.6,4,4v36C394.4,362,392.8,363.6,390.4,363.6z"/>
<path d="M418.4,355.6c-2.4,0-4-1.6-4-4v-40c0-2.4,1.6-4,4-4s4,1.6,4,4v40C422.4,354,420.8,355.6,418.4,355.6z"/>
<path d="M446.4,339.6c-2.4,0-4-1.6-4-4v-36c0-2.4,1.6-4,4-4s4,1.6,4,4v36C450.4,338,448.8,339.6,446.4,339.6z"/>
<path d="M474.4,323.6c-2.4,0-4-1.6-4-4v-40c0-2.4,1.6-4,4-4s4,1.6,4,4v40C478.4,322,476.8,323.6,474.4,323.6z"/>
<g>
</g>
<g>
</g>
<g>
</g>
<g>
</g>
<g>
</g>
<g>
</g>
<g>
</g>
<g>
</g>
<g>
</g>
<g>
</g>
<g>
</g>
<g>
</g>
<g>
</g>
<g>
</g>
<g>
</g>
</svg>
