<?xml version="1.0" encoding="iso-8859-1"?>
<!-- Generator: Adobe Illustrator 19.0.0, SVG Export Plug-In . SVG Version: 6.00 Build 0)  -->
<svg version="1.1" id="Layer_1" xmlns="http://www.w3.org/2000/svg" xmlns:xlink="http://www.w3.org/1999/xlink" x="0px" y="0px"
	 viewBox="0 0 512 512" style="enable-background:new 0 0 512 512;" xml:space="preserve">
<g transform="translate(1 1)">
	<path style="fill:#FDCC00;" d="M255,502.467C118.467,502.467,7.533,391.533,7.533,255S118.467,7.533,255,7.533
		S502.467,118.467,502.467,255S391.533,502.467,255,502.467"/>
	<g>
		<path style="fill:#FFE100;" d="M459.8,255c0-113.493-91.307-204.8-204.8-204.8S50.2,141.507,50.2,255S141.507,459.8,255,459.8
			S459.8,368.493,459.8,255"/>
		<path style="fill:#FFE100;" d="M408.6,255c0-84.48-69.12-153.6-153.6-153.6S101.4,170.52,101.4,255S170.52,408.6,255,408.6
			S408.6,339.48,408.6,255"/>
		<path style="fill:#FFE100;" d="M323.267,255c0,84.48-30.72,153.6-68.267,153.6s-68.267-69.12-68.267-153.6
			S217.453,101.4,255,101.4S323.267,170.52,323.267,255"/>
	</g>
	<path style="fill:#FFA800;" d="M255,7.533c-2.56,0-5.973,0-8.533,0C378.733,11.8,485.4,121.027,485.4,255
		S378.733,497.347,246.467,502.467c2.56,0,5.973,0,8.533,0c136.533,0,247.467-110.933,247.467-247.467S391.533,7.533,255,7.533"/>
	<path style="fill:#FFFFFF;" d="M255,7.533c2.56,0,5.973,0,8.533,0C131.267,12.653,24.6,121.027,24.6,255
		s106.667,242.347,238.933,247.467c-2.56,0-5.973,0-8.533,0C118.467,502.467,7.533,391.533,7.533,255S118.467,7.533,255,7.533"/>
	<path d="M255,417.133C165.4,417.133,92.867,344.6,92.867,255S165.4,92.867,255,92.867S417.133,165.4,417.133,255
		S344.6,417.133,255,417.133z M255,109.933c-80.213,0-145.067,64.853-145.067,145.067S174.787,400.067,255,400.067
		S400.067,335.213,400.067,255S335.213,109.933,255,109.933z"/>
	<path d="M255,417.133c-42.667,0-76.8-70.827-76.8-162.133S212.333,92.867,255,92.867S331.8,163.693,331.8,255
		S297.667,417.133,255,417.133z M255,109.933c-29.013,0-59.733,58.027-59.733,145.067S225.987,400.067,255,400.067
		S314.733,342.04,314.733,255S284.013,109.933,255,109.933z"/>
	<rect x="101.4" y="246.467" width="315.733" height="17.067"/>
	<rect x="246.467" y="101.4" width="17.067" height="307.2"/>
	<path d="M255,511C114.2,511-1,395.8-1,255S114.2-1,255-1s256,115.2,256,256S395.8,511,255,511z M255,16.067
		C123.587,16.067,16.067,123.587,16.067,255S123.587,493.933,255,493.933S493.933,386.413,493.933,255S386.413,16.067,255,16.067z"
		/>
	<path d="M255,468.333C137.24,468.333,41.667,372.76,41.667,255S137.24,41.667,255,41.667S468.333,137.24,468.333,255
		S372.76,468.333,255,468.333z M255,58.733C146.627,58.733,58.733,146.627,58.733,255S146.627,451.267,255,451.267
		S451.267,363.373,451.267,255S363.373,58.733,255,58.733z"/>
	<path d="M255,58.733c-5.12,0-8.533-3.413-8.533-8.533V7.533C246.467,2.413,249.88-1,255-1s8.533,3.413,8.533,8.533V50.2
		C263.533,55.32,260.12,58.733,255,58.733z"/>
	<path d="M255,511c-5.12,0-8.533-3.413-8.533-8.533V459.8c0-5.12,3.413-8.533,8.533-8.533s8.533,3.413,8.533,8.533v42.667
		C263.533,507.587,260.12,511,255,511z"/>
	<path d="M502.467,263.533H459.8c-5.12,0-8.533-3.413-8.533-8.533s3.413-8.533,8.533-8.533h42.667c5.12,0,8.533,3.413,8.533,8.533
		S507.587,263.533,502.467,263.533z"/>
	<path d="M50.2,263.533H7.533C2.413,263.533-1,260.12-1,255s3.413-8.533,8.533-8.533H50.2c5.12,0,8.533,3.413,8.533,8.533
		S55.32,263.533,50.2,263.533z"/>
	<path d="M109.933,118.467c-2.56,0-4.267-0.853-5.973-2.56l-25.6-25.6c-3.413-3.413-3.413-8.533,0-11.947s8.533-3.413,11.947,0
		l25.6,25.6c3.413,3.413,3.413,8.533,0,11.947C114.2,117.613,112.493,118.467,109.933,118.467z"/>
	<path d="M425.667,434.2c-2.56,0-4.267-0.853-5.973-2.56l-25.6-25.6c-3.413-3.413-3.413-8.533,0-11.947
		c3.413-3.413,8.533-3.413,11.947,0l25.6,25.6c3.413,3.413,3.413,8.533,0,11.947C429.933,433.347,428.227,434.2,425.667,434.2z"/>
	<path d="M400.067,118.467c-2.56,0-4.267-0.853-5.973-2.56c-3.413-3.413-3.413-8.533,0-11.947l25.6-25.6
		c3.413-3.413,8.533-3.413,11.947,0c3.413,3.413,3.413,8.533,0,11.947l-25.6,25.6C404.333,117.613,402.627,118.467,400.067,118.467z
		"/>
	<path d="M84.333,434.2c-2.56,0-4.267-0.853-5.973-2.56c-3.413-3.413-3.413-8.533,0-11.947l25.6-25.6
		c3.413-3.413,8.533-3.413,11.947,0c3.413,3.413,3.413,8.533,0,11.947l-25.6,25.6C88.6,433.347,86.893,434.2,84.333,434.2z"/>
</g>
<g>
</g>
<g>
</g>
<g>
</g>
<g>
</g>
<g>
</g>
<g>
</g>
<g>
</g>
<g>
</g>
<g>
</g>
<g>
</g>
<g>
</g>
<g>
</g>
<g>
</g>
<g>
</g>
<g>
</g>
</svg>
