<?xml version="1.0" encoding="iso-8859-1"?>
<!-- Generator: Adobe Illustrator 19.0.0, SVG Export Plug-In . SVG Version: 6.00 Build 0)  -->
<svg version="1.1" id="Layer_1" xmlns="http://www.w3.org/2000/svg" xmlns:xlink="http://www.w3.org/1999/xlink" x="0px" y="0px"
	 viewBox="0 0 508 508" style="enable-background:new 0 0 508 508;" xml:space="preserve">
<path style="fill:#E9B526;" d="M501.6,120.4c0-59.2-109.2-106.4-246-106.4S7.6,61.2,7.6,120.4C7.6,124,8.8,392,8.8,392
	c0,25.2,19.6,48.4,55.2,66.4c15.6,8.4,31.6,15.6,55.2,21.6c15.6,4.8,35.6,8.8,55.2,12c15.6,2.8,35.6,4.4,55.2,5.6
	c8,0.4,15.6,0.8,27.6,0.8c8,0,15.6-0.4,27.6-0.8c15.6-0.8,35.6-2.8,55.2-5.6c19.6-2.8,35.6-7.2,55.2-12c19.6-6,39.2-13.2,55.2-21.6
	c31.6-18.4,51.2-41.2,51.2-66.4C500.8,392,501.6,136,501.6,120.4z"/>
<path style="fill:#F0C960;" d="M500,120c0,58.8-106.4,106.4-243.2,106.4S8.8,178.8,8.8,120S120,13.6,256.8,13.6S500,61.2,500,120z"
	/>
<ellipse style="fill:#E9B526;" cx="256.8" cy="117.2" rx="216.8" ry="78.8"/>
<path d="M254,228C114.4,228,0.8,178.4,0.8,117.2c0-30.4,26.8-58.4,75.6-79.2C124,17.6,187.2,6.4,254.4,6.4
	C394,6.4,507.6,56,507.6,117.2C507.2,178.4,393.6,228,254,228z M254,14.4c-135.2,0-245.2,46-245.2,102.8S118.8,220,254,220
	s245.2-46,245.2-102.8C499.2,60.8,389.2,14.4,254,14.4z"/>
<path d="M254,200.4c-124.4,0-221.6-36.4-221.6-83.2C32.4,70.4,129.6,34,254,34c47.6,0,92.8,5.6,131.2,16c2,0.4,3.2,2.8,2.8,4.8
	s-2.8,3.2-4.8,2.8c-37.6-10-82-15.6-128.8-15.6c-116,0-213.6,34.4-213.6,75.2c0,40.8,98,75.2,213.6,75.2S468,158,468,117.2
	c0-18-18.8-35.2-53.2-49.2c-2-0.8-3.2-3.2-2.4-5.2s3.2-3.2,5.2-2.4c37.6,15.2,58.4,35.2,58.4,56.8C475.6,164,378,200.4,254,200.4z"
	/>
<path d="M254,271.6C114,271.6,0,222,0,160.8v-30.4c0-2.4,1.6-4,4-4s4,1.6,4,4v30.4c0,56.8,110.4,102.8,246,102.8s246-46,246-102.8
	v-42.4c0-2.4,1.6-4,4-4s4,1.6,4,4v42.4C508,222,394,271.6,254,271.6z"/>
<path d="M252,270.4c-2.4,0-4-1.6-4-4v-40c0-2.4,1.6-4,4-4s4,1.6,4,4v40C256,268.8,254.4,270.4,252,270.4z"/>
<path d="M228,270.4c-2.4,0-4-1.6-4-4v-40c0-2.4,1.6-4,4-4s4,1.6,4,4v40C232,268.8,230.4,270.4,228,270.4z"/>
<path d="M200,266.4c-2.4,0-4-1.6-4-4v-36c0-2.4,1.6-4,4-4s4,1.6,4,4v36C204,264.8,202.4,266.4,200,266.4z"/>
<path d="M172,266.4c-2.4,0-4-1.6-4-4v-40c0-2.4,1.6-4,4-4s4,1.6,4,4v40C176,264.8,174.4,266.4,172,266.4z"/>
<path d="M144,262.4c-2.4,0-4-1.6-4-4v-40c0-2.4,1.6-4,4-4s4,1.6,4,4v40C148,260.8,146.4,262.4,144,262.4z"/>
<path d="M116,254.4c-2.4,0-4-1.6-4-4v-40c0-2.4,1.6-4,4-4s4,1.6,4,4v40C120,252.8,118.4,254.4,116,254.4z"/>
<path d="M88,246.4c-2.4,0-4-1.6-4-4v-40c0-2.4,1.6-4,4-4s4,1.6,4,4v40C92,244.8,90.4,246.4,88,246.4z"/>
<path d="M60,234.4c-2.4,0-4-1.6-4-4v-40c0-2.4,1.6-4,4-4s4,1.6,4,4v40C64,232.8,62.4,234.4,60,234.4z"/>
<path d="M32,214.4c-2.4,0-4-1.6-4-4v-40c0-2.4,1.6-4,4-4s4,1.6,4,4v40C36,212.8,34.4,214.4,32,214.4z"/>
<path d="M280,270.4c-2.4,0-4-1.6-4-4v-40c0-2.4,1.6-4,4-4s4,1.6,4,4v40C284,268.8,282.4,270.4,280,270.4z"/>
<path d="M308,266.4c-2.4,0-4-1.6-4-4v-36c0-2.4,1.6-4,4-4s4,1.6,4,4v36C312,264.8,310.4,266.4,308,266.4z"/>
<path d="M336,266.4c-2.4,0-4-1.6-4-4v-40c0-2.4,1.6-4,4-4s4,1.6,4,4v40C340,264.8,338.4,266.4,336,266.4z"/>
<path d="M364,262.4c-2.4,0-4-1.6-4-4v-44c0-2.4,1.6-4,4-4s4,1.6,4,4v44C368,260.8,366.4,262.4,364,262.4z"/>
<path d="M392,254.4c-2.4,0-4-1.6-4-4v-40c0-2.4,1.6-4,4-4s4,1.6,4,4v40C396,252.8,394.4,254.4,392,254.4z"/>
<path d="M420,246.4c-2.4,0-4-1.6-4-4v-44c0-2.4,1.6-4,4-4s4,1.6,4,4v44C424,244.8,422.4,246.4,420,246.4z"/>
<path d="M448,234.4c-2.4,0-4-1.6-4-4v-44c0-2.4,1.6-4,4-4s4,1.6,4,4v44C452,232.8,450.4,234.4,448,234.4z"/>
<path d="M476,214.4c-2.4,0-4-1.6-4-4v-44c0-2.4,1.6-4,4-4s4,1.6,4,4v44C480,212.8,478.4,214.4,476,214.4z"/>
<path d="M254,315.6C114,315.6,0,266,0,204.8v-42.4c0-2.4,1.6-4,4-4s4,1.6,4,4v42.4c0,56.8,110.4,102.8,246,102.8s246-46,246-102.8
	v-42.4c0-2.4,1.6-4,4-4s4,1.6,4,4v42.4C508,265.6,394,315.6,254,315.6z"/>
<path d="M252,314.4c-2.4,0-4-1.6-4-4v-44c0-2.4,1.6-4,4-4s4,1.6,4,4v44C256,312.8,254.4,314.4,252,314.4z"/>
<path d="M228,314.4c-2.4,0-4-1.6-4-4v-44c0-2.4,1.6-4,4-4s4,1.6,4,4v44C232,312.8,230.4,314.4,228,314.4z"/>
<path d="M200,310.4c-2.4,0-4-1.6-4-4v-44c0-2.4,1.6-4,4-4s4,1.6,4,4v44C204,308.8,202.4,310.4,200,310.4z"/>
<path d="M172,306.4c-2.4,0-4-1.6-4-4v-40c0-2.4,1.6-4,4-4s4,1.6,4,4v40C176,304.8,174.4,306.4,172,306.4z"/>
<path d="M144,302.4c-2.4,0-4-1.6-4-4v-40c0-2.4,1.6-4,4-4s4,1.6,4,4v40C148,300.8,146.4,302.4,144,302.4z"/>
<path d="M116,294.4c-2.4,0-4-1.6-4-4v-40c0-2.4,1.6-4,4-4s4,1.6,4,4v40C120,292.8,118.4,294.4,116,294.4z"/>
<path d="M88,286.4c-2.4,0-4-1.6-4-4v-40c0-2.4,1.6-4,4-4s4,1.6,4,4v40C92,284.8,90.4,286.4,88,286.4z"/>
<path d="M60,274.4c-2.4,0-4-1.6-4-4v-40c0-2.4,1.6-4,4-4s4,1.6,4,4v40C64,272.8,62.4,274.4,60,274.4z"/>
<path d="M32,258.4c-2.4,0-4-1.6-4-4v-44c0-2.4,1.6-4,4-4s4,1.6,4,4v44C36,256.8,34.4,258.4,32,258.4z"/>
<path d="M280,314.4c-2.4,0-4-1.6-4-4v-44c0-2.4,1.6-4,4-4s4,1.6,4,4v44C284,312.8,282.4,314.4,280,314.4z"/>
<path d="M308,310.4c-2.4,0-4-1.6-4-4v-44c0-2.4,1.6-4,4-4s4,1.6,4,4v44C312,308.8,310.4,310.4,308,310.4z"/>
<path d="M336,306.4c-2.4,0-4-1.6-4-4v-40c0-2.4,1.6-4,4-4s4,1.6,4,4v40C340,304.8,338.4,306.4,336,306.4z"/>
<path d="M364,302.4c-2.4,0-4-1.6-4-4v-40c0-2.4,1.6-4,4-4s4,1.6,4,4v40C368,300.8,366.4,302.4,364,302.4z"/>
<path d="M392,294.4c-2.4,0-4-1.6-4-4v-40c0-2.4,1.6-4,4-4s4,1.6,4,4v40C396,292.8,394.4,294.4,392,294.4z"/>
<path d="M420,286.4c-2.4,0-4-1.6-4-4v-40c0-2.4,1.6-4,4-4s4,1.6,4,4v40C424,284.8,422.4,286.4,420,286.4z"/>
<path d="M448,274.4c-2.4,0-4-1.6-4-4v-40c0-2.4,1.6-4,4-4s4,1.6,4,4v40C452,272.8,450.4,274.4,448,274.4z"/>
<path d="M476,258.4c-2.4,0-4-1.6-4-4v-44c0-2.4,1.6-4,4-4s4,1.6,4,4v44C480,256.8,478.4,258.4,476,258.4z"/>
<path d="M254,358.8C114,358.8,0,309.2,0,248v-41.6c0-2.4,1.6-4,4-4s4,1.6,4,4V248c0,56.8,110.4,102.8,246,102.8s246-46,246-102.8
	v-41.6c0-2.4,1.6-4,4-4s4,1.6,4,4V248C508,309.2,394,358.8,254,358.8z"/>
<path d="M252,358.4c-2.4,0-4-1.6-4-4v-44c0-2.4,1.6-4,4-4s4,1.6,4,4v44C256,356.8,254.4,358.4,252,358.4z"/>
<path d="M228,358.4c-2.4,0-4-1.6-4-4v-44c0-2.4,1.6-4,4-4s4,1.6,4,4v44C232,356.8,230.4,358.4,228,358.4z"/>
<path d="M200,354.4c-2.4,0-4-1.6-4-4v-44c0-2.4,1.6-4,4-4s4,1.6,4,4v44C204,352.8,202.4,354.4,200,354.4z"/>
<path d="M172,350.4c-2.4,0-4-1.6-4-4v-40c0-2.4,1.6-4,4-4s4,1.6,4,4v40C176,348.8,174.4,350.4,172,350.4z"/>
<path d="M144,346.4c-2.4,0-4-1.6-4-4v-44c0-2.4,1.6-4,4-4s4,1.6,4,4v44C148,344.8,146.4,346.4,144,346.4z"/>
<path d="M116,338.4c-2.4,0-4-1.6-4-4v-44c0-2.4,1.6-4,4-4s4,1.6,4,4v44C120,336.8,118.4,338.4,116,338.4z"/>
<path d="M88,330.4c-2.4,0-4-1.6-4-4v-44c0-2.4,1.6-4,4-4s4,1.6,4,4v44C92,328.8,90.4,330.4,88,330.4z"/>
<path d="M60,318.4c-2.4,0-4-1.6-4-4v-44c0-2.4,1.6-4,4-4s4,1.6,4,4v44C64,316.8,62.4,318.4,60,318.4z"/>
<path d="M32,298.4c-2.4,0-4-1.6-4-4v-40c0-2.4,1.6-4,4-4s4,1.6,4,4v40C36,296.8,34.4,298.4,32,298.4z"/>
<path d="M280,358.4c-2.4,0-4-1.6-4-4v-44c0-2.4,1.6-4,4-4s4,1.6,4,4v44C284,356.8,282.4,358.4,280,358.4z"/>
<path d="M308,354.4c-2.4,0-4-1.6-4-4v-44c0-2.4,1.6-4,4-4s4,1.6,4,4v44C312,352.8,310.4,354.4,308,354.4z"/>
<path d="M336,350.4c-2.4,0-4-1.6-4-4v-40c0-2.4,1.6-4,4-4s4,1.6,4,4v40C340,348.8,338.4,350.4,336,350.4z"/>
<path d="M364,346.4c-2.4,0-4-1.6-4-4v-44c0-2.4,1.6-4,4-4s4,1.6,4,4v44C368,344.8,366.4,346.4,364,346.4z"/>
<path d="M392,338.4c-2.4,0-4-1.6-4-4v-44c0-2.4,1.6-4,4-4s4,1.6,4,4v44C396,336.8,394.4,338.4,392,338.4z"/>
<path d="M420,330.4c-2.4,0-4-1.6-4-4v-44c0-2.4,1.6-4,4-4s4,1.6,4,4v44C424,328.8,422.4,330.4,420,330.4z"/>
<path d="M448,318.4c-2.4,0-4-1.6-4-4v-44c0-2.4,1.6-4,4-4s4,1.6,4,4v44C452,316.8,450.4,318.4,448,318.4z"/>
<path d="M476,298.4c-2.4,0-4-1.6-4-4v-40c0-2.4,1.6-4,4-4s4,1.6,4,4v40C480,296.8,478.4,298.4,476,298.4z"/>
<path d="M254,406.4c-140,0-254-49.6-254-110.8v-41.2c0-2.4,1.6-4,4-4s4,1.6,4,4v41.2c0,56.8,110.4,102.8,246,102.8s246-46,246-102.8
	v-41.2c0-2.4,1.6-4,4-4s4,1.6,4,4v41.2C508,356.8,394,406.4,254,406.4z"/>
<path d="M252,406.4c-2.4,0-4-1.6-4-4v-44c0-2.4,1.6-4,4-4s4,1.6,4,4v44C256,404.8,254.4,406.4,252,406.4z"/>
<path d="M228,406.4c-2.4,0-4-1.6-4-4v-44c0-2.4,1.6-4,4-4s4,1.6,4,4v44C232,404.8,230.4,406.4,228,406.4z"/>
<path d="M200,402.4c-2.4,0-4-1.6-4-4v-44c0-2.4,1.6-4,4-4s4,1.6,4,4v44C204,400.8,202.4,402.4,200,402.4z"/>
<path d="M172,398.4c-2.4,0-4-1.6-4-4v-40c0-2.4,1.6-4,4-4s4,1.6,4,4v40C176,396.8,174.4,398.4,172,398.4z"/>
<path d="M144,394.4c-2.4,0-4-1.6-4-4v-44c0-2.4,1.6-4,4-4s4,1.6,4,4v44C148,392.8,146.4,394.4,144,394.4z"/>
<path d="M116,386.4c-2.4,0-4-1.6-4-4v-44c0-2.4,1.6-4,4-4s4,1.6,4,4v44C120,384.8,118.4,386.4,116,386.4z"/>
<path d="M88,378.4c-2.4,0-4-1.6-4-4v-44c0-2.4,1.6-4,4-4s4,1.6,4,4v44C92,376.8,90.4,378.4,88,378.4z"/>
<path d="M60,366.4c-2.4,0-4-1.6-4-4v-44c0-2.4,1.6-4,4-4s4,1.6,4,4v44C64,364.8,62.4,366.4,60,366.4z"/>
<path d="M32,346.4c-2.4,0-4-1.6-4-4v-44c0-2.4,1.6-4,4-4s4,1.6,4,4v44C36,344.8,34.4,346.4,32,346.4z"/>
<path d="M280,406.4c-2.4,0-4-1.6-4-4v-44c0-2.4,1.6-4,4-4s4,1.6,4,4v44C284,404.8,282.4,406.4,280,406.4z"/>
<path d="M308,402.4c-2.4,0-4-1.6-4-4v-44c0-2.4,1.6-4,4-4s4,1.6,4,4v44C312,400.8,310.4,402.4,308,402.4z"/>
<path d="M336,398.4c-2.4,0-4-1.6-4-4v-40c0-2.4,1.6-4,4-4s4,1.6,4,4v40C340,396.8,338.4,398.4,336,398.4z"/>
<path d="M364,394.4c-2.4,0-4-1.6-4-4v-44c0-2.4,1.6-4,4-4s4,1.6,4,4v44C368,392.8,366.4,394.4,364,394.4z"/>
<path d="M392,386.4c-2.4,0-4-1.6-4-4v-44c0-2.4,1.6-4,4-4s4,1.6,4,4v44C396,384.8,394.4,386.4,392,386.4z"/>
<path d="M420,378.4c-2.4,0-4-1.6-4-4v-44c0-2.4,1.6-4,4-4s4,1.6,4,4v44C424,376.8,422.4,378.4,420,378.4z"/>
<path d="M448,366.4c-2.4,0-4-1.6-4-4v-44c0-2.4,1.6-4,4-4s4,1.6,4,4v44C452,364.8,450.4,366.4,448,366.4z"/>
<path d="M476,346.4c-2.4,0-4-1.6-4-4v-44c0-2.4,1.6-4,4-4s4,1.6,4,4v44C480,344.8,478.4,346.4,476,346.4z"/>
<path d="M254,454C114,454,0,404.4,0,343.2v-44.8c0-2.4,1.6-4,4-4s4,1.6,4,4v44.8C8,400,118.4,446,254,446s246-46,246-102.8v-44.8
	c0-2.4,1.6-4,4-4s4,1.6,4,4v44.8C508,404.4,394,454,254,454z"/>
<path d="M252,454.4c-2.4,0-4-1.6-4-4v-44c0-2.4,1.6-4,4-4s4,1.6,4,4v44C256,452.8,254.4,454.4,252,454.4z"/>
<path d="M228,454.4c-2.4,0-4-1.6-4-4v-44c0-2.4,1.6-4,4-4s4,1.6,4,4v44C232,452.8,230.4,454.4,228,454.4z"/>
<path d="M200,450.4c-2.4,0-4-1.6-4-4v-44c0-2.4,1.6-4,4-4s4,1.6,4,4v44C204,448.8,202.4,450.4,200,450.4z"/>
<path d="M172,446.4c-2.4,0-4-1.6-4-4v-40c0-2.4,1.6-4,4-4s4,1.6,4,4v40C176,444.8,174.4,446.4,172,446.4z"/>
<path d="M144,442.4c-2.4,0-4-1.6-4-4v-44c0-2.4,1.6-4,4-4s4,1.6,4,4v44C148,440.8,146.4,442.4,144,442.4z"/>
<path d="M116,434.4c-2.4,0-4-1.6-4-4v-44c0-2.4,1.6-4,4-4s4,1.6,4,4v44C120,432.8,118.4,434.4,116,434.4z"/>
<path d="M88,426.4c-2.4,0-4-1.6-4-4v-44c0-2.4,1.6-4,4-4s4,1.6,4,4v44C92,424.8,90.4,426.4,88,426.4z"/>
<path d="M60,414.4c-2.4,0-4-1.6-4-4v-44c0-2.4,1.6-4,4-4s4,1.6,4,4v44C64,412.8,62.4,414.4,60,414.4z"/>
<path d="M32,394.4c-2.4,0-4-1.6-4-4v-44c0-2.4,1.6-4,4-4s4,1.6,4,4v44C36,392.8,34.4,394.4,32,394.4z"/>
<path d="M280,454.4c-2.4,0-4-1.6-4-4v-44c0-2.4,1.6-4,4-4s4,1.6,4,4v44C284,452.8,282.4,454.4,280,454.4z"/>
<path d="M308,450.4c-2.4,0-4-1.6-4-4v-44c0-2.4,1.6-4,4-4s4,1.6,4,4v44C312,448.8,310.4,450.4,308,450.4z"/>
<path d="M336,446.4c-2.4,0-4-1.6-4-4v-40c0-2.4,1.6-4,4-4s4,1.6,4,4v40C340,444.8,338.4,446.4,336,446.4z"/>
<path d="M364,442.4c-2.4,0-4-1.6-4-4v-44c0-2.4,1.6-4,4-4s4,1.6,4,4v44C368,440.8,366.4,442.4,364,442.4z"/>
<path d="M392,434.4c-2.4,0-4-1.6-4-4v-44c0-2.4,1.6-4,4-4s4,1.6,4,4v44C396,432.8,394.4,434.4,392,434.4z"/>
<path d="M420,426.4c-2.4,0-4-1.6-4-4v-44c0-2.4,1.6-4,4-4s4,1.6,4,4v44C424,424.8,422.4,426.4,420,426.4z"/>
<path d="M448,414.4c-2.4,0-4-1.6-4-4v-44c0-2.4,1.6-4,4-4s4,1.6,4,4v44C452,412.8,450.4,414.4,448,414.4z"/>
<path d="M476,394.4c-2.4,0-4-1.6-4-4v-44c0-2.4,1.6-4,4-4s4,1.6,4,4v44C480,392.8,478.4,394.4,476,394.4z"/>
<path d="M254,501.6C114,501.6,0,452,0,390.8v-44.4c0-2.4,1.6-4,4-4s4,1.6,4,4v44.4c0,56.8,110.4,102.8,246,102.8s246-46,246-102.8
	v-44.4c0-2.4,1.6-4,4-4s4,1.6,4,4v44.4C508,452,394,501.6,254,501.6z"/>
<path d="M252,498.4c-2.4,0-4-1.6-4-4v-40c0-2.4,1.6-4,4-4s4,1.6,4,4v40C256,496.8,254.4,498.4,252,498.4z"/>
<path d="M228,494.4c-2.4,0-4-1.6-4-4v-36c0-2.4,1.6-4,4-4s4,1.6,4,4v36C232,492.8,230.4,494.4,228,494.4z"/>
<path d="M200,498.4c-2.4,0-4-1.6-4-4v-44c0-2.4,1.6-4,4-4s4,1.6,4,4v44C204,496.8,202.4,498.4,200,498.4z"/>
<path d="M172,494.4c-2.4,0-4-1.6-4-4v-40c0-2.4,1.6-4,4-4s4,1.6,4,4v40C176,492.8,174.4,494.4,172,494.4z"/>
<path d="M144,490.4c-2.4,0-4-1.6-4-4v-44c0-2.4,1.6-4,4-4s4,1.6,4,4v44C148,488.8,146.4,490.4,144,490.4z"/>
<path d="M116,482.4c-2.4,0-4-1.6-4-4v-44c0-2.4,1.6-4,4-4s4,1.6,4,4v44C120,480.8,118.4,482.4,116,482.4z"/>
<path d="M88,474.4c-2.4,0-4-1.6-4-4v-44c0-2.4,1.6-4,4-4s4,1.6,4,4v44C92,472.8,90.4,474.4,88,474.4z"/>
<path d="M60,462.4c-2.4,0-4-1.6-4-4v-44c0-2.4,1.6-4,4-4s4,1.6,4,4v44C64,460.8,62.4,462.4,60,462.4z"/>
<path d="M32,442.4c-2.4,0-4-1.6-4-4v-44c0-2.4,1.6-4,4-4s4,1.6,4,4v44C36,440.8,34.4,442.4,32,442.4z"/>
<path d="M280,494.4c-2.4,0-4-1.6-4-4v-36c0-2.4,1.6-4,4-4s4,1.6,4,4v36C284,492.8,282.4,494.4,280,494.4z"/>
<path d="M308,498.4c-2.4,0-4-1.6-4-4v-44c0-2.4,1.6-4,4-4s4,1.6,4,4v44C312,496.8,310.4,498.4,308,498.4z"/>
<path d="M336,494.4c-2.4,0-4-1.6-4-4v-40c0-2.4,1.6-4,4-4s4,1.6,4,4v40C340,492.8,338.4,494.4,336,494.4z"/>
<path d="M364,490.4c-2.4,0-4-1.6-4-4v-44c0-2.4,1.6-4,4-4s4,1.6,4,4v44C368,488.8,366.4,490.4,364,490.4z"/>
<path d="M392,482.4c-2.4,0-4-1.6-4-4v-44c0-2.4,1.6-4,4-4s4,1.6,4,4v44C396,480.8,394.4,482.4,392,482.4z"/>
<path d="M420,474.4c-2.4,0-4-1.6-4-4v-44c0-2.4,1.6-4,4-4s4,1.6,4,4v44C424,472.8,422.4,474.4,420,474.4z"/>
<path d="M448,462.4c-2.4,0-4-1.6-4-4v-44c0-2.4,1.6-4,4-4s4,1.6,4,4v44C452,460.8,450.4,462.4,448,462.4z"/>
<path d="M476,442.4c-2.4,0-4-1.6-4-4v-44c0-2.4,1.6-4,4-4s4,1.6,4,4v44C480,440.8,478.4,442.4,476,442.4z"/>
<g>
</g>
<g>
</g>
<g>
</g>
<g>
</g>
<g>
</g>
<g>
</g>
<g>
</g>
<g>
</g>
<g>
</g>
<g>
</g>
<g>
</g>
<g>
</g>
<g>
</g>
<g>
</g>
<g>
</g>
</svg>
