<?xml version="1.0" encoding="iso-8859-1"?>
<!-- Generator: Adobe Illustrator 19.0.0, SVG Export Plug-In . SVG Version: 6.00 Build 0)  -->
<svg version="1.1" id="Layer_1" xmlns="http://www.w3.org/2000/svg" xmlns:xlink="http://www.w3.org/1999/xlink" x="0px" y="0px"
	 viewBox="0 0 512 512" style="enable-background:new 0 0 512 512;" xml:space="preserve">
<g transform="translate(1 1)">
	<path style="fill:#FFE100;" d="M267.8,391.533c0-49.493,32.427-91.307,76.8-105.813V47.64c0-22.187-17.92-40.107-40.107-40.107
		H60.44c-22.187,0-40.107,17.92-40.107,40.107v413.867c0,23.04,17.92,40.96,40.107,40.96h243.2c10.24,0,19.627-4.267,27.307-11.093
		C294.253,474.307,267.8,435.907,267.8,391.533"/>
	<path style="fill:#FFFFFF;" d="M45.933,462.36V47.64c0-22.187,17.92-40.107,40.107-40.107h-25.6
		c-22.187,0-40.107,17.92-40.107,40.107v413.867c0,23.04,17.92,40.96,40.107,40.96h25.6
		C63.853,502.467,45.933,484.547,45.933,462.36"/>
	<path style="fill:#FFA800;" d="M344.6,297.667V47.64c0-22.187-17.92-40.107-40.107-40.107h-25.6C301.08,7.533,319,25.453,319,47.64
		v250.027H344.6z"/>
	<path style="fill:#00DA6C;" d="M489.667,391.533c0,61.44-49.493,110.933-110.933,110.933S267.8,452.973,267.8,391.533
		S317.293,280.6,378.733,280.6S489.667,330.093,489.667,391.533"/>
	<path style="fill:#00AD55;" d="M378.733,280.6c-4.267,0-8.533,0-12.8,0.853c55.467,5.973,98.133,52.907,98.133,110.08
		S421.4,495.64,365.933,501.613c4.267,0.853,8.533,0.853,12.8,0.853c61.44,0,110.933-49.493,110.933-110.933
		S440.173,280.6,378.733,280.6"/>
	<polygon style="fill:#FDCC00;" points="63,178.2 301.933,178.2 301.933,84.333 63,84.333 	"/>
	<g>
		<polygon style="fill:#63D3FD;" points="71.533,255 122.733,255 122.733,212.333 71.533,212.333 		"/>
		<polygon style="fill:#63D3FD;" points="156.867,255 208.067,255 208.067,212.333 156.867,212.333 		"/>
		<polygon style="fill:#63D3FD;" points="242.2,255 293.4,255 293.4,212.333 242.2,212.333 		"/>
		<polygon style="fill:#63D3FD;" points="71.533,323.267 122.733,323.267 122.733,280.6 71.533,280.6 		"/>
		<polygon style="fill:#63D3FD;" points="156.867,323.267 208.067,323.267 208.067,280.6 156.867,280.6 		"/>
		<polygon style="fill:#63D3FD;" points="71.533,391.533 122.733,391.533 122.733,348.867 71.533,348.867 		"/>
		<polygon style="fill:#63D3FD;" points="156.867,391.533 208.067,391.533 208.067,348.867 156.867,348.867 		"/>
		<polygon style="fill:#63D3FD;" points="71.533,468.333 122.733,468.333 122.733,425.667 71.533,425.667 		"/>
		<polygon style="fill:#63D3FD;" points="156.867,468.333 208.067,468.333 208.067,425.667 156.867,425.667 		"/>
		<path style="fill:#63D3FD;" d="M293.4,320.707V280.6h-51.2v42.667h49.493C291.693,322.413,292.547,321.56,293.4,320.707"/>
	</g>
	<path d="M310.467,186.733h-256V75.8h256V186.733z M71.533,169.667H293.4v-76.8H71.533V169.667z"/>
	<path d="M105.667,58.733h-51.2c-5.12,0-8.533-3.413-8.533-8.533s3.413-8.533,8.533-8.533h51.2c5.12,0,8.533,3.413,8.533,8.533
		S110.787,58.733,105.667,58.733z"/>
	<path d="M131.267,263.533H63V203.8h68.267V263.533z M80.067,246.467H114.2v-25.6H80.067V246.467z"/>
	<path d="M216.6,263.533h-68.267V203.8H216.6V263.533z M165.4,246.467h34.133v-25.6H165.4V246.467z"/>
	<path d="M301.933,263.533h-68.267V203.8h68.267V263.533z M250.733,246.467h34.133v-25.6h-34.133V246.467z"/>
	<path d="M131.267,331.8H63v-59.733h68.267V331.8z M80.067,314.733H114.2v-25.6H80.067V314.733z"/>
	<path d="M216.6,331.8h-68.267v-59.733H216.6V331.8z M165.4,314.733h34.133v-25.6H165.4V314.733z"/>
	<path d="M131.267,400.067H63v-59.733h68.267V400.067z M80.067,383H114.2v-25.6H80.067V383z"/>
	<path d="M216.6,400.067h-68.267v-59.733H216.6V400.067z M165.4,383h34.133v-25.6H165.4V383z"/>
	<path d="M131.267,476.867H63v-59.733h68.267V476.867z M80.067,459.8H114.2v-25.6H80.067V459.8z"/>
	<path d="M216.6,476.867h-68.267v-59.733H216.6V476.867z M165.4,459.8h34.133v-25.6H165.4V459.8z"/>
	<path d="M156.867,161.133c-5.12,0-8.533-3.413-8.533-8.533v-42.667c0-5.12,3.413-8.533,8.533-8.533c5.12,0,8.533,3.413,8.533,8.533
		V152.6C165.4,157.72,161.987,161.133,156.867,161.133z"/>
	<path d="M233.667,161.133c-5.12,0-8.533-3.413-8.533-8.533v-42.667c0-5.12,3.413-8.533,8.533-8.533c5.12,0,8.533,3.413,8.533,8.533
		V152.6C242.2,157.72,238.787,161.133,233.667,161.133z"/>
	<path d="M267.8,161.133c-5.12,0-8.533-3.413-8.533-8.533v-42.667c0-5.12,3.413-8.533,8.533-8.533s8.533,3.413,8.533,8.533V152.6
		C276.333,157.72,272.92,161.133,267.8,161.133z"/>
	<path d="M191,161.133c-2.56,0-4.267-0.853-5.973-2.56c-3.413-3.413-3.413-8.533,0-11.947l8.533-8.533
		c3.413-3.413,8.533-3.413,11.947,0s3.413,8.533,0,11.947l-8.533,8.533C195.267,160.28,193.56,161.133,191,161.133z"/>
	<path d="M148.333,127c-2.56,0-4.267-0.853-5.973-2.56c-3.413-3.413-3.413-8.533,0-11.947l8.533-8.533
		c3.413-3.413,8.533-3.413,11.947,0s3.413,8.533,0,11.947l-8.533,8.533C152.6,126.147,150.893,127,148.333,127z"/>
	<path d="M225.133,127c-2.56,0-4.267-0.853-5.973-2.56c-3.413-3.413-3.413-8.533,0-11.947l8.533-8.533
		c3.413-3.413,8.533-3.413,11.947,0s3.413,8.533,0,11.947l-8.533,8.533C229.4,126.147,227.693,127,225.133,127z"/>
	<path d="M259.267,127c-2.56,0-4.267-0.853-5.973-2.56c-3.413-3.413-3.413-8.533,0-11.947l8.533-8.533
		c3.413-3.413,8.533-3.413,11.947,0s3.413,8.533,0,11.947l-8.533,8.533C263.533,126.147,261.827,127,259.267,127z"/>
	<path d="M378.733,460.653c-23.893,0-42.667-18.773-42.667-42.667c0-5.12,3.413-8.533,8.533-8.533c5.12,0,8.533,3.413,8.533,8.533
		c0,14.507,11.093,25.6,25.6,25.6c7.68,0,14.507-3.413,19.627-9.387c2.56-2.56,3.413-5.973,2.56-9.387
		c0-3.413-2.56-6.827-5.12-9.387l-44.373-34.987c-6.827-5.12-11.093-12.8-11.947-21.333s1.707-16.213,6.827-22.187
		c8.533-9.387,19.627-15.36,32.427-15.36c23.893,0,42.667,18.773,42.667,42.667c0,5.12-3.413,8.533-8.533,8.533
		c-5.12,0-8.533-3.413-8.533-8.533c0-14.507-11.093-25.6-25.6-25.6c-7.68,0-14.507,3.413-19.627,9.387
		c-2.56,2.56-3.413,5.973-2.56,9.387c0,3.413,2.56,6.827,5.12,9.387l44.373,34.987c6.827,5.12,11.093,12.8,11.947,21.333
		s-1.707,16.213-6.827,22.187C403.48,455.533,391.533,460.653,378.733,460.653z"/>
	<path d="M378.733,476.867c-5.12,0-8.533-3.413-8.533-8.533v-153.6c0-5.12,3.413-8.533,8.533-8.533c5.12,0,8.533,3.413,8.533,8.533
		v153.6C387.267,473.453,383.853,476.867,378.733,476.867z"/>
	<path d="M378.733,511c-65.707,0-119.467-53.76-119.467-119.467s53.76-119.467,119.467-119.467S498.2,325.827,498.2,391.533
		S444.44,511,378.733,511z M378.733,289.133c-56.32,0-102.4,46.08-102.4,102.4s46.08,102.4,102.4,102.4s102.4-46.08,102.4-102.4
		S435.053,289.133,378.733,289.133z"/>
	<path d="M304.493,511H60.44c-26.453,0-48.64-22.187-48.64-48.64V47.64C11.8,21.187,33.987-1,60.44-1h243.2
		c27.307,0,49.493,22.187,49.493,48.64v244.053l-5.973,1.707c-42.667,13.653-70.827,52.907-70.827,97.28
		c0,39.253,23.04,75.947,58.88,92.16l11.093,5.12l-9.387,8.533C328.387,506.733,316.44,511,304.493,511z M60.44,16.067
		c-17.067,0-31.573,14.507-31.573,31.573v413.867c0,17.92,14.507,32.427,31.573,32.427h243.2c3.413,0,6.827-0.853,10.24-1.707
		c-34.133-22.187-55.467-59.733-55.467-100.693c0-49.493,30.72-93.867,76.8-111.787V47.64c0.853-17.067-13.653-31.573-30.72-31.573
		H60.44z"/>
	<path d="M295.96,331.8h-62.293v-59.733h68.267v52.053l-1.707,2.56l-0.853,0.853L295.96,331.8z M250.733,314.733h34.133v-25.6
		h-34.133V314.733z"/>
</g>
<g>
</g>
<g>
</g>
<g>
</g>
<g>
</g>
<g>
</g>
<g>
</g>
<g>
</g>
<g>
</g>
<g>
</g>
<g>
</g>
<g>
</g>
<g>
</g>
<g>
</g>
<g>
</g>
<g>
</g>
</svg>
