<?xml version="1.0" encoding="iso-8859-1"?>
<!-- Generator: Adobe Illustrator 19.0.0, SVG Export Plug-In . SVG Version: 6.00 Build 0)  -->
<svg version="1.1" id="Layer_1" xmlns="http://www.w3.org/2000/svg" xmlns:xlink="http://www.w3.org/1999/xlink" x="0px" y="0px"
	 viewBox="0 0 512 512" style="enable-background:new 0 0 512 512;" xml:space="preserve">
<g transform="translate(1 1)">
	<g>
		<path style="fill:#FFE100;" d="M263.533,434.2c-5.12,0-8.533-3.413-8.533-8.533v-153.6c0-5.12,3.413-8.533,8.533-8.533
			c5.12,0,8.533,3.413,8.533,8.533v153.6C272.067,430.787,268.653,434.2,263.533,434.2z"/>
		<path style="fill:#FFE100;" d="M442.733,434.2c-5.12,0-8.533-3.413-8.533-8.533v-8.533c0-28.16-23.04-51.2-51.2-51.2H144.067
			c-28.16,0-51.2,23.04-51.2,51.2v8.533c0,5.12-3.413,8.533-8.533,8.533c-5.12,0-8.533-3.413-8.533-8.533v-8.533
			c0-37.547,30.72-68.267,68.267-68.267H383c37.547,0,68.267,30.72,68.267,68.267v8.533
			C451.267,430.787,447.853,434.2,442.733,434.2z"/>
		<path style="fill:#FFE100;" d="M383,135.533c0,70.827-57.173,128-128,128s-128-57.173-128-128s57.173-128,128-128
			S383,64.707,383,135.533"/>
	</g>
	<path style="fill:#FFA800;" d="M255,7.533c-4.267,0-8.533,0-12.8,0.853c64.853,5.973,115.2,60.587,115.2,127.147
		S307.053,256.707,242.2,262.68c4.267,0,8.533,0.853,12.8,0.853c70.827,0,128-57.173,128-128S325.827,7.533,255,7.533"/>
	<path style="fill:#FFFFFF;" d="M259.267,7.533c4.267,0,8.533,0,12.8,0.853c-64.853,5.973-115.2,60.587-115.2,127.147
		s50.347,121.173,115.2,127.147c-4.267,0-8.533,0.853-12.8,0.853c-70.827,0-128-57.173-128-128S188.44,7.533,259.267,7.533"/>
	<g>
		<polygon style="fill:#00DA6C;" points="24.6,502.467 127,502.467 127,417.133 24.6,417.133 		"/>
		<polygon style="fill:#00DA6C;" points="203.8,502.467 306.2,502.467 306.2,417.133 203.8,417.133 		"/>
		<polygon style="fill:#00DA6C;" points="383,502.467 485.4,502.467 485.4,417.133 383,417.133 		"/>
	</g>
	<polygon style="fill:#00AD55;" points="459.8,502.467 485.4,502.467 485.4,417.133 459.8,417.133 	"/>
	<polygon style="fill:#FFFFFF;" points="24.6,502.467 50.2,502.467 50.2,417.133 24.6,417.133 	"/>
	<path d="M255,204.653c-23.893,0-42.667-18.773-42.667-42.667c0-5.12,3.413-8.533,8.533-8.533c5.12,0,8.533,3.413,8.533,8.533
		c0,14.507,11.093,25.6,25.6,25.6c7.68,0,14.507-3.413,19.627-9.387c2.56-2.56,3.413-5.973,2.56-9.387
		c0-3.413-2.56-6.827-5.12-9.387l-44.373-34.987c-6.827-5.12-11.093-12.8-11.947-21.333s1.707-16.213,6.827-22.187
		C231.107,71.533,242.2,65.56,255,65.56c23.893,0,42.667,18.773,42.667,42.667c0,5.12-3.413,8.533-8.533,8.533
		s-8.533-3.413-8.533-8.533c0-14.507-11.093-25.6-25.6-25.6c-7.68,0-14.507,3.413-19.627,9.387c-2.56,2.56-3.413,5.973-2.56,9.387
		c0,3.413,2.56,6.827,5.12,9.387l44.373,34.987c6.827,5.12,11.093,12.8,11.947,21.333c0.853,8.533-1.707,16.213-6.827,22.187
		C279.747,199.533,267.8,204.653,255,204.653z"/>
	<path d="M255,220.867c-5.12,0-8.533-3.413-8.533-8.533v-153.6c0-5.12,3.413-8.533,8.533-8.533s8.533,3.413,8.533,8.533v153.6
		C263.533,217.453,260.12,220.867,255,220.867z"/>
	<path d="M255,425.667c-5.12,0-8.533-3.413-8.533-8.533v-153.6c0-5.12,3.413-8.533,8.533-8.533s8.533,3.413,8.533,8.533v153.6
		C263.533,422.253,260.12,425.667,255,425.667z"/>
	<path d="M434.2,425.667c-5.12,0-8.533-3.413-8.533-8.533V408.6c0-28.16-23.04-51.2-51.2-51.2H135.533
		c-28.16,0-51.2,23.04-51.2,51.2v8.533c0,5.12-3.413,8.533-8.533,8.533c-5.12,0-8.533-3.413-8.533-8.533V408.6
		c0-37.547,30.72-68.267,68.267-68.267h238.933c37.547,0,68.267,30.72,68.267,68.267v8.533
		C442.733,422.253,439.32,425.667,434.2,425.667z"/>
	<path d="M127,511H24.6c-5.12,0-8.533-3.413-8.533-8.533v-85.333c0-5.12,3.413-8.533,8.533-8.533H127
		c5.12,0,8.533,3.413,8.533,8.533v85.333C135.533,507.587,132.12,511,127,511z M33.133,493.933h85.333v-68.267H33.133V493.933z"/>
	<path d="M306.2,511H203.8c-5.12,0-8.533-3.413-8.533-8.533v-85.333c0-5.12,3.413-8.533,8.533-8.533h102.4
		c5.12,0,8.533,3.413,8.533,8.533v85.333C314.733,507.587,311.32,511,306.2,511z M212.333,493.933h85.333v-68.267h-85.333V493.933z"
		/>
	<path d="M485.4,511H383c-5.12,0-8.533-3.413-8.533-8.533v-85.333c0-5.12,3.413-8.533,8.533-8.533h102.4
		c5.12,0,8.533,3.413,8.533,8.533v85.333C493.933,507.587,490.52,511,485.4,511z M391.533,493.933h85.333v-68.267h-85.333V493.933z"
		/>
	<path d="M255,272.067c-75.093,0-136.533-61.44-136.533-136.533S179.907-1,255-1s136.533,61.44,136.533,136.533
		S330.093,272.067,255,272.067z M255,16.067c-65.707,0-119.467,53.76-119.467,119.467S189.293,255,255,255
		s119.467-53.76,119.467-119.467S320.707,16.067,255,16.067z"/>
	<path d="M92.867,468.333H58.733c-5.12,0-8.533-3.413-8.533-8.533s3.413-8.533,8.533-8.533h34.133c5.12,0,8.533,3.413,8.533,8.533
		S97.987,468.333,92.867,468.333z"/>
	<path d="M272.067,468.333h-34.133c-5.12,0-8.533-3.413-8.533-8.533s3.413-8.533,8.533-8.533h34.133c5.12,0,8.533,3.413,8.533,8.533
		S277.187,468.333,272.067,468.333z"/>
	<path d="M451.267,468.333h-34.133c-5.12,0-8.533-3.413-8.533-8.533s3.413-8.533,8.533-8.533h34.133c5.12,0,8.533,3.413,8.533,8.533
		S456.387,468.333,451.267,468.333z"/>
</g>
<g>
</g>
<g>
</g>
<g>
</g>
<g>
</g>
<g>
</g>
<g>
</g>
<g>
</g>
<g>
</g>
<g>
</g>
<g>
</g>
<g>
</g>
<g>
</g>
<g>
</g>
<g>
</g>
<g>
</g>
</svg>
