<?xml version="1.0" encoding="iso-8859-1"?>
<!-- Generator: Adobe Illustrator 19.0.0, SVG Export Plug-In . SVG Version: 6.00 Build 0)  -->
<svg version="1.1" id="Layer_1" xmlns="http://www.w3.org/2000/svg" xmlns:xlink="http://www.w3.org/1999/xlink" x="0px" y="0px"
	 viewBox="0 0 512 512" style="enable-background:new 0 0 512 512;" xml:space="preserve">
<g transform="translate(1 1)">
	<path style="fill:#FFE100;" d="M502.467,319H7.533V50.2c0-16.213,13.653-29.867,29.867-29.867h435.2
		c16.213,0,29.867,13.653,29.867,29.867V319z"/>
	<path style="fill:#63D3FD;" d="M263.533,233.667c0,9.387-7.68,17.067-17.067,17.067s-17.067-7.68-17.067-17.067
		c0-9.387,7.68-17.067,17.067-17.067S263.533,224.28,263.533,233.667"/>
	<path style="fill:#00DA6C;" d="M383,208.067h-34.133c0-52.053-41.813-93.867-93.867-93.867s-93.867,41.813-93.867,93.867H127
		c0-70.827,57.173-128,128-128S383,137.24,383,208.067"/>
	<g>
		<path style="fill:#FFE100;" d="M353.133,489.667H156.867c-6.827,0-12.8-5.973-12.8-12.8s5.973-12.8,12.8-12.8h196.267
			c6.827,0,12.8,5.973,12.8,12.8S359.96,489.667,353.133,489.667"/>
		<path style="fill:#FFE100;" d="M7.533,365.933c0,16.213,13.653,29.867,29.867,29.867h435.2c16.213,0,29.867-13.653,29.867-29.867
			V319H7.533V365.933z"/>
	</g>
	<g>
		<path style="fill:#FFA800;" d="M472.6,20.333H447c16.213,0,29.867,13.653,29.867,29.867V319h25.6V50.2
			C502.467,33.987,488.813,20.333,472.6,20.333"/>
		<path style="fill:#FFA800;" d="M476.867,319v46.933c0,16.213-13.653,29.867-29.867,29.867h25.6
			c16.213,0,29.867-13.653,29.867-29.867V319H476.867z"/>
	</g>
	<g>
		<path style="fill:#FFFFFF;" d="M37.4,20.333H63c-16.213,0-29.867,13.653-29.867,29.867V319h-25.6V50.2
			C7.533,33.987,21.187,20.333,37.4,20.333"/>
		<path style="fill:#FFFFFF;" d="M33.133,319v46.933c0,16.213,13.653,29.867,29.867,29.867H37.4
			c-16.213,0-29.867-13.653-29.867-29.867V319H33.133z"/>
	</g>
	<path style="fill:#FDCC00;" d="M347.16,464.067H162.84c-1.707,0-2.56-2.56-0.853-3.413l15.36-11.093
		c16.213-11.947,24.747-33.28,19.627-53.76h116.053l0,0c-5.12,20.48,3.413,41.813,19.627,53.76l15.36,11.093
		C349.72,461.507,348.867,464.067,347.16,464.067"/>
	<path style="fill:#FFA800;" d="M348.013,460.653l-15.36-11.093c-16.213-11.947-24.747-33.28-19.627-53.76l0,0h-25.6l0,0
		c-5.12,20.48,3.413,41.813,19.627,53.76l15.36,11.093c1.707,0.853,0.853,3.413-0.853,3.413h25.6
		C348.867,464.067,349.72,461.507,348.013,460.653"/>
	<path style="fill:#FFFFFF;" d="M161.987,460.653l15.36-11.093c16.213-11.947,24.747-33.28,19.627-53.76l0,0h25.6l0,0
		c5.12,20.48-3.413,41.813-19.627,53.76l-15.36,11.093c-1.707,0.853-0.853,3.413,0.853,3.413h-25.6
		C161.133,464.067,160.28,461.507,161.987,460.653"/>
	<path d="M347.16,472.6H162.84c-4.267,0-8.533-2.56-10.24-7.68c-1.707-4.267,0-9.387,4.267-11.947l15.36-11.093
		c13.653-9.387,20.48-27.307,16.213-44.373l-2.56-10.24h137.387l-2.56,10.24c-4.267,17.067,2.56,34.987,16.213,44.373l15.36,11.093
		c3.413,2.56,5.12,7.68,4.267,11.947C355.693,470.04,351.427,472.6,347.16,472.6z M183.32,455.533h142.507
		c-15.36-11.947-24.747-31.573-23.04-51.2H206.36C208.067,423.96,199.533,443.587,183.32,455.533z"/>
	<path d="M511,327.533H-1V50.2c0-21.333,17.067-38.4,38.4-38.4h435.2c21.333,0,38.4,17.067,38.4,38.4V327.533z M16.067,310.467
		h477.867V50.2c0-11.947-9.387-21.333-21.333-21.333H37.4c-11.947,0-21.333,9.387-21.333,21.333V310.467z"/>
	<path d="M353.133,498.2H156.867c-11.947,0-21.333-9.387-21.333-21.333s9.387-21.333,21.333-21.333h196.267
		c11.947,0,21.333,9.387,21.333,21.333S365.08,498.2,353.133,498.2z M156.867,472.6c-2.56,0-4.267,1.707-4.267,4.267
		s1.707,4.267,4.267,4.267h196.267c2.56,0,4.267-1.707,4.267-4.267s-1.707-4.267-4.267-4.267H156.867z"/>
	<path d="M472.6,404.333H37.4c-21.333,0-38.4-17.067-38.4-38.4v-55.467h512v55.467C511,387.267,493.933,404.333,472.6,404.333z
		 M16.067,327.533v38.4c0,11.947,9.387,21.333,21.333,21.333h435.2c11.947,0,21.333-9.387,21.333-21.333v-38.4H16.067z"/>
	<path d="M246.467,259.267c-14.507,0-25.6-11.093-25.6-25.6c0-14.507,11.093-25.6,25.6-25.6c14.507,0,25.6,11.093,25.6,25.6
		C272.067,248.173,260.973,259.267,246.467,259.267z M246.467,225.133c-5.12,0-8.533,3.413-8.533,8.533
		c0,5.12,3.413,8.533,8.533,8.533c5.12,0,8.533-3.413,8.533-8.533C255,228.547,251.587,225.133,246.467,225.133z"/>
	<path d="M263.533,225.133c-2.56,0-4.267-0.853-5.973-2.56c-3.413-3.413-3.413-8.533,0-11.947l34.133-34.133
		c3.413-3.413,8.533-3.413,11.947,0c3.413,3.413,3.413,8.533,0,11.947l-34.133,34.133C267.8,224.28,266.093,225.133,263.533,225.133
		z"/>
	<path d="M383,216.6L383,216.6h-34.133c-5.12,0-8.533-3.413-8.533-8.533c0-46.933-38.4-85.333-85.333-85.333
		s-85.333,38.4-85.333,85.333c0,5.12-3.413,8.533-8.533,8.533H127c-5.12,0-8.533-3.413-8.533-8.533
		c0-75.093,61.44-136.533,136.533-136.533S390.68,132.12,391.533,206.36c0,0.853,0,0.853,0,1.707
		C391.533,213.187,388.12,216.6,383,216.6z M357.4,199.533h17.067C370.2,137.24,318.147,88.6,255,88.6
		s-114.347,48.64-119.467,110.933H152.6c4.267-52.907,48.64-93.867,102.4-93.867S352.28,146.627,357.4,199.533z"/>
</g>
<g>
</g>
<g>
</g>
<g>
</g>
<g>
</g>
<g>
</g>
<g>
</g>
<g>
</g>
<g>
</g>
<g>
</g>
<g>
</g>
<g>
</g>
<g>
</g>
<g>
</g>
<g>
</g>
<g>
</g>
</svg>
