<?xml version="1.0" encoding="iso-8859-1"?>
<!-- Generator: Adobe Illustrator 19.0.0, SVG Export Plug-In . SVG Version: 6.00 Build 0)  -->
<svg version="1.1" id="Layer_1" xmlns="http://www.w3.org/2000/svg" xmlns:xlink="http://www.w3.org/1999/xlink" x="0px" y="0px"
	 viewBox="0 0 512 512" style="enable-background:new 0 0 512 512;" xml:space="preserve">
<g transform="translate(1 1)">
	<g>
		<path style="fill:#FFE100;" d="M50.2,357.4c-5.12,0-8.533-3.413-8.533-8.533v-25.6c0-5.12,3.413-8.533,8.533-8.533
			s8.533,3.413,8.533,8.533v25.6C58.733,353.987,55.32,357.4,50.2,357.4z M50.2,306.2c-5.12,0-8.533-3.413-8.533-8.533v-25.6
			c0-5.12,3.413-8.533,8.533-8.533s8.533,3.413,8.533,8.533v25.6C58.733,302.787,55.32,306.2,50.2,306.2z M50.2,246.467
			c-5.12,0-8.533-3.413-8.533-8.533v-25.6c0-5.12,3.413-8.533,8.533-8.533s8.533,3.413,8.533,8.533v25.6
			C58.733,243.053,55.32,246.467,50.2,246.467z M50.2,195.267c-5.12,0-8.533-3.413-8.533-8.533V152.6
			c0-5.12,3.413-8.533,8.533-8.533s8.533,3.413,8.533,8.533v34.133C58.733,191.853,55.32,195.267,50.2,195.267z"/>
		<path style="fill:#FFE100;" d="M215.747,470.04c-0.853,0-2.56,0-3.413-0.853l-23.04-11.093c-4.267-1.707-5.973-6.827-4.267-11.093
			c1.707-4.267,6.827-5.973,11.093-4.267l23.04,11.093c4.267,1.707,5.973,6.827,4.267,11.093
			C221.72,468.333,219.16,470.04,215.747,470.04z M161.133,445.293c-0.853,0-2.56,0-3.413-0.853l-23.04-11.093
			c-4.267-1.707-5.973-6.827-4.267-11.093c1.707-4.267,6.827-5.973,11.093-4.267l23.04,11.093c4.267,1.707,5.973,6.827,4.267,11.093
			C167.96,442.733,164.547,445.293,161.133,445.293z M115.053,423.107c-0.853,0-2.56,0-3.413-0.853l-30.72-14.507
			c-4.267-1.707-5.973-6.827-4.267-11.093s6.827-5.973,11.093-4.267l30.72,14.507c4.267,1.707,5.973,6.827,4.267,11.093
			C121.88,421.4,118.467,423.107,115.053,423.107z"/>
		<path style="fill:#FFE100;" d="M476.867,357.4c-5.12,0-8.533-3.413-8.533-8.533v-25.6c0-5.12,3.413-8.533,8.533-8.533
			c5.12,0,8.533,3.413,8.533,8.533v25.6C485.4,353.987,481.987,357.4,476.867,357.4z M476.867,306.2
			c-5.12,0-8.533-3.413-8.533-8.533v-25.6c0-5.12,3.413-8.533,8.533-8.533c5.12,0,8.533,3.413,8.533,8.533v25.6
			C485.4,302.787,481.987,306.2,476.867,306.2z M476.867,246.467c-5.12,0-8.533-3.413-8.533-8.533v-25.6
			c0-5.12,3.413-8.533,8.533-8.533c5.12,0,8.533,3.413,8.533,8.533v25.6C485.4,243.053,481.987,246.467,476.867,246.467z
			 M476.867,195.267c-5.12,0-8.533-3.413-8.533-8.533V152.6c0-5.12,3.413-8.533,8.533-8.533c5.12,0,8.533,3.413,8.533,8.533v34.133
			C485.4,191.853,481.987,195.267,476.867,195.267z"/>
		<path style="fill:#FFE100;" d="M311.32,470.04c-3.413,0-5.973-1.707-7.68-5.12c-1.707-4.267,0-9.387,4.267-11.093l23.04-11.093
			c4.267-1.707,9.387,0,11.093,4.267c1.707,4.267,0,9.387-4.267,11.093l-23.04,11.093C313.88,470.04,313.027,470.04,311.32,470.04z
			 M365.933,445.293c-3.413,0-5.973-1.707-7.68-5.12c-1.707-4.267,0-9.387,4.267-11.093l23.04-11.093
			c4.267-1.707,9.387,0,11.093,4.267c1.707,4.267,0,9.387-4.267,11.093l-23.04,11.093
			C367.64,444.44,366.787,445.293,365.933,445.293z M412.013,423.107c-3.413,0-5.973-1.707-7.68-5.12
			c-1.707-4.267,0-9.387,4.267-11.093l30.72-14.507c4.267-1.707,9.387,0,11.093,4.267c1.707,4.267,0,9.387-4.267,11.093
			l-30.72,14.507C414.573,423.107,412.867,423.107,412.013,423.107z"/>
		<path style="fill:#FFE100;" d="M442.733,101.4c-0.853,0-2.56,0-3.413-0.853l-31.573-12.8c-4.267-1.707-6.827-6.827-4.267-11.093
			c1.707-4.267,6.827-6.827,11.093-4.267l31.573,12.8c4.267,1.707,6.827,6.827,4.267,11.093
			C449.56,99.693,446.147,101.4,442.733,101.4z M387.267,78.36c-0.853,0-2.56,0-3.413-0.853L359.96,68.12
			c-4.267-1.707-6.827-6.827-4.267-11.093c1.707-4.267,6.827-6.827,11.093-4.267l23.893,9.387c4.267,1.707,6.827,6.827,4.267,11.093
			C394.093,76.653,390.68,78.36,387.267,78.36z M332.653,56.173c-0.853,0-2.56,0-3.413-0.853l-23.893-9.387
			c-4.267-1.707-6.827-6.827-4.267-11.093c1.707-4.267,6.827-6.827,11.093-4.267l23.893,9.387c3.413,1.707,5.973,5.973,4.267,11.093
			C338.627,53.613,335.213,56.173,332.653,56.173z"/>
		<path style="fill:#FFE100;" d="M84.333,101.4c-3.413,0-6.827-1.707-7.68-5.12c-1.707-4.267,0-9.387,4.267-11.093l31.573-12.8
			c4.267-1.707,9.387,0,11.093,4.267c1.707,4.267,0,9.387-4.267,11.093l-31.573,12.8C86.893,101.4,85.187,101.4,84.333,101.4z
			 M139.8,78.36c-3.413,0-6.827-1.707-7.68-5.12c-1.707-4.267,0-9.387,4.267-11.093l23.893-9.387c4.267-1.707,9.387,0,11.093,4.267
			s0,9.387-4.267,11.093l-23.893,9.387C141.507,78.36,140.653,78.36,139.8,78.36z M194.413,56.173c-3.413,0-6.827-1.707-7.68-5.12
			c-1.707-4.267,0-9.387,4.267-11.093l23.893-9.387c4.267-1.707,9.387,0,11.093,4.267c1.707,4.267,0,9.387-4.267,11.093
			l-23.893,9.387C196.973,55.32,196.12,56.173,194.413,56.173z"/>
		<path style="fill:#FFE100;" d="M135.533,186.733c-1.707,0-3.413-0.853-5.12-1.707l-51.2-34.133c-4.267-2.56-5.12-7.68-2.56-11.947
			s7.68-5.12,11.947-2.56l51.2,34.133c4.267,2.56,5.12,7.68,2.56,11.947C140.653,185.027,138.093,186.733,135.533,186.733z"/>
		<path style="fill:#FFE100;" d="M391.533,186.733c-2.56,0-5.12-1.707-6.827-3.413c-2.56-4.267-1.707-9.387,2.56-11.947l51.2-34.133
			c4.267-2.56,9.387-1.707,11.947,2.56c2.56,4.267,1.707,9.387-2.56,11.947l-51.2,34.133
			C394.947,185.88,393.24,186.733,391.533,186.733z"/>
		<path style="fill:#FFE100;" d="M442.733,365.933c-1.707,0-3.413-0.853-5.12-1.707l-51.2-34.133c-4.267-2.56-5.12-7.68-2.56-11.947
			s7.68-5.12,11.947-2.56L447,349.72c4.267,2.56,5.12,7.68,2.56,11.947C447.853,364.227,445.293,365.933,442.733,365.933z"/>
		<path style="fill:#FFE100;" d="M84.333,365.933c-2.56,0-5.12-1.707-6.827-3.413c-2.56-4.267-1.707-9.387,2.56-11.947l51.2-34.133
			c4.267-2.56,9.387-1.707,11.947,2.56c2.56,4.267,1.707,9.387-2.56,11.947l-51.2,34.133
			C87.747,365.08,86.04,365.933,84.333,365.933z"/>
		<polygon style="fill:#FFE100;" points="255,340.333 169.667,297.667 169.667,203.8 255,237.933 		"/>
		<polygon style="fill:#FFE100;" points="255,340.333 340.333,297.667 340.333,203.8 255,237.933 		"/>
		<polygon style="fill:#FFE100;" points="255,237.933 169.667,203.8 255,161.133 340.333,203.8 		"/>
	</g>
	<g>
		<polygon style="fill:#FFA800;" points="314.733,214.04 314.733,297.667 255,340.333 340.333,297.667 340.333,203.8 		"/>
		<polygon style="fill:#FFA800;" points="255,161.133 255,167.96 314.733,203.8 242.2,232.813 255,237.933 340.333,203.8 		"/>
	</g>
	<g>
		<path style="fill:#00DA6C;" d="M75.8,118.467c0,18.773-15.36,34.133-34.133,34.133S7.533,137.24,7.533,118.467
			s15.36-34.133,34.133-34.133S75.8,99.693,75.8,118.467"/>
		<path style="fill:#00DA6C;" d="M289.133,41.667c0,18.773-15.36,34.133-34.133,34.133s-34.133-15.36-34.133-34.133
			S236.227,7.533,255,7.533S289.133,22.893,289.133,41.667"/>
		<path style="fill:#00DA6C;" d="M289.133,468.333c0,18.773-15.36,34.133-34.133,34.133s-34.133-15.36-34.133-34.133
			c0-18.773,15.36-34.133,34.133-34.133S289.133,449.56,289.133,468.333"/>
		<path style="fill:#00DA6C;" d="M502.467,118.467c0,18.773-15.36,34.133-34.133,34.133c-18.773,0-34.133-15.36-34.133-34.133
			s15.36-34.133,34.133-34.133C487.107,84.333,502.467,99.693,502.467,118.467"/>
		<path style="fill:#00DA6C;" d="M502.467,383c0,18.773-15.36,34.133-34.133,34.133c-18.773,0-34.133-15.36-34.133-34.133
			c0-18.773,15.36-34.133,34.133-34.133C487.107,348.867,502.467,364.227,502.467,383"/>
		<path style="fill:#00DA6C;" d="M75.8,383c0,18.773-15.36,34.133-34.133,34.133S7.533,401.773,7.533,383
			c0-18.773,15.36-34.133,34.133-34.133S75.8,364.227,75.8,383"/>
	</g>
	<path d="M41.667,357.4c-5.12,0-8.533-3.413-8.533-8.533v-51.2c0-5.12,3.413-8.533,8.533-8.533s8.533,3.413,8.533,8.533v51.2
		C50.2,353.987,46.787,357.4,41.667,357.4z M41.667,272.067c-5.12,0-8.533-3.413-8.533-8.533v-25.6c0-5.12,3.413-8.533,8.533-8.533
		s8.533,3.413,8.533,8.533v25.6C50.2,268.653,46.787,272.067,41.667,272.067z M41.667,195.267c-5.12,0-8.533-3.413-8.533-8.533
		V152.6c0-5.12,3.413-8.533,8.533-8.533S50.2,147.48,50.2,152.6v34.133C50.2,191.853,46.787,195.267,41.667,195.267z"/>
	<path d="M220.867,476.867c-0.853,0-2.56,0-3.413-0.853l-21.333-10.24c-4.267-1.707-5.973-6.827-4.267-11.093
		c1.707-4.267,6.827-5.973,11.093-4.267l21.333,10.24c4.267,1.707,5.973,6.827,4.267,11.093
		C226.84,475.16,224.28,476.867,220.867,476.867z M168.813,452.12c-0.853,0-2.56,0-3.413-0.853l-23.04-11.093
		c-4.267-1.707-5.973-6.827-4.267-11.093c1.707-4.267,6.827-5.973,11.093-4.267l23.04,11.093c4.267,1.707,5.973,6.827,4.267,11.093
		C174.787,450.413,171.373,452.12,168.813,452.12z M106.52,423.107c-0.853,0-2.56,0-3.413-0.853l-30.72-14.507
		c-4.267-1.707-5.973-6.827-4.267-11.093s6.827-5.973,11.093-4.267l30.72,14.507c4.267,1.707,5.973,6.827,4.267,11.093
		C113.347,421.4,109.933,423.107,106.52,423.107z"/>
	<path d="M468.333,357.4c-5.12,0-8.533-3.413-8.533-8.533v-25.6c0-5.12,3.413-8.533,8.533-8.533c5.12,0,8.533,3.413,8.533,8.533
		v25.6C476.867,353.987,473.453,357.4,468.333,357.4z M468.333,306.2c-5.12,0-8.533-3.413-8.533-8.533v-25.6
		c0-5.12,3.413-8.533,8.533-8.533c5.12,0,8.533,3.413,8.533,8.533v25.6C476.867,302.787,473.453,306.2,468.333,306.2z
		 M468.333,246.467c-5.12,0-8.533-3.413-8.533-8.533v-25.6c0-5.12,3.413-8.533,8.533-8.533c5.12,0,8.533,3.413,8.533,8.533v25.6
		C476.867,243.053,473.453,246.467,468.333,246.467z M468.333,195.267c-5.12,0-8.533-3.413-8.533-8.533V152.6
		c0-5.12,3.413-8.533,8.533-8.533c5.12,0,8.533,3.413,8.533,8.533v34.133C476.867,191.853,473.453,195.267,468.333,195.267z"/>
	<path d="M41.667,161.133C17.773,161.133-1,142.36-1,118.467S17.773,75.8,41.667,75.8s42.667,18.773,42.667,42.667
		S65.56,161.133,41.667,161.133z M41.667,92.867c-14.507,0-25.6,11.093-25.6,25.6s11.093,25.6,25.6,25.6s25.6-11.093,25.6-25.6
		S56.173,92.867,41.667,92.867z"/>
	<path d="M255,84.333c-23.893,0-42.667-18.773-42.667-42.667S231.107-1,255-1s42.667,18.773,42.667,42.667
		S278.893,84.333,255,84.333z M255,16.067c-14.507,0-25.6,11.093-25.6,25.6s11.093,25.6,25.6,25.6c14.507,0,25.6-11.093,25.6-25.6
		S269.507,16.067,255,16.067z"/>
	<path d="M255,511c-23.893,0-42.667-18.773-42.667-42.667c0-23.893,18.773-42.667,42.667-42.667s42.667,18.773,42.667,42.667
		C297.667,492.227,278.893,511,255,511z M255,442.733c-14.507,0-25.6,11.093-25.6,25.6c0,14.507,11.093,25.6,25.6,25.6
		c14.507,0,25.6-11.093,25.6-25.6C280.6,453.827,269.507,442.733,255,442.733z"/>
	<path d="M468.333,161.133c-23.893,0-42.667-18.773-42.667-42.667S444.44,75.8,468.333,75.8C492.227,75.8,511,94.573,511,118.467
		S492.227,161.133,468.333,161.133z M468.333,92.867c-14.507,0-25.6,11.093-25.6,25.6s11.093,25.6,25.6,25.6
		c14.507,0,25.6-11.093,25.6-25.6S482.84,92.867,468.333,92.867z"/>
	<path d="M468.333,425.667c-23.893,0-42.667-18.773-42.667-42.667c0-23.893,18.773-42.667,42.667-42.667
		C492.227,340.333,511,359.107,511,383C511,406.893,492.227,425.667,468.333,425.667z M468.333,357.4
		c-14.507,0-25.6,11.093-25.6,25.6c0,14.507,11.093,25.6,25.6,25.6c14.507,0,25.6-11.093,25.6-25.6
		C493.933,368.493,482.84,357.4,468.333,357.4z"/>
	<path d="M41.667,425.667C17.773,425.667-1,406.893-1,383c0-23.893,18.773-42.667,42.667-42.667S84.333,359.107,84.333,383
		C84.333,406.893,65.56,425.667,41.667,425.667z M41.667,357.4c-14.507,0-25.6,11.093-25.6,25.6c0,14.507,11.093,25.6,25.6,25.6
		s25.6-11.093,25.6-25.6C67.267,368.493,56.173,357.4,41.667,357.4z"/>
	<path d="M289.133,476.867c-3.413,0-5.973-1.707-7.68-5.12c-1.707-4.267,0-9.387,4.267-11.093l21.333-10.24
		c4.267-1.707,9.387,0,11.093,4.267c1.707,4.267,0,9.387-4.267,11.093l-21.333,10.24
		C291.693,476.867,289.987,476.867,289.133,476.867z M341.187,452.12c-3.413,0-5.973-1.707-7.68-5.12
		c-1.707-4.267,0-9.387,4.267-11.093l23.04-11.093c4.267-1.707,9.387,0,11.093,4.267c1.707,4.267,0,9.387-4.267,11.093
		l-22.187,11.093C343.747,452.12,342.893,452.12,341.187,452.12z M403.48,423.107c-3.413,0-5.973-1.707-7.68-5.12
		c-1.707-4.267,0-9.387,4.267-11.093l30.72-14.507c4.267-1.707,9.387,0,11.093,4.267s0,9.387-4.267,11.093l-30.72,14.507
		C406.04,423.107,404.333,423.107,403.48,423.107z"/>
	<path d="M434.2,101.4c-0.853,0-2.56,0-3.413-0.853l-31.573-12.8c-4.267-1.707-6.827-6.827-4.267-11.093
		c1.707-4.267,6.827-6.827,11.093-4.267l31.573,12.8c4.267,1.707,6.827,6.827,4.267,11.093
		C441.027,99.693,437.613,101.4,434.2,101.4z M363.373,72.387c-0.853,0-2.56,0-3.413-0.853l-23.893-9.387
		c-4.267-2.56-5.973-6.827-4.267-11.093s6.827-6.827,11.093-4.267l23.893,9.387c4.267,1.707,6.827,6.827,4.267,11.093
		C369.347,69.827,366.787,72.387,363.373,72.387z M307.907,49.347c-0.853,0-2.56,0-3.413-0.853l-18.773-7.68
		c-4.267-1.707-6.827-6.827-4.267-11.093c1.707-4.267,6.827-6.827,11.093-4.267l18.773,7.68c4.267,1.707,6.827,6.827,4.267,11.093
		C314.733,47.64,311.32,49.347,307.907,49.347z"/>
	<path d="M75.8,101.4c-3.413,0-6.827-1.707-7.68-5.12c-1.707-4.267,0-9.387,4.267-11.093l31.573-12.8
		c4.267-1.707,9.387,0,11.093,4.267c1.707,4.267,0,9.387-4.267,11.093l-31.573,12.8C78.36,101.4,76.653,101.4,75.8,101.4z
		 M146.627,72.387c-3.413,0-6.827-1.707-7.68-5.12c-1.707-4.267,0-9.387,4.267-11.093l23.893-9.387
		c4.267-1.707,9.387,0,11.093,4.267s0,9.387-4.267,11.093l-23.893,9.387C149.187,71.533,147.48,72.387,146.627,72.387z
		 M202.093,49.347c-3.413,0-6.827-1.707-7.68-5.12c-1.707-4.267,0-9.387,4.267-11.093l18.773-7.68c4.267-1.707,9.387,0,11.093,4.267
		s0,9.387-4.267,11.093l-18.773,7.68C204.653,49.347,202.947,49.347,202.093,49.347z"/>
	<path d="M255,348.867c-1.707,0-2.56,0-3.413-0.853l-85.333-42.667c-3.413-1.707-5.12-4.267-5.12-7.68V203.8
		c0-2.56,1.707-5.12,3.413-6.827c2.56-1.707,5.12-1.707,7.68-0.853l85.333,34.133c3.413,1.707,5.12,4.267,5.12,7.68v102.4
		c0,2.56-1.707,5.973-4.267,7.68C258.413,348.867,256.707,348.867,255,348.867z M178.2,292.547l68.267,34.133v-82.773L178.2,216.6
		V292.547z"/>
	<path d="M255,348.867c-1.707,0-3.413,0-4.267-0.853c-2.56-1.707-4.267-5.12-4.267-7.68v-102.4c0-3.413,1.707-6.827,5.12-7.68
		l85.333-34.133c2.56-0.853,5.973-0.853,7.68,0.853c2.56,1.707,3.413,4.267,3.413,6.827v93.867c0,3.413-1.707,5.973-5.12,7.68
		l-85.333,42.667C257.56,348.867,256.707,348.867,255,348.867z M263.533,243.907v82.773l68.267-34.133V216.6L263.533,243.907z"/>
	<path d="M255,246.467c-0.853,0-2.56,0-3.413-0.853l-85.333-34.133c-2.56-0.853-5.12-4.267-5.12-7.68c0-3.413,1.707-6.827,5.12-7.68
		l85.333-42.667c2.56-0.853,5.12-0.853,7.68,0L344.6,196.12c3.413,1.707,5.12,4.267,5.12,7.68c0,3.413-2.56,5.973-5.12,7.68
		l-85.333,34.133C257.56,246.467,255.853,246.467,255,246.467z M190.147,202.947l64.853,25.6l64.853-25.6L255,170.52
		L190.147,202.947z"/>
	<path d="M127,186.733c-1.707,0-3.413-0.853-5.12-1.707l-51.2-34.133c-4.267-2.56-5.12-7.68-2.56-11.947
		c2.56-4.267,7.68-5.12,11.947-2.56l51.2,34.133c4.267,2.56,5.12,7.68,2.56,11.947C132.12,185.027,129.56,186.733,127,186.733z"/>
	<path d="M383,186.733c-2.56,0-5.12-1.707-6.827-3.413c-2.56-4.267-1.707-9.387,2.56-11.947l51.2-34.133
		c4.267-2.56,9.387-1.707,11.947,2.56c2.56,4.267,1.707,9.387-2.56,11.947l-51.2,34.133C386.413,185.88,384.707,186.733,383,186.733
		z"/>
	<path d="M434.2,365.933c-1.707,0-3.413-0.853-5.12-1.707l-51.2-34.133c-4.267-2.56-5.12-7.68-2.56-11.947s7.68-5.12,11.947-2.56
		l51.2,34.133c4.267,2.56,5.12,7.68,2.56,11.947C439.32,364.227,436.76,365.933,434.2,365.933z"/>
	<path d="M75.8,365.933c-2.56,0-5.12-1.707-6.827-3.413c-2.56-4.267-1.707-9.387,2.56-11.947l51.2-34.133
		c4.267-2.56,9.387-1.707,11.947,2.56c2.56,4.267,1.707,9.387-2.56,11.947l-51.2,34.133C79.213,365.08,77.507,365.933,75.8,365.933z
		"/>
</g>
<g>
</g>
<g>
</g>
<g>
</g>
<g>
</g>
<g>
</g>
<g>
</g>
<g>
</g>
<g>
</g>
<g>
</g>
<g>
</g>
<g>
</g>
<g>
</g>
<g>
</g>
<g>
</g>
<g>
</g>
</svg>
