<?xml version="1.0" encoding="iso-8859-1"?>
<!-- Generator: Adobe Illustrator 19.0.0, SVG Export Plug-In . SVG Version: 6.00 Build 0)  -->
<svg version="1.1" id="Layer_1" xmlns="http://www.w3.org/2000/svg" xmlns:xlink="http://www.w3.org/1999/xlink" x="0px" y="0px"
	 viewBox="0 0 512 512" style="enable-background:new 0 0 512 512;" xml:space="preserve">
<g transform="translate(1 1)">
	<g>
		<path style="fill:#FFE100;" d="M400.067,101.4V33.133c0-13.653-11.093-25.6-25.6-25.6H152.6c-13.653,0-25.6,11.093-25.6,25.6
			v153.6h59.733c14.507,0,25.6,11.947,25.6,25.6V331.8c0,14.507-11.947,25.6-25.6,25.6l-17.067,42.667L152.6,357.4H127v119.467
			c0,13.653,11.093,25.6,25.6,25.6h221.867c13.653,0,25.6-11.093,25.6-25.6v-204.8H357.4l-17.067,42.667l-17.067-42.667
			c-14.507,0-25.6-11.947-25.6-25.6V127c0-14.507,11.947-25.6,25.6-25.6H400.067z"/>
		<path style="fill:#FFE100;" d="M400.067,101.4V58.733H127v128h59.733c14.507,0,25.6,11.947,25.6,25.6V331.8
			c0,14.507-11.947,25.6-25.6,25.6l-17.067,42.667L152.6,357.4H127v76.8h273.067V272.067H357.4l-17.067,42.667l-17.067-42.667
			c-14.507,0-25.6-11.947-25.6-25.6V127c0-14.507,11.947-25.6,25.6-25.6H400.067z"/>
	</g>
	<g>
		<path style="fill:#63D3FD;" d="M289.133,468.333c0,14.507-11.093,25.6-25.6,25.6c-14.507,0-25.6-11.093-25.6-25.6
			c0-14.507,11.093-25.6,25.6-25.6C278.04,442.733,289.133,453.827,289.133,468.333"/>
		<path style="fill:#63D3FD;" d="M476.867,272.067H357.4l-17.067,42.667l-17.067-42.667c-14.507,0-25.6-11.947-25.6-25.6V127
			c0-14.507,11.947-25.6,25.6-25.6h153.6c14.507,0,25.6,11.947,25.6,25.6v119.467C502.467,260.12,490.52,272.067,476.867,272.067"/>
		<path style="fill:#63D3FD;" d="M33.133,357.4H152.6l17.067,42.667l17.067-42.667c14.507,0,25.6-11.947,25.6-25.6V212.333
			c0-14.507-11.947-25.6-25.6-25.6h-153.6c-14.507,0-25.6,11.947-25.6,25.6V331.8C7.533,345.453,19.48,357.4,33.133,357.4"/>
	</g>
	<polygon style="fill:#00DA6C;" points="357.4,237.933 442.733,237.933 442.733,169.667 357.4,169.667 	"/>
	<path style="fill:#E4667F;" d="M109.933,237.933c5.12-10.24,15.36-17.067,28.16-17.067c17.067,0,29.867,13.653,31.573,29.867
		c0,0,0.853,4.267-0.853,11.093c-2.56,10.24-8.533,18.773-16.213,25.6l-42.667,35.84L68.12,288.28
		c-7.68-6.827-13.653-15.36-16.213-25.6c-2.56-7.68-1.707-11.947-1.707-11.947c1.707-16.213,14.507-29.867,31.573-29.867
		C94.573,220.867,104.813,227.693,109.933,237.933"/>
	<path style="fill:#3DB9F9;" d="M476.867,101.4h-25.6c14.507,0,25.6,11.947,25.6,25.6v119.467c0,14.507-11.947,25.6-25.6,25.6h25.6
		c14.507,0,25.6-11.947,25.6-25.6V127C502.467,113.347,490.52,101.4,476.867,101.4"/>
	<path style="fill:#FFFFFF;" d="M33.133,186.733h25.6c-14.507,0-25.6,11.947-25.6,25.6V331.8c0,14.507,11.947,25.6,25.6,25.6h-25.6
		c-14.507,0-25.6-11.947-25.6-25.6V212.333C7.533,198.68,19.48,186.733,33.133,186.733"/>
	<path d="M297.667,41.667H255c-5.12,0-8.533-3.413-8.533-8.533S249.88,24.6,255,24.6h42.667c5.12,0,8.533,3.413,8.533,8.533
		S302.787,41.667,297.667,41.667z"/>
	<path d="M229.4,41.667h-8.533c-5.12,0-8.533-3.413-8.533-8.533s3.413-8.533,8.533-8.533h8.533c5.12,0,8.533,3.413,8.533,8.533
		S234.52,41.667,229.4,41.667z"/>
	<path d="M118.467,101.4c-5.12,0-8.533-3.413-8.533-8.533v-8.533c0-5.12,3.413-8.533,8.533-8.533S127,79.213,127,84.333v8.533
		C127,97.987,123.587,101.4,118.467,101.4z"/>
	<path d="M118.467,135.533c-5.12,0-8.533-3.413-8.533-8.533v-8.533c0-5.12,3.413-8.533,8.533-8.533s8.533,3.413,8.533,8.533V127
		C127,132.12,123.587,135.533,118.467,135.533z"/>
	<path d="M263.533,502.467c-18.773,0-34.133-15.36-34.133-34.133c0-18.773,15.36-34.133,34.133-34.133s34.133,15.36,34.133,34.133
		C297.667,487.107,282.307,502.467,263.533,502.467z M263.533,451.267c-9.387,0-17.067,7.68-17.067,17.067
		c0,9.387,7.68,17.067,17.067,17.067c9.387,0,17.067-7.68,17.067-17.067C280.6,458.947,272.92,451.267,263.533,451.267z"/>
	<path d="M340.333,323.267c-3.413,0-6.827-1.707-7.68-5.12l-15.36-37.547c-16.213-2.56-28.16-17.067-28.16-34.133V127
		c0-18.773,15.36-34.133,34.133-34.133h153.6C495.64,92.867,511,108.227,511,127v119.467c0,18.773-15.36,34.133-34.133,34.133
		H363.373l-14.507,37.547C347.16,321.56,343.747,323.267,340.333,323.267z M323.267,109.933c-9.387,0-17.067,7.68-17.067,17.067
		v119.467c0,9.387,7.68,17.067,17.067,17.067c3.413,0,6.827,1.707,7.68,5.12l9.387,23.04l9.387-23.04
		c1.707-3.413,4.267-5.12,7.68-5.12h119.467c9.387,0,17.067-7.68,17.067-17.067V127c0-9.387-7.68-17.067-17.067-17.067H323.267z"/>
	<path d="M169.667,408.6c-3.413,0-6.827-1.707-7.68-5.12l-15.36-37.547H33.133C14.36,365.933-1,350.573-1,331.8V212.333
		C-1,193.56,14.36,178.2,33.133,178.2h153.6c18.773,0,34.133,15.36,34.133,34.133V331.8c0,17.067-11.947,30.72-28.16,34.133
		l-15.36,37.547C175.64,406.893,173.08,408.6,169.667,408.6z M33.133,195.267c-9.387,0-17.067,7.68-17.067,17.067V331.8
		c0,9.387,7.68,17.067,17.067,17.067H152.6c3.413,0,6.827,1.707,7.68,5.12l9.387,23.04l9.387-23.04
		c1.707-3.413,4.267-5.12,7.68-5.12c9.387,0,17.067-7.68,17.067-17.067V212.333c0-9.387-7.68-17.067-17.067-17.067H33.133z"/>
	<path d="M374.467,511H152.6c-18.773,0-34.133-15.36-34.133-34.133V357.4c0-5.12,3.413-8.533,8.533-8.533h25.6
		c3.413,0,6.827,1.707,7.68,5.12l9.387,23.04l9.387-23.04c1.707-3.413,4.267-5.12,7.68-5.12c9.387,0,17.067-7.68,17.067-17.067
		V212.333c0-9.387-7.68-17.067-17.067-17.067H127c-5.12,0-8.533-3.413-8.533-8.533v-153.6C118.467,14.36,133.827-1,152.6-1h221.867
		C393.24-1,408.6,14.36,408.6,33.133V101.4c0,5.12-3.413,8.533-8.533,8.533h-76.8c-9.387,0-17.067,7.68-17.067,17.067v119.467
		c0,9.387,7.68,17.067,17.067,17.067c3.413,0,6.827,1.707,7.68,5.12l9.387,23.04l9.387-23.04c1.707-3.413,4.267-5.12,7.68-5.12
		h42.667c5.12,0,8.533,3.413,8.533,8.533v204.8C408.6,495.64,393.24,511,374.467,511z M135.533,365.933v110.933
		c0,9.387,7.68,17.067,17.067,17.067h221.867c9.387,0,17.067-7.68,17.067-17.067V280.6h-28.16l-14.507,37.547
		c-1.707,3.413-5.12,5.12-8.533,5.12c-3.413,0-6.827-1.707-7.68-5.12l-15.36-37.547c-16.213-2.56-28.16-17.067-28.16-34.133V127
		c0-18.773,15.36-34.133,34.133-34.133h68.267V33.133c0-9.387-7.68-17.067-17.067-17.067H152.6c-9.387,0-17.067,7.68-17.067,17.067
		V178.2h51.2c18.773,0,34.133,15.36,34.133,34.133V331.8c0,17.067-11.947,30.72-28.16,34.133l-15.36,37.547
		c-1.707,3.413-4.267,5.12-7.68,5.12s-6.827-1.707-7.68-5.12l-15.36-37.547H135.533z"/>
	<path d="M400.067,442.733H127c-5.12,0-8.533-3.413-8.533-8.533v-76.8c0-5.12,3.413-8.533,8.533-8.533h25.6
		c3.413,0,6.827,1.707,7.68,5.12l9.387,23.04l9.387-23.04c1.707-3.413,4.267-5.12,7.68-5.12c9.387,0,17.067-7.68,17.067-17.067
		V212.333c0-9.387-7.68-17.067-17.067-17.067H127c-5.12,0-8.533-3.413-8.533-8.533v-128c0-5.12,3.413-8.533,8.533-8.533h273.067
		c5.12,0,8.533,3.413,8.533,8.533V101.4c0,5.12-3.413,8.533-8.533,8.533h-76.8c-9.387,0-17.067,7.68-17.067,17.067v119.467
		c0,9.387,7.68,17.067,17.067,17.067c3.413,0,6.827,1.707,7.68,5.12l9.387,23.04l9.387-23.04c1.707-3.413,4.267-5.12,7.68-5.12
		h42.667c5.12,0,8.533,3.413,8.533,8.533V434.2C408.6,439.32,405.187,442.733,400.067,442.733z M135.533,425.667h256V280.6h-28.16
		l-14.507,37.547c-1.707,3.413-5.12,5.12-8.533,5.12c-3.413,0-6.827-1.707-7.68-5.12l-15.36-37.547
		c-16.213-2.56-28.16-17.067-28.16-34.133V127c0-18.773,15.36-34.133,34.133-34.133h68.267v-25.6h-256V178.2h51.2
		c18.773,0,34.133,15.36,34.133,34.133V331.8c0,17.067-11.947,30.72-28.16,34.133l-15.36,37.547c-1.707,3.413-4.267,5.12-7.68,5.12
		s-6.827-1.707-7.68-5.12l-15.36-37.547h-11.093V425.667z"/>
	<path d="M109.933,331.8c-1.707,0-4.267-0.853-5.12-1.707L63,295.107c-9.387-8.533-16.213-18.773-19.627-29.867
		c-2.56-8.533-1.707-13.653-1.707-15.36c2.56-22.187,18.773-37.547,40.107-37.547c11.093,0,21.333,4.267,28.16,11.093
		c6.827-6.827,17.067-11.093,28.16-11.093c20.48,0,37.547,15.36,40.107,37.547c0,1.707,0.853,6.827-0.853,14.507
		c-2.56,11.093-9.387,22.187-19.627,29.867l-41.813,34.987C114.2,330.947,111.64,331.8,109.933,331.8z M58.733,252.44
		c0,0,0,2.56,0.853,7.68c1.707,7.68,6.827,15.36,13.653,21.333l36.693,30.72l36.693-30.72c6.827-5.973,11.947-12.8,13.653-21.333
		c0.853-5.12,0.853-7.68,0.853-7.68c-0.853-11.947-9.387-23.04-23.04-23.04c-9.387,0-17.067,4.267-20.48,11.947
		c-1.707,3.413-4.267,5.12-7.68,5.12s-5.973-1.707-7.68-5.12c-3.413-7.68-11.093-11.947-20.48-11.947
		c-13.653,0-21.333,11.093-23.04,22.187C58.733,252.44,58.733,252.44,58.733,252.44L58.733,252.44z"/>
	<path d="M442.733,246.467H357.4c-5.12,0-8.533-3.413-8.533-8.533v-68.267c0-5.12,3.413-8.533,8.533-8.533h85.333
		c5.12,0,8.533,3.413,8.533,8.533v68.267C451.267,243.053,447.853,246.467,442.733,246.467z M365.933,229.4H434.2v-51.2h-68.267
		V229.4z"/>
	<path d="M400.067,178.2c-2.56,0-5.12-0.853-6.827-3.413l-25.6-34.133c-2.56-3.413-1.707-9.387,1.707-11.947
		c3.413-2.56,9.387-1.707,11.947,1.707l25.6,34.133c2.56,3.413,1.707,9.387-1.707,11.947
		C403.48,177.347,401.773,178.2,400.067,178.2z"/>
	<path d="M400.067,178.2c-1.707,0-3.413-0.853-5.12-1.707c-3.413-2.56-4.267-8.533-1.707-11.947l25.6-34.133
		c2.56-3.413,8.533-4.267,11.947-1.707c3.413,2.56,4.267,8.533,1.707,11.947l-25.6,34.133
		C405.187,177.347,402.627,178.2,400.067,178.2z"/>
	<path d="M400.067,246.467c-5.12,0-8.533-3.413-8.533-8.533v-68.267c0-5.12,3.413-8.533,8.533-8.533s8.533,3.413,8.533,8.533v68.267
		C408.6,243.053,405.187,246.467,400.067,246.467z"/>
</g>
<g>
</g>
<g>
</g>
<g>
</g>
<g>
</g>
<g>
</g>
<g>
</g>
<g>
</g>
<g>
</g>
<g>
</g>
<g>
</g>
<g>
</g>
<g>
</g>
<g>
</g>
<g>
</g>
<g>
</g>
</svg>
