<?xml version="1.0" encoding="UTF-8" standalone="no"?> <!-- Created with Vectornator for iOS (http://vectornator.io/) --><!DOCTYPE svg PUBLIC "-//W3C//DTD SVG 1.1//EN" "http://www.w3.org/Graphics/SVG/1.1/DTD/svg11.dtd">
<svg height="100%" style="fill-rule:nonzero;clip-rule:evenodd;stroke-linecap:round;stroke-linejoin:round;" xmlns:xlink="http://www.w3.org/1999/xlink" xmlns="http://www.w3.org/2000/svg" xml:space="preserve" width="100%" xmlns:vectornator="http://vectornator.io" version="1.1" viewBox="0 0 400 400">
<metadata>
<vectornator:setting key="DimensionsVisible" value="1"/>
<vectornator:setting key="PencilOnly" value="0"/>
<vectornator:setting key="SnapToPoints" value="0"/>
<vectornator:setting key="OutlineMode" value="0"/>
<vectornator:setting key="RulersVisible" value="1"/>
<vectornator:setting key="GuidesVisible" value="1"/>
<vectornator:setting key="CMYKEnabledKey" value="0"/>
<vectornator:setting key="SnapToEdges" value="0"/>
<vectornator:setting key="DisplayWhiteBackground" value="0"/>
<vectornator:setting key="doHistoryDisabled" value="0"/>
<vectornator:setting key="TimeLapseWatermarkDisabled" value="0"/>
<vectornator:setting key="SnapToGuides" value="1"/>
<vectornator:setting key="Units" value="Pixels"/>
<vectornator:setting key="DynamicGuides" value="0"/>
<vectornator:setting key="SnapToGrid" value="0"/>
<vectornator:setting key="IsolateActiveLayer" value="0"/>
</metadata>
<defs/>
<g id="Layer 1" vectornator:layerName="Layer 1">
<path d="M230.225+181.432C235.002+187.222+228.93+193.712+226.028+198.847C225.354+200.039+226.533+201.495+227.839+201.111C230.147+200.433+237.105+197.245+238.365+200.166C239.545+202.903+239.467+206.233+241.17+208.741C242.003+209.966+243.561+209.582+244.045+208.302C245.927+203.319+251.21+195.65+256.973+195.22C258.26+195.125+259.09+193.485+258.029+192.528C255.505+190.253+252.825+187.821+251.922+184.428C251.26+181.946+251.725+179.077+251.886+176.51C251.987+176.234+251.984+175.953+251.903+175.69C251.806+174.887+251.138+174.495+250.442+174.503C250.037+174.461+249.606+174.574+249.226+174.92C246.104+177.765+242.63+179.443+238.382+179.492C235.99+179.52+233.658+178.885+231.281+178.739C229.773+178.647+229.458+180.502+230.225+181.432ZM240.344+182.479C243.393+182.219+246.126+181.024+248.576+179.341C248.467+181.487+248.462+183.633+249.02+185.728C249.748+188.46+251.661+190.753+253.709+192.754C249.008+194.556+245.078+199.305+242.614+203.925C241.96+201.151+241.775+198.043+239.431+196.35C237.423+194.9+233.917+195.729+230.891+196.712C233.742+191.971+236.386+187.137+234.252+182.119C236.266+182.378+238.259+182.658+240.344+182.479Z" fill-opacity="0.409404" fill="var(--svg-fill, #ffffff)" opacity="1"/>
<g opacity="1">
<path d="M222.678+123.624C222.249+121.879+220.315+120.444+219.04+119.353C217.523+118.054+218.514+117.606+219.835+116.62C221.874+115.099+223.521+117.018+225.037+118.319C227.202+120.181+229.979+116.738+227.82+114.882C227.321+114.452+226.83+114.025+226.339+113.623C226.736+113.013+227.182+112.437+227.653+111.854C229.446+109.636+226.009+106.853+224.215+109.071C223.583+109.854+222.986+110.656+222.458+111.502C221.533+111.323+220.534+111.385+219.414+111.806C217.155+112.653+214.044+114.968+213.656+117.532C213.209+120.478+215.692+122.266+217.631+123.991C219.455+125.613+218.225+127.654+217.103+129.228C216.496+130.08+215.676+130.845+214.751+131.335C212.241+132.659+211.945+127.842+213.806+126.811C216.303+125.427+213.693+121.85+211.231+123.212C207.522+125.268+207.502+129.622+209.198+133.021C208.626+133.727+208.054+134.434+207.482+135.14C205.687+137.357+209.125+140.141+210.92+137.923C211.485+137.226+212.048+136.529+212.613+135.832C214.765+136.212+217.27+135.167+218.898+133.766C221.829+131.241+223.617+127.435+222.678+123.624Z" fill-opacity="0.409404" fill="var(--svg-fill, #ffffff)" opacity="1"/>
<path d="M236.563+128.755C240.616+121.926+244.205+110.984+236.142+105.764C236.132+105.755+236.127+105.746+236.117+105.738C229.889+100.54+222.131+97.8542+214.956+102.852C208.816+107.129+203.314+114.084+199.773+120.579C196.258+127.027+196.504+133.529+200.674+139.521C203.586+143.705+207.999+146.08+213.065+146.119C223.013+146.198+231.915+136.585+236.563+128.755ZM215.333+141.404C211.885+142.204+208.725+141.342+206.084+139.03C201.589+135.094+200.767+129.529+202.956+124.173C205.328+118.368+210.037+113.46+214.481+109.166C217.143+106.594+219.879+104.292+223.807+104.471C227.425+104.636+230.666+106.95+233.336+109.176C233.515+109.327+233.699+109.429+233.883+109.512C239.701+112.941+235.22+122.262+232.848+126.414C229.195+132.806+222.762+139.678+215.333+141.404Z" fill-opacity="0.409404" fill="var(--svg-fill, #ffffff)" opacity="1"/>
</g>
<path d="M136.452+144.954C139.105+133.162+141.66+121.359+143.311+109.38C143.418+108.6+143.127+107.549+142.286+107.249C137.647+105.591+132.913+104.28+128.13+103.15C135.78+101.415+143.372+97.4408+139.167+88.6783C136.79+83.7233+129.468+82.2424+124.898+84.8873C122.311+86.3834+120.699+88.7319+119.59+91.395C118.958+88.9764+117.9+86.6753+116.349+84.6361C113.262+80.5779+107.116+77.9497+102.342+80.3294C97.5585+82.7136+98.4879+90.2413+100.886+93.8511C102.04+95.5889+103.608+96.9668+105.364+98.1505C101.667+97.4059+97.9625+96.7905+94.2627+96.519C94.0962+96.5071+93.9395+96.5153+93.7897+96.5365C92.904+96.4373+92.0415+96.8772+91.9595+98.0372C91.4183+105.775+88.9796+113.206+87.5162+120.79C86.6605+125.219+85.482+131.344+88.4999+135.219C91.8584+139.531+100.317+139.306+105.061+140.229C114.796+142.126+124.407+144.606+134.15+146.472C135.209+146.675+136.217+146.001+136.452+144.954ZM125.131+89.5911C128.422+85.5865+134.793+87.5897+136.339+91.9814C138.589+98.3731+126.251+99.8757+121.205+100.296C121.921+96.547+122.704+92.5443+125.131+89.5911ZM103.809+84.1566C106.505+80.4759+112.864+86.295+114.254+88.4381C116.311+91.6083+116.715+95.7229+116.255+99.5018C110.52+96.6319+98.4338+91.4971+103.809+84.1566ZM133.054+142.273C126.541+140.98+120.072+139.49+113.592+138.047C107.009+136.581+99.6086+136.21+93.2841+133.908C88.0326+131.998+91.191+122.123+92.0028+118.28C93.2525+112.366+94.9673+106.568+95.613+100.554C101.545+101.218+107.389+102.741+113.239+104.008C112.372+105.075+111.599+106.238+110.859+107.386C109.666+109.234+107.135+115.313+104.297+114.412C101.9+113.651+101.141+117.48+103.512+118.233C109.795+120.229+112.337+111.546+116.078+106.706C116.645+114.081+119.164+123.835+126.724+123.284C129.229+123.101+128.98+119.208+126.465+119.391C121.626+119.744+120.21+111.11+119.909+105.335C126.435+106.615+132.949+108.143+139.238+110.293C137.679+121.048+135.427+131.67+133.054+142.273Z" fill-opacity="0.409404" fill="var(--svg-fill, #ffffff)" opacity="1"/>
<path d="M240.558+280.112C238.948+284.415+239.521+288.823+242.085+292.59C243.309+294.389+244.863+295.955+246.346+297.536C247.572+298.843+249.272+302.061+250.97+302.529C252.563+302.968+255.226+301.285+256.808+300.811C258.915+300.181+261.06+299.657+263.091+298.8C267.444+296.963+270.045+293.761+271.286+289.222C273.429+281.387+262.923+278.124+256.988+280.702C253.342+275.595+243.25+272.916+240.558+280.112ZM247.874+278.789C250.873+278.824+253.871+280.79+255.111+283.478C255.32+283.934+255.651+284.171+256.009+284.245C256.357+284.365+256.76+284.331+257.175+284.047C259.576+282.401+262.436+282.447+265.103+283.398C268.834+284.727+268.848+288.05+267.395+291.184C265.986+294.224+263.09+295.69+260.068+296.693C258.507+297.211+256.909+297.62+255.333+298.092C254.624+298.304+253.925+298.543+253.226+298.787C253.032+298.854+252.175+299.081+251.784+299.293C251.425+298.672+250.262+297.345+249.987+297.029C248.896+295.775+247.725+294.591+246.602+293.365C244.417+290.978+242.72+288.442+242.645+285.113C242.566+281.546+244.125+278.747+247.874+278.789Z" fill-opacity="0.409404" fill="var(--svg-fill, #ffffff)" opacity="1"/>
<path d="M330.65+100.93C328.07+95.7713+325.45+90.6374+322.443+85.7116C322.247+85.3911+321.822+85.0908+321.421+85.2336C319.206+86.0215+317.06+86.9663+314.951+87.9928C317.255+85.0419+318.861+81.2808+314.661+79.312C312.286+78.1984+309.133+79.8621+308.243+82.2194C307.739+83.5533+307.852+84.9081+308.246+86.2272C307.282+85.5242+306.196+84.9931+305.007+84.7079C302.641+84.14+299.576+85.0244+298.53+87.3454C297.482+89.671+300.099+92.1724+302.075+92.7825C303.026+93.0762+304.022+93.112+305.028+93.0193C303.437+93.8605+301.882+94.7515+300.433+95.7683C300.368+95.8142+300.312+95.8646+300.263+95.9176C299.906+96.1484+299.72+96.5714+300.04+97.0249C302.176+100.048+303.519+103.531+305.268+106.775C306.289+108.671+307.703+111.29+309.988+111.811C312.531+112.391+315.589+109.753+317.621+108.662C321.792+106.424+326.093+104.438+330.257+102.186C330.71+101.942+330.879+101.388+330.65+100.93ZM309.749+83.8875C309.756+81.4138+312.716+80.2305+314.613+81.3868C317.375+83.0696+313.268+87.3502+311.531+89.0294C310.663+87.4275+309.744+85.7117+309.749+83.8875ZM300.228+88.3171C300.113+86.1426+304.22+86.3731+305.381+86.7455C307.099+87.296+308.49+88.6948+309.461+90.2302C306.475+90.9012+300.458+92.6529+300.228+88.3171ZM328.584+100.965C325.787+102.454+322.946+103.857+320.115+105.28C317.24+106.726+314.393+108.823+311.36+109.882C308.843+110.762+307.029+106.159+306.168+104.493C304.844+101.93+303.727+99.2693+302.15+96.8519C304.543+95.3062+307.163+94.1042+309.707+92.8063C309.709+93.4623+309.774+94.1257+309.847+94.7735C309.965+95.8169+310.865+98.8276+309.544+99.3513C308.428+99.7937+309.303+101.438+310.408+101.001C313.332+99.8413+311.65+95.8648+311.571+92.9461C314.008+95.5009+317.883+98.3449+320.511+95.8584C321.382+95.0348+320.114+93.671+319.24+94.4981C317.558+96.0896+314.428+93.3264+312.573+91.2826C315.371+89.7851+318.24+88.3831+321.214+87.2787C323.885+91.7243+326.26+96.3301+328.584+100.965Z" fill-opacity="0.409404" fill="var(--svg-fill, #ffffff)" opacity="1"/>
<path d="M97.0658+295.673C98.8335+304.007+103.675+310.222+110.641+313.369C113.967+314.872+117.527+315.671+121.006+316.565C123.881+317.305+129.163+320.505+131.909+319.456C134.485+318.471+136.566+313.089+138.288+310.705C140.579+307.53+143.022+304.48+145.002+301.034C149.245+293.649+149.843+285.984+147.356+277.67C143.061+263.321+125.73+269.245+120.012+279.429C110.337+275.34+94.1102+281.737+97.0658+295.673ZM105.824+285.989C109.944+282.91+115.844+282.82+120.009+285.681C120.715+286.167+121.383+286.187+121.941+285.928C122.525+285.751+123.045+285.277+123.348+284.405C125.106+279.352+129.048+276.438+133.56+275.123C139.872+273.282+142.952+278.403+143.857+284.767C144.736+290.936+142.136+296.227+138.94+300.933C137.289+303.365+135.486+305.666+133.773+308.041C133.001+309.11+132.267+310.209+131.539+311.315C131.337+311.621+130.376+312.867+130.039+313.603C128.977+313.019+126.17+312.182+125.503+311.981C122.861+311.18+120.173+310.572+117.513+309.85C112.336+308.442+107.686+306.294+104.518+301.224C101.124+295.793+100.672+289.838+105.824+285.989Z" fill-opacity="0.409404" fill="var(--svg-fill, #ffffff)" opacity="1"/>
<path d="M66.0713+211.954C73.5764+211.85+74.8411+220.647+77.0312+226.123C77.54+227.395+79.4128+227.386+79.9305+226.127C80.8462+223.902+82.7112+216.48+85.7782+217.325C88.6518+218.116+91.2011+220.26+94.2233+220.501C95.7002+220.618+96.3751+219.162+95.6792+217.984C92.9699+213.398+90.2921+204.479+93.5621+199.714C94.2928+198.65+93.5333+196.976+92.1227+197.205C88.7692+197.751+85.1947+198.32+81.9828+196.902C79.6328+195.865+77.6852+193.708+75.7834+191.976C75.6315+191.725+75.4104+191.551+75.1548+191.45C74.4669+191.023+73.744+191.299+73.3147+191.848C73.0276+192.137+72.8469+192.544+72.8792+193.057C73.145+197.272+72.2809+201.032+69.6607+204.377C68.1865+206.26+66.2321+207.682+64.631+209.445C63.6164+210.564+64.8655+211.97+66.0713+211.954ZM73.2193+204.715C74.9239+202.174+75.7007+199.294+75.9207+196.33C77.5271+197.758+79.1977+199.104+81.1817+199.98C83.7678+201.121+86.7539+201.063+89.596+200.717C88.0608+205.512+89.3064+211.549+91.3693+216.361C88.7961+215.136+86.2555+213.336+83.4685+214.105C81.0812+214.765+79.5345+218.019+78.4086+220.994C76.4932+215.804+74.3766+210.717+69.1268+209.242C70.5888+207.833+72.0541+206.453+73.2193+204.715Z" fill-opacity="0.409404" fill="var(--svg-fill, #ffffff)" opacity="1"/>
<g opacity="1">
<path d="M333.956+283.485C332.424+282.545+330.04+282.883+328.366+283.003C326.374+283.145+326.764+282.129+327.011+280.5C327.392+277.985+329.913+278.192+331.906+278.054C334.755+277.856+334.31+273.455+331.47+273.652C330.813+273.697+330.163+273.738+329.532+273.797C329.386+273.084+329.298+272.361+329.223+271.616C328.94+268.777+324.539+269.213+324.822+272.052C324.922+273.052+325.061+274.042+325.28+275.015C324.497+275.538+323.829+276.284+323.328+277.371C322.316+279.561+321.73+283.394+323.256+285.491C325.008+287.901+328.031+287.428+330.623+287.293C333.06+287.165+333.62+289.481+333.928+291.39C334.094+292.422+334.049+293.543+333.734+294.541C332.879+297.248+329.284+294.028+329.883+291.987C330.687+289.248+326.316+288.537+325.522+291.236C324.328+295.306+327.374+298.417+330.969+299.643C331.058+300.547+331.148+301.452+331.238+302.357C331.519+305.196+335.92+304.76+335.639+301.921C335.551+301.028+335.462+300.136+335.374+299.244C337.172+298.001+338.219+295.497+338.393+293.357C338.705+289.501+337.301+285.536+333.956+283.485Z" fill-opacity="0.409404" fill="var(--svg-fill, #ffffff)" opacity="1"/>
<path d="M347.439+277.378C345.524+269.671+340.387+259.364+330.983+261.317C330.97+261.317+330.96+261.315+330.947+261.316C322.863+261.995+315.456+265.536+313.864+274.133C312.501+281.491+313.474+290.306+315.52+297.416C317.551+304.472+322.295+308.925+329.473+310.258C334.485+311.188+339.293+309.776+342.925+306.244C350.057+299.31+349.635+286.215+347.439+277.378ZM341.225+301.296C339.334+304.288+336.48+305.896+332.976+306.107C327.012+306.465+322.517+303.084+320.31+297.735C317.918+291.938+317.819+285.137+317.963+278.96C318.05+275.258+318.378+271.699+321.299+269.065C323.989+266.64+327.921+266.008+331.384+265.717C331.618+265.697+331.821+265.642+332.01+265.57C338.559+263.922+341.921+273.702+343.151+278.323C345.045+285.438+345.297+294.847+341.225+301.296Z" fill-opacity="0.409404" fill="var(--svg-fill, #ffffff)" opacity="1"/>
</g>
</g>
</svg>
