<svg data-name="Layer 1" xmlns="http://www.w3.org/2000/svg" width="802" height="590.9"><path fill="#e6e6e6" d="M465 219h337v10H465z"/><path fill="#e6e6e6" d="M493 136h85v86h-85z"/><path fill="#ccc" d="M510 153h51v51h-51z"/><path fill="#e6e6e6" d="M684 136h22v86h-22z"/><path fill="#ccc" d="M684 150h22v10h-22zM684 193h22v10h-22z"/><path fill="#e6e6e6" d="M651 136h22v86h-22z"/><path fill="#ccc" d="M651 150h22v10h-22zM651 193h22v10h-22z"/><path fill="#e6e6e6" d="M705 145l19-9 38 76-19 10z"/><path fill="#ccc" d="M711 157l19-9 5 9-20 9zM730 196l20-10 4 9-19 10z"/><path fill="#e6e6e6" d="M525 170l11 19 10 19h-43l11-19 11-19z"/><path fill="#e6e6e6" d="M544 174l10 19 11 19h-43l11-19 11-19z"/><circle cx="551.2" cy="162.2" r="6.3" fill="#e6e6e6"/><path fill="#e6e6e6" d="M802 93H465V83h337z"/><path fill="#e6e6e6" d="M774 86h-85V0h85z"/><path fill="#ccc" d="M757 69h-51V17h51z"/><path fill="#e6e6e6" d="M583 86h-22V0h22z"/><path fill="#ccc" d="M583 24h-22V14h22zM583 67h-22V57h22z"/><path fill="#e6e6e6" d="M616 86h-22V0h22z"/><path fill="#ccc" d="M616 24h-22V14h22zM616 67h-22V57h22z"/><path fill="#e6e6e6" d="M524 86l-19-9 38-77 19 10z"/><path fill="#ccc" d="M551 31l-19-10 5-9 19 10zM532 69l-19-9 4-9 20 9z"/><path fill="#e6e6e6" d="M742 35l-11 18-10 19h43l-11-19-11-18z"/><path fill="#e6e6e6" d="M723 38l-10 19-11 19h43l-11-19-11-19z"/><circle cx="715.7" cy="26.4" r="6.3" fill="#e6e6e6"/><path fill="#e6e6e6" d="M802 364H465v-9h337z"/><path fill="#e6e6e6" d="M774 357h-85v-85h85z"/><path fill="#ccc" d="M757 340h-51v-51h51z"/><path fill="#e6e6e6" d="M583 357h-22v-85h22z"/><path fill="#ccc" d="M583 295h-22v-10h22zM583 338h-22v-9h22z"/><path fill="#e6e6e6" d="M616 357h-22v-85h22z"/><path fill="#ccc" d="M616 295h-22v-10h22zM616 338h-22v-9h22z"/><path fill="#e6e6e6" d="M524 358l-19-10 38-77 19 10z"/><path fill="#ccc" d="M551 302l-19-10 5-8 19 9zM532 341l-19-10 4-9 20 10z"/><path fill="#e6e6e6" d="M742 306l-11 19-10 19h43l-11-19-11-19z"/><path fill="#e6e6e6" d="M723 310l-10 19-11 18h43l-11-18-11-19z"/><circle cx="715.7" cy="297.9" r="6.3" fill="#e6e6e6"/><ellipse cx="397.1" cy="562.7" rx="397.1" ry="28.2" fill="#e6e6e6"/><path d="M707 579c-64-12-135-10-209 0 33-29 63-58 29-86 66 13 75 12 149 0-18 28 14 57 31 86z" fill="#6c63ff"/><path d="M707 579c-64-12-135-10-209 0 33-29 63-58 29-86 66 13 75 12 149 0-18 28 14 57 31 86z" opacity=".2"/><path d="M692 566c-55-9-116-7-179 0 29-23 54-45 25-68 56 11 64 10 127 0-15 23 12 45 27 68z" fill="#6c63ff"/><circle cx="670.6" cy="500.2" r="29.3" fill="#2f2e41"/><path fill="#a0616a" d="M538 466l20 4 10 29-29 18-34-51h33z"/><circle cx="595.1" cy="464" r="47.4" fill="#a0616a"/><path d="M333 291s-115 13-135 11-29-5-29-5-14 18-7 26a49 49 0 0013 11s13-3 22 0 100 18 116 5 20-48 20-48z" fill="#2f2e41"/><path d="M341 543s-75-21-89-116v-9s-15 26-20 31c-6 7-28 62-27 68v8l-33-3v-11s18-52 19-64 43-99 43-99 16-33 43 0 29 55 29 55l35 68zM172 294l-36-13s-34-25-26 0 44 79 54 74 23-20 20-22-21-17-12-39z" fill="#2f2e41"/><path d="M176 505l-29 14s-35 5-15 16 74 21 76 11 2-25-1-25-22 3-31-16z" fill="#2f2e41"/><path d="M327 469s-15 63 10 76 198 16 212-9 7-25 7-25l-36-40 29-2s0-10-10-11-42-12-69-4-43-16-43-16z" fill="#575a89"/><path fill="#3f3d56" d="M307 271l-19 105 132-16 24-95-137 6z"/><path fill="#fff" d="M311 275l-15 94 120-14 23-86-128 6z"/><path fill="#b3b3b3" d="M293 377l-5-1-2 5 36 100 3-1 2-7-34-96z"/><path fill="#d0cde1" d="M288 375l36 105 137-21-41-99-132 15z"/><path fill="#3f3d56" d="M306 371v6l101-11-1-6-100 11zM309 383l15 44 103-13-18-41-100 10z"/><path d="M437 445l-3-9s-26-45-40-36 29 53 29 53h13zM351 452l-3-14s-9-42 7-39 20 41 20 41l-1 9z" fill="#a0616a"/><path d="M379 446s-30-5-31 2-7 109 21 112 169 18 154-17-37-30-37-30l-96 10zM467 459l-30-21-20 15 25 27 25-21z" fill="#575a89"/><path opacity=".2" d="M387 479l4 43 78-4-67-2-15-37z"/><circle cx="618.5" cy="472.6" r="56.4" fill="#2f2e41"/><path fill="#6c63ff" d="M328 308l70-3 7-25-72 2-5 26z"/><path fill="#e6e6e6" d="M310 322l106-3 1-4-106 3-1 4zM308 334l106-4 1-4-106 4-1 4zM307 343l106-4 1-4-106 4-1 4z"/></svg>