<?xml version="1.0" encoding="iso-8859-1"?>
<!-- Generator: Adobe Illustrator 19.0.0, SVG Export Plug-In . SVG Version: 6.00 Build 0)  -->
<svg version="1.1" id="Layer_1" xmlns="http://www.w3.org/2000/svg" xmlns:xlink="http://www.w3.org/1999/xlink" x="0px" y="0px"
	 viewBox="0 0 511.999 511.999" style="enable-background:new 0 0 511.999 511.999;" xml:space="preserve">
<path style="fill:#43B05C;" d="M382.616,46.807c51.637,0,93.586,41.949,93.586,93.586c0,38.315-23.121,71.345-56.151,85.659
	c-11.451,5.175-24.112,7.927-37.435,7.927c-44.261,0-81.475-30.828-91.054-72.227c-1.651-6.826-2.532-13.983-2.532-21.359
	c0-42.058,27.745-77.621,66.061-89.512C363.788,48.239,373.037,46.807,382.616,46.807z"/>
<path style="fill:#FFD248;" d="M421.151,278.021v225.707H35.797V278.021h132.121c0,23.562,13.433,43.821,33.031,53.84v116.817H256
	V331.859c19.598-10.019,33.031-30.278,33.031-53.84h132.12V278.021z"/>
<path style="fill:#E7ECED;" d="M289.03,278.021c0,23.562-13.433,43.821-33.031,53.84v116.817h-55.051V331.859
	c-19.598-10.019-33.031-30.278-33.031-53.84c0-33.471,27.085-60.555,60.555-60.555S289.03,244.549,289.03,278.021z"/>
<path style="fill:#546A79;" d="M421.151,228.475v49.546H289.03c0-33.471-27.085-60.555-60.555-60.555s-60.555,27.085-60.555,60.555
	H35.797V162.413h253.233l2.532-0.661c9.579,41.399,46.793,72.227,91.054,72.227c13.322,0,25.984-2.753,37.435-7.927L421.151,228.475
	z"/>
<rect x="206.457" y="269.744" width="44.04" height="16.544"/>
<polygon points="82.605,209.221 118.373,209.221 118.373,192.677 66.061,192.677 66.061,239.484 82.605,239.484 "/>
<polygon points="374.345,456.92 338.575,456.92 338.575,473.464 390.889,473.464 390.889,426.656 374.345,426.656 "/>
<path d="M484.474,140.393c0-56.165-45.693-101.858-101.858-101.858c-6.487,0-12.93,0.611-19.254,1.811V19.281
	C363.362,8.649,354.711,0,344.08,0H112.867c-10.632,0-19.281,8.65-19.281,19.281v134.86h-66.06v357.857h401.899V230.75
	C463.072,213.443,484.474,178.684,484.474,140.393z M110.129,19.281c0-1.485,1.254-2.737,2.737-2.737H344.08
	c1.485,0,2.737,1.254,2.737,2.737v25.716c-18.223,6.862-33.952,18.641-45.744,34.363c-13.291,17.721-20.317,38.827-20.317,61.032
	c0,4.618,0.329,9.219,0.957,13.748H110.129V19.281z M285.434,170.685c5.96,19.19,17.652,36.448,33.467,49.153
	c17.99,14.453,40.617,22.413,63.715,22.413c10.478,0,20.614-1.554,30.262-4.616v32.113H296.786
	c-4.101-34.063-33.162-60.555-68.313-60.555s-64.212,26.492-68.313,60.555H44.069v-99.062h241.365V170.685z M204.715,324.494
	c-17.594-8.994-28.524-26.802-28.524-46.473c0-28.83,23.455-52.283,52.283-52.283s52.283,23.455,52.283,52.283
	c0,19.671-10.929,37.479-28.523,46.474l-4.507,2.304v113.606h-38.507V326.798L204.715,324.494z M44.069,495.456V286.293h116.078
	c2.504,20.874,14.395,39.398,32.53,50.416v120.241h71.595V336.709c18.133-11.018,30.025-29.542,32.529-50.416h116.078v209.163
	H44.069z M416.761,218.462l-0.117,0.052c-10.562,4.773-22.01,7.193-34.028,7.193c-19.343,0-38.291-6.664-53.352-18.765
	c-14.858-11.936-25.385-28.648-29.662-47.134c-1.526-6.311-2.301-12.843-2.301-19.415c0-37.625,24.197-70.417,60.219-81.605
	c8.111-2.461,16.554-3.709,25.096-3.709c47.041,0,85.314,38.272,85.314,85.314C467.93,174.349,447.845,204.992,416.761,218.462z"/>
<rect x="374.346" y="74.338" width="16.544" height="93.584"/>
<rect x="374.346" y="184.432" width="16.544" height="22.02"/>
<g>
</g>
<g>
</g>
<g>
</g>
<g>
</g>
<g>
</g>
<g>
</g>
<g>
</g>
<g>
</g>
<g>
</g>
<g>
</g>
<g>
</g>
<g>
</g>
<g>
</g>
<g>
</g>
<g>
</g>
</svg>
