<?xml version="1.0" encoding="UTF-8" standalone="no"?> <!-- Created with Vectornator for iOS (http://vectornator.io/) --><!DOCTYPE svg PUBLIC "-//W3C//DTD SVG 1.1//EN" "http://www.w3.org/Graphics/SVG/1.1/DTD/svg11.dtd">
<svg height="100%" style="fill-rule:nonzero;clip-rule:evenodd;stroke-linecap:round;stroke-linejoin:round;" xmlns:xlink="http://www.w3.org/1999/xlink" xmlns="http://www.w3.org/2000/svg" xml:space="preserve" width="100%" xmlns:vectornator="http://vectornator.io" version="1.1" viewBox="0 0 2160 1620">
<metadata>
<vectornator:setting key="DimensionsVisible" value="1"/>
<vectornator:setting key="PencilOnly" value="0"/>
<vectornator:setting key="SnapToPoints" value="0"/>
<vectornator:setting key="OutlineMode" value="0"/>
<vectornator:setting key="CMYKEnabledKey" value="0"/>
<vectornator:setting key="RulersVisible" value="1"/>
<vectornator:setting key="SnapToEdges" value="0"/>
<vectornator:setting key="GuidesVisible" value="1"/>
<vectornator:setting key="DisplayWhiteBackground" value="0"/>
<vectornator:setting key="doHistoryDisabled" value="0"/>
<vectornator:setting key="SnapToGuides" value="1"/>
<vectornator:setting key="TimeLapseWatermarkDisabled" value="0"/>
<vectornator:setting key="Units" value="Pixels"/>
<vectornator:setting key="SnapToGrid" value="0"/>
<vectornator:setting key="DynamicGuides" value="0"/>
<vectornator:setting key="IsolateActiveLayer" value="0"/>
</metadata>
<defs/>
<g id="Background" vectornator:layerName="Background">
<path d="M887.828+177.893C825.278+352.685+565.249+478.225+491.207+689.885C390.952+976.478+705.904+743.507+718.609+854.414C729.425+948.837+664.999+1040.15+680.573+1131.78C689.417+1183.82+767.771+1198.54+756.581+1251.41C754.129+1262.99+629.174+1435.53+645.338+1442.75C745.929+1487.62+1120.11+1061.4+1271.83+1046.25C1455.18+1027.95+1252.76+1388.97+1365.02+1420.98C1418.89+1436.34+1524.93+1279.61+1545.38+1237.84C1622.66+1080.02+1594.26+919.173+1625.98+770.833C1639.34+708.305+1697.59+643.73+1703.62+582.297C1718+435.942+1367.01+638.634+1361.35+631.744C1308.79+567.741+1765.52+203.704+1738.76+133.821C1681.44-15.8475+1413.52+277.127+1386.25+311.318C1335.35+375.131+1244.1+543.936+1144.49+541.459C996.126+537.77+1183.86+337.659+1156.88+267.203C1139.41+221.608+1062.5+218.777+1031.17+190.095C1026.44+185.763+1088.03+131.234+1082.86+117.739C1072.11+89.6681+1019.72+96.089+1001.89+110.725C994.359+116.911+985.685+137.994+976.058+139.63C948.489+144.316+911.463+111.847+887.828+177.893Z" opacity="1" fill="#343e3c"/>
<path d="M599.585+1034.19C616.741+995.741+706.935+907.118+726.66+887.116C854.883+757.092+689.7+1063.8+648.95+1014.17" opacity="1" fill="#4d6762"/>
<path d="M1410.68+729.812C1410.94+730.009+1422.86+689.108+1428.7+677.641C1443.4+648.746+1520.74+530.644+1570.49+552.278C1590.56+561.006+1387.56+712.094+1410.68+729.812Z" opacity="1" fill="#4d6762"/>
<path d="M1548.41+893.35C1550+881.543+1603.39+783.221+1644.61+801.15C1669.21+811.844+1546.33+908.835+1548.41+893.35Z" opacity="1" fill="#4d6762"/>
<path d="M1630.33+593.884C1631.44+581.336+1681.64+524.244+1694.1+529.663C1696.23+530.587+1663.5+576.187+1662.13+578.1C1580.69+691.853+1446.93+758.594+1363.32+867.406C1359.77+872.018+1318.82+911.634+1316.76+906.383C1304.94+876.387+1426.86+767.804+1453.82+752.468C1457.57+750.338+1462.37+744.788+1462.66+750.075" opacity="1" fill="#4d6762"/>
<path d="M857.927+1147.92C919.578+1006.15+1073.81+813.03+1203.59+729.37C1208.32+726.319+1224.42+714.834+1231.23+719.57C1243.48+728.089+1138.1+867.043+1120.43+873.999" opacity="1" fill="#4d6762"/>
<path d="M722.78+763.413C763.114+670.664+969.406+459.477+1069.46+435.701C1071.53+435.208+1074.26+433.935+1075.84+435.359C1097.33+454.66+969.36+572.705+961.287+591.27" opacity="1" fill="#4d6762"/>
<path d="M1429.74+374.18C1416.52+374.888+1524.56+234.621+1544.36+243.23C1575.57+256.805+1479.83+362.945+1493.4+331.729" opacity="1" fill="#4d6762"/>
<path d="M1482.73+1280.92C1404.28+1285.12+1680+1017.24+1633.71+1123.7" opacity="1" fill="#4d6762"/>
<path d="M592.169+691.029L587.837+693.821L568.232+710.232L563.331+714.335L557.119+717.868L551.648+723.281L537.685+737.47L531.644+744.194L524.292+750.348L515.059+757.243L508.277+762.087L501.495+766.93L492.833+772.514L487.361+777.928L481.89+783.341L475.849+790.065L471.688+796.049L466.787+800.152L462.627+806.135L457.725+810.238L454.705+813.6L451.114+818.273L449.404+822.205L447.694+826.137L444.104+830.81L442.394+834.742L441.254+837.363L440.114+839.984L444.046+841.694L446.667+842.834L449.859+842.663L452.48+843.803L456.811+841.011L462.453+838.789L467.355+834.686L474.136+829.843L488.84+817.535L494.881+810.81L502.233+804.656L509.015+799.813L512.606+795.14L518.077+789.727L522.978+785.624L528.45+780.21L534.491+773.486L539.962+768.073L542.983+764.711L546.573+760.038L549.024+757.987L550.164+755.365L551.874+751.433L553.014+748.812L554.154+746.19L555.864+742.258L559.454+737.586L562.475+734.224L566.806+731.432L570.397+726.759L573.417+723.397L576.438+720.035L578.148+716.103L581.168+712.741L583.448+707.498L585.158+703.566L586.298+700.944L588.008+697.012L589.148+694.391L589.148+694.391" opacity="1" fill="#4d6762"/>
</g>
<g id="Layer 1" vectornator:layerName="Layer 1">
<path stroke="#217145" stroke-width="4.05645" d="M1376.24+239.036C1343.73+243.884+1454.62+261.743+1457.8+294.46C1461.46+332.093+1450.19+361.791+1428.43+391.177C1376.78+460.934+1492.76+338.394+1521.84+423.892C1528.71+444.065+1500.65+481.197+1520.9+487.812C1578.93+506.759+1658.88+255.157+1664.51+237.932C1674.84+206.296+1764.14+154.227+1732.64+164.945C1691.5+178.937+1627.81+27.5275+1647.48+66.2681C1666.93+104.579+1536.7+140.833+1510.73+132.353C1491.47+126.062+1489.38+102.355+1489.25+103.191C1481.87+151.883+1327.83+181.149+1374.64+196.436" fill="#09f475" stroke-linecap="round" opacity="1" stroke-linejoin="round"/>
<path stroke="#000000" stroke-width="9.07554" d="M1657.6+82.0494C1643.63+81.9548+1629.61+82.412+1615.75+84.2681C1607.16+85.4183+1598.57+87.1009+1590.38+89.9869C1585.04+91.8673+1579.79+94.2785+1575.28+97.7369C1571.41+100.71+1568.14+104.508+1566.32+109.081C1565.82+110.314+1565.43+111.595+1565.16+112.893C1565.06+113.34+1564.97+113.785+1564.91+114.237C1564.86+114.606+1564.96+115.02+1564.82+115.362C1564.64+115.773+1564.25+116.07+1563.97+116.424C1563.66+116.825+1563.37+117.208+1563.07+117.612C1561.88+119.172+1560.7+120.758+1559.53+122.331C1556.35+126.626+1553.24+130.948+1550.22+135.362C1543.6+145.041+1537.18+155.106+1532.66+165.956C1530.17+171.928+1527.99+178.582+1528.63+185.143C1529.2+191.076+1532.57+195.966+1536.5+200.268C1538.7+202.67+1540.86+204.778+1543.28+206.987C1544.95+208.504+1546.65+210.01+1548.38+211.456C1550.25+213.022+1552.16+214.56+1554.1+216.049C1555.94+217.472+1557.82+218.824+1559.72+220.174C1566.26+224.816+1573.29+229.122+1580.97+231.581C1587.17+233.563+1593.67+234.394+1600.13+234.924C1608.34+235.598+1616.58+235.789+1624.82+236.049C1640.22+236.537+1655.93+237.072+1670.94+240.924C1671.66+241.11+1672.35+241.408+1673.07+241.612C1674.59+245.063+1675.86+248.628+1676.69+252.299C1677.2+254.548+1677.7+256.796+1677.6+259.112C1677.33+265.139+1673.97+270.563+1670.07+274.956C1662.93+282.982+1653.3+289.02+1643.94+294.112C1629.71+301.86+1614.56+307.906+1599.25+313.174C1582.57+318.918+1565.52+323.713+1548.28+327.487C1539.39+329.434+1530.4+331.11+1521.35+332.143C1514.59+327.635+1509.32+325.111+1508.32+326.362C1505.83+327.975+1502.3+330.102+1504.25+333.518C1504.67+334.246+1505.06+334.996+1505.6+335.643C1507.2+337.582+1508.8+339.545+1510.63+341.268C1514.6+345.01+1518.69+348.633+1522.97+352.018C1526.56+354.858+1530.4+357.399+1534.22+359.924C1535.89+361.03+1537.67+361.945+1539.44+362.893C1541.31+363.897+1543.35+364.694+1545.44+365.112C1549.63+365.951+1554.13+365.571+1558.35+365.174C1566.1+364.446+1573.81+363.078+1581.44+361.549C1591.75+359.484+1601.96+356.981+1612.1+354.174C1625.3+350.516+1638.38+346.352+1651.19+341.487C1661.15+337.705+1670.97+333.507+1680.44+328.612C1690.17+323.582+1699.89+317.82+1707.82+310.174C1712.12+306.018+1716.05+301.058+1717.78+295.237C1719.55+289.33+1718.15+283.367+1716.41+277.612C1714.83+272.385+1712.6+267.377+1709.72+262.737C1704.33+254.053+1696.9+246.704+1689.25+240.018C1683.09+234.63+1676.62+229.621+1669.85+225.018C1662.89+220.293+1655.57+216.024+1647.78+212.831C1637.19+208.485+1625.88+206.214+1614.53+204.956C1600.32+203.38+1586.02+203.36+1571.75+202.737C1573.13+198.533+1574.96+194.461+1576.94+190.581C1582.21+180.258+1588.71+170.531+1595.44+161.112C1597.89+157.677+1600.4+154.295+1602.94+150.924C1603.54+150.126+1604.15+149.317+1604.75+148.518C1605.09+148.067+1605.53+147.694+1605.75+147.174C1605.96+146.697+1605.89+146.155+1605.97+145.643C1606.17+144.414+1606.45+143.2+1606.85+142.018C1608.02+138.479+1610.14+135.315+1612.78+132.706C1616.87+128.676+1622.07+125.895+1627.35+123.768C1635.62+120.438+1644.46+118.605+1653.25+117.331C1667.53+115.262+1682.03+114.764+1696.44+114.862C1716.83+115.001+1737.16+116.534+1757.44+118.518C1758.92+116.798+1751.56+108.072+1741+99.0181C1730.45+89.9638+1720.7+84.0169+1719.22+85.7369C1698.74+83.7345+1678.19+82.1887+1657.6+82.0494Z" fill="#ffffff" stroke-linecap="round" opacity="1" stroke-linejoin="round"/>
<path stroke="#000000" stroke-width="4.05645" d="M1490.41+64.7994C1489.87+64.8884+1489.33+65.7509+1489.07+66.1119C1488.47+66.9314+1488.02+67.8538+1487.66+68.7994C1486.06+73.0171+1486.47+77.6577+1485.85+82.0494C1485.46+84.7648+1484.79+87.46+1484.22+90.1431C1484.19+90.3091+1484.16+90.4772+1484.13+90.6431C1479.96+90.0024+1475.77+89.5677+1471.57+89.5806C1464.17+89.6033+1456.75+90.6635+1449.57+92.3619C1434.32+95.9658+1419.5+103.156+1408.38+114.362C1400.23+122.571+1392.93+133.758+1392.5+145.643C1392.23+153.248+1394.57+160.93+1398.78+167.237C1402.59+172.937+1407.68+177.734+1412.91+182.112C1425.09+192.308+1439.1+200.558+1454.19+205.612C1458.86+207.175+1463.66+208.295+1468.5+209.174C1466.44+229.639+1464.46+250.117+1462.38+270.581C1461.62+278.069+1460.74+285.545+1459.85+293.018C1459.57+292.943+1459.27+292.905+1459+292.831C1455.72+291.931+1452.4+291.148+1449.16+290.112C1446.39+289.224+1443.7+288.109+1441.1+286.799C1435.04+283.751+1429.54+279.719+1424.03+275.799C1419.39+272.492+1414.7+269.277+1409.88+266.237C1409.59+266.46+1410.45+268.089+1411.82+269.862C1413.18+271.635+1414.53+272.897+1414.82+272.674C1426.33+279.93+1436.83+288.778+1449.03+294.924C1452.24+296.538+1455.55+297.955+1458.97+299.049C1459.03+299.069+1459.1+299.092+1459.16+299.112C1458.12+307.721+1457.05+316.326+1456.22+324.956C1455.74+329.951+1455.33+334.95+1454.97+339.956C1454.81+342.246+1454.61+344.534+1454.57+346.831C1454.38+355.527+1455.75+364.173+1456.35+372.831C1455.96+373.345+1458.22+375.681+1461.38+378.049C1464.53+380.418+1467.4+381.908+1467.78+381.393C1467.19+372.761+1465.82+364.158+1466+355.487C1466.06+352.702+1466.33+349.92+1466.53+347.143C1466.89+342.143+1467.33+337.132+1467.82+332.143C1468.77+322.197+1469.99+312.281+1471.19+302.362C1477.02+303.915+1483.02+305.294+1489.07+304.674C1495.46+304.019+1500.7+300.201+1505.28+295.924C1506.75+294.561+1508.24+293.184+1509.41+291.549C1511.41+288.752+1512.53+285.487+1513.82+282.331C1514.77+279.985+1515.87+277.677+1516.82+275.331C1518.08+272.21+1519.2+269.06+1520.25+265.862C1522.49+259.051+1524.27+252.108+1526.6+245.331C1527.29+243.326+1527.96+241.313+1528.41+239.237C1528.95+236.737+1529.2+234.16+1529.66+231.643C1530.48+227.2+1531.48+222.166+1529.25+217.956C1528.1+215.774+1526.26+213.922+1524.44+212.299C1523.42+211.387+1522.37+210.483+1521.28+209.643C1518.87+207.774+1516.27+206.076+1513.44+204.893C1509.19+203.113+1504.54+202.871+1500.03+202.206C1498.18+201.932+1496.35+201.489+1494.5+201.206C1492.02+200.826+1489.52+200.648+1487+200.674C1485.27+200.692+1483.54+200.875+1481.82+201.018C1482.95+190.061+1484.02+179.091+1485.25+168.143C1486.45+157.497+1487.73+146.856+1489.16+136.237C1489.94+130.38+1490.72+124.53+1491.72+118.706C1492.8+112.406+1494.16+106.149+1495.47+99.8931C1496.28+100.027+1497.08+100.143+1497.88+100.299C1500.26+101.879+1502.32+102.963+1502.63+102.549C1502.55+102.142+1502.46+101.737+1502.38+101.331C1516.36+104.803+1529.41+111.22+1542.38+117.331C1542.75+116.951+1541.18+114.771+1538.85+112.456C1536.51+110.14+1534.32+108.576+1533.94+108.956C1523.15+103.875+1512.31+98.5614+1500.97+94.7681C1500.95+94.644+1500.93+94.5173+1500.91+94.3931C1500.51+92.4015+1500.14+90.3359+1500.1+88.2994C1500.07+87.1364+1500.24+85.977+1500.41+84.8306C1500.81+82.1243+1501.42+79.4396+1501.85+76.7369C1501.97+75.9339+1502.34+74.3275+1501.91+73.5494C1501.74+73.2492+1501.6+72.9006+1501.35+72.6744C1498.63+70.2998+1495.93+67.9512+1493.03+65.7994C1492.37+65.3039+1491.53+65.0914+1490.75+64.7994C1490.65+64.7606+1490.52+64.7816+1490.41+64.7994ZM1482.41+98.7056C1482.43+98.7056+1482.45+98.7057+1482.47+98.7056C1482.07+100.685+1481.63+102.657+1481.25+104.643C1479.27+115.052+1477.91+125.602+1476.6+136.112C1473.87+157.831+1471.54+179.588+1469.32+201.362C1464.28+201.171+1459.26+200.593+1454.35+199.487C1445.35+197.46+1436.63+194.179+1428.5+189.831C1422.55+186.645+1416.54+182.876+1412.1+177.706C1409.57+174.762+1407.58+171.434+1406.22+167.799C1405.15+164.94+1404.44+161.93+1404.13+158.893C1403.22+150.164+1406.14+141.835+1410.75+134.518C1416.91+124.747+1425.74+116.956+1435.69+111.206C1444.17+106.302+1453.47+102.965+1463.03+100.924C1469.38+99.5703+1475.91+98.7256+1482.41+98.7056ZM1497.82+209.831C1501.18+209.795+1504.48+210.179+1507.78+210.831C1511.45+211.554+1515.18+211.819+1518.85+212.518C1518.86+212.52+1518.87+212.516+1518.88+212.518C1519.41+215.041+1519.08+217.836+1518.69+220.268C1518.36+222.294+1517.94+224.302+1517.63+226.331C1517.42+227.709+1517.26+229.09+1516.97+230.456C1516.53+232.513+1515.87+234.5+1515.19+236.487C1512.86+243.267+1511.08+250.205+1508.85+257.018C1507.8+260.207+1506.67+263.375+1505.41+266.487C1504.46+268.834+1503.36+271.142+1502.41+273.487C1501.29+276.238+1500.29+279.043+1498.72+281.581C1497.15+284.123+1494.88+286.177+1492.66+288.143C1489.05+291.341+1484.89+294.323+1480.07+295.268C1477.39+295.792+1474.68+295.741+1471.97+295.487C1472.53+290.77+1473.1+286.055+1473.6+281.331C1476.07+257.729+1478.41+234.125+1480.82+210.518C1482.82+210.58+1484.83+210.699+1486.85+210.581C1490.5+210.366+1494.15+209.869+1497.82+209.831Z" fill="#ffffff" stroke-linecap="round" opacity="1" stroke-linejoin="round"/>
</g>
<g id="Badan" vectornator:layerName="Badan">
<path d="M1092.37+208.325C1092.37+208.325+1108.25+174.474+1107.05+163.977C1105.85+153.48+1105.3+154.395+1107.75+149.607C1110.19+144.819+1098.25+131.359+1099.07+126.964C1099.89+122.569+1092.51+104.754+1090.29+103.879C1088.07+103.005+1090.76+102.728+1069.53+98.803C1048.29+94.8775+1037.71+92.3007+1021.66+98.6235C1005.62+104.946+1002.79+108.006+997.291+113.307C991.79+118.607+999.57+126.37+983.602+132.12C967.633+137.869+969.997+137.105+967.159+139.347C964.322+141.589+963.144+152.893+965.687+153.436C968.229+153.979+983.218+162.477+984.881+164.749C986.544+167.02+993.657+173.646+999.05+180.047C1004.44+186.448+1013.27+193.136+1013.27+193.136" opacity="1" fill="#3b404b"/>
<g opacity="1">
<path d="M963.388+162.591C954.403+185.904+956.327+193.312+946.084+205.31C935.841+217.308+942.545+219.735+948.682+223.598C954.819+227.46+956.576+227.345+960.872+226.695C965.169+226.045+978.388+224.662+979.855+222.359C981.322+220.057+968.322+166.565+970.15+164.166C971.978+161.766+971.428+155.625+970.226+156.366" opacity="1" fill="#996348"/>
<path d="M978.623+152.499C978.623+152.499+1005.63+120.866+1017.6+121.216C1029.57+121.566+1082.28+121.842+1090.14+127.568C1097.99+133.295+1100.78+133.59+1102.36+135.62C1103.94+137.651+1101.81+109.806+1092.85+100.896C1083.89+91.9854+1066.17+56.2107+1040.03+57.0947C1013.9+57.9787+1000.26+69.2885+990.3+79.653C980.341+90.0175+977.797+89.8018+971.07+103.161C964.343+116.52+963.64+119.397+961.784+128.764C959.928+138.13+960.654+150.991+960.948+155.004C961.241+159.017+961.424+160.655+964.132+160.868" opacity="1" fill="#996348"/>
</g>
<path d="M1012.21+188.271C1012.21+188.271+1036.69+186.319+1058.52+185.708C1080.35+185.097+1078.52+193.025+1083.22+199.365C1087.92+205.705+1096.16+206.351+1091.62+214.842C1087.09+223.333+1046.85+204.808+1025.56+213.977C1004.28+223.145+992.642+212.171+989.249+220.198C985.855+228.226+973.095+211.855+973.095+211.855C973.095+211.855+972.234+204.489+971.606+188.517C970.978+172.544+966.51+157.597+966.51+157.597C976.185+148.674+975.805+146.815+980.123+157.81C984.441+168.804+989.297+162.503+989.297+162.503" opacity="1" fill="#b7a1a3"/>
<path d="M1367.57+162.789L1352.15+122.036C1352.15+122.036+1334.71+96.2976+1332.33+85.9841C1329.94+75.6707+1332.41+63.7124+1331.52+53.708C1330.63+43.7036+1322.77+27.4273+1318.82+17.882C1314.87+8.33678+1335.43+4.63851+1306.25+7.80184C1277.07+10.9652+1265.55+15.4406+1265.55+15.4406C1254.51+19.0809+1248.57+20.6589+1252.34+40.1417C1256.1+59.6245+1246.62+45.1937+1247.66+59.7493C1248.7+74.3049+1264.69+74.6482+1275.72+81.6051C1286.75+88.562+1290.49+84.036+1294.4+108.07C1298.32+132.104+1305.55+134.067+1310.02+156.189C1314.48+178.31+1312.49+172.131+1312.49+172.131" opacity="1" fill="#b7a1a3"/>
<path d="M1313+172.321C1313+172.321+1321.68+217.513+1313.21+236.876C1304.75+256.24+1349.07+298.476+1350.51+320.229C1351.95+341.981+1368.22+330.559+1377.11+331.788C1386+333.017+1394.31+313.9+1403.81+307.136C1413.32+300.372+1400.16+289.39+1405.88+284.338C1411.6+279.286+1395.26+260.32+1402.04+248.63C1408.82+236.939+1389.64+221.906+1389.89+210.891C1390.14+199.877+1381.97+195.692+1382.35+182.523C1382.74+169.354+1380.26+164.009+1380.26+164.009C1380.26+164.009+1334.78+151.021+1326.99+161.568" opacity="1" fill="#524c58"/>
<path d="M1541.41+762.505L1538.79+761.365L1534.12+757.774L1535.03+762.846L1537.08+765.297L1537.08+765.297" opacity="1" fill="#c2c6c7"/>
<path d="M1188.56+573.136C1188.56+573.136+1014.22+755.854+965.631+730.711C917.04+705.568+1006.46+893.067+1008.28+956.917C1010.1+1020.77+1014.58+1032.73+1014.58+1032.73C1014.58+1032.73+1013.27+1030.42+1009.34+1069.29C1005.4+1108.15+1027.21+1092.75+1034.58+1125.97C1041.95+1159.2+1057.32+1158.58+1060.55+1195.96C1063.77+1233.35+1069.48+1209.98+1068.93+1246.89C1068.28+1290.08+1079.89+1263.01+1053.46+1298.46C1027.03+1333.91+1117.92+1366.14+1117.92+1366.14C1117.92+1366.14+1146.28+1315.86+1166.27+1331.34C1186.25+1346.81+1166.27+1224.97+1190.76+1204.34C1215.26+1183.72+1164.98+1180.49+1172.71+1129.57C1180.45+1078.64+1190.76+1076.06+1186.89+1041.26C1183.03+1006.45+1172.07+967.768+1190.76+946.496C1209.46+925.223+1265.54+1016.11+1282.3+1014.18C1299.06+1012.25+1314.53+1013.54+1313.88+1025.14C1313.24+1036.74+1308.08+1070.26+1295.19+1084.44C1282.3+1098.63+1272.63+1077.35+1271.34+1099.27C1270.05+1121.19+1286.17+1133.44+1275.21+1135.37C1264.25+1137.3+1261.02+1114.1+1247.49+1127.63C1233.95+1141.17+1232.66+1156+1241.04+1170.82C1249.42+1185.65+1250.07+1193.39+1245.55+1204.34C1241.04+1215.3+1231.37+1232.06+1231.37+1232.06C1231.37+1232.06+1284.88+1238.51+1290.68+1255.27C1296.48+1272.03+1299.06+1241.09+1308.73+1234.64C1318.4+1228.2+1329.35+1222.39+1344.18+1228.84C1359.01+1235.29+1406.71+1146.33+1424.76+1139.24C1442.81+1132.15+1431.85+1096.05+1441.52+1068.97C1451.19+1041.9+1447.32+1041.9+1447.97+1029.01C1448.61+1016.11+1435.72+1010.31+1446.68+994.198C1457.63+978.082+1439.59+976.148+1443.45+955.52C1447.32+934.893+1468.59+932.959+1458.28+921.356C1447.97+909.752+1443.45+927.157+1425.4+912.331C1407.35+897.505+1391.24+878.166+1393.17+865.918C1395.11+853.67+1387.37+879.455+1371.26+845.935C1355.14+812.414+1328.07+805.324+1332.58+786.63C1337.09+767.935+1345.47+776.96+1306.79+756.332C1268.12+735.704+1284.23+736.994+1249.42+697.672C1214.61+658.35+1198.5+664.796+1201.72+630.631C1204.94+596.466+1204.68+586.079+1202.51+574.662" opacity="1" fill="#292d30"/>
<path d="M1233.66+1226.36C1301.58+1242.28+1286.73+1262.44+1286.73+1262.44C1316.44+1248.65+1315.38+1270.93+1315.38+1270.93C1315.38+1270.93+1321.04+1245.34+1342.97+1253.95C1372.69+1265.63+1321.75+1286.85+1321.75+1302.77C1321.75+1318.69+1329.18+1281.55+1323.87+1342.04C1318.56+1402.53+1322.81+1411.02+1329.18+1440.74C1335.54+1470.46+1294.15+1397.23+1279.3+1370.69C1264.44+1344.16+1268.68+1367.51+1238.97+1312.32C1209.25+1257.14+1205.01+1253.95+1186.96+1247.58C1168.92+1241.22+1190.15+1219.99+1208.19+1223.17" opacity="1" fill="#32312f"/>
<path d="M1160.6+1258.35C1160.6+1258.35+1168.51+1259.49+1178.41+1262.07C1188.3+1264.65+1188.3+1269.3+1191.85+1276.79C1195.39+1284.28+1231.93+1328.11+1236.65+1336.55C1241.37+1345+1274.49+1375.42+1281.27+1389.12C1288.05+1402.82+1300.08+1423.74+1310.17+1442.8C1320.26+1461.86+1330.3+1467.41+1330.3+1467.41C1330.3+1467.41+1329.35+1454.66+1322+1437.96C1314.65+1421.26+1309.47+1417.84+1301.06+1408.21C1292.65+1398.59+1292.83+1382.57+1274.1+1361.04C1255.37+1339.51+1255.65+1355.15+1242.09+1323.12C1228.53+1291.08+1219.78+1280.58+1204.66+1256.43C1189.55+1232.27+1171.67+1243.31+1171.67+1243.31" opacity="1" fill="#d9e0e6"/>
<path d="M1320.19+1476.62C1320.19+1476.62+1331.83+1473.88+1329.47+1467.33C1327.11+1460.79+1287.59+1403.2+1283.55+1396.5C1279.52+1389.81+1265.48+1366.43+1265.48+1366.43L1235.65+1332.53L1206.13+1295.31L1368.5+1475.27C1368.5+1475.27+1194.16+1281.87+1192.71+1277.59C1191.27+1273.31+1191.89+1271.94+1184.88+1265.47C1177.87+1259+1170.81+1257.98+1164.72+1258.1C1158.62+1258.21+1143.83+1265.74+1148.08+1281.59C1152.32+1297.44+1151.89+1316.47+1171.99+1328.08C1192.09+1339.68+1213.01+1356.94+1221.54+1375.3C1230.07+1393.65+1221.68+1386.56+1240.68+1416.13C1259.68+1445.7+1285.51+1468.03+1298.35+1475.54C1311.2+1483.05+1313.5+1476.3+1320.19+1476.62Z" opacity="1" fill="#695330"/>
<path d="M1326.68+1250.84L1352.71+1247.44" opacity="1" fill="#b1a17c"/>
<path d="M1327.75+1252.83L1348.62+1247.01L1357.8+1259.51" opacity="1" fill="#b1a17c"/>
<path d="M1114.97+1363.19L1151.09+1311.62C1151.09+1311.62+1153.01+1314.24+1165.88+1325.7C1178.76+1337.16+1181.91+1346.92+1198.08+1351.92C1214.25+1356.93+1169.33+1339.67+1162.3+1364.58C1155.27+1389.49+1148.88+1416.35+1142.17+1442.23C1135.45+1468.12+1134.82+1445.83+1133.72+1459.88C1132.63+1473.92+1123.76+1412.23+1125.88+1403.91C1127.99+1395.59+1113.53+1364.41+1114.97+1363.19Z" opacity="1" fill="#32312f"/>
<path d="M1131.19+1473.28C1131.19+1473.28+1153.79+1411.92+1157.77+1377.31C1161.76+1342.71+1199.77+1347.14+1206.31+1355.36C1212.85+1363.59+1215.02+1363.46+1215.02+1363.46C1215.02+1363.46+1209.7+1358.91+1198.94+1358.22C1188.18+1357.54+1191.89+1358.41+1182.08+1359.81C1172.27+1361.2+1168.97+1405.76+1162.39+1408.33C1155.8+1410.9+1150.98+1449.18+1147.99+1461.64C1144.99+1474.11+1144.02+1479.83+1139.32+1494.19C1134.62+1508.54+1135.57+1513.9+1133.81+1516.35C1132.05+1518.8+1132.04+1508.09+1131.78+1499.79" opacity="1" fill="#d9e0e6"/>
<path d="M1131.62+1515.74C1131.62+1515.74+1135+1561.68+1151.14+1574.44C1167.28+1587.2+1168.16+1600.58+1187.16+1587.01C1206.15+1573.43+1204.05+1571.51+1211.51+1553.52C1218.98+1535.53+1218.24+1520.62+1218.34+1513.52C1218.44+1506.43+1215.16+1504.49+1212.47+1484.94C1209.79+1465.39+1210.61+1449.43+1217.18+1436.28C1223.75+1423.12+1226.57+1407.08+1226.14+1395.84C1225.71+1384.59+1218.29+1364.98+1218.29+1364.98C1218.29+1364.98+1225.7+1359.64+1204.66+1358.63C1183.63+1357.63+1177.27+1355.41+1174.02+1368.14C1170.76+1380.87+1166.65+1403.99+1161.7+1411.37C1156.75+1418.75+1157.87+1406.47+1153.68+1435.51" opacity="1" fill="#695330"/>
<path d="M726.413+281.572C726.413+281.572+717.298+302.039+718.145+326.093C718.992+350.147+718.652+358.534+715.436+371.325C712.22+384.116+711.048+401.53+711.048+401.53L749.139+387.05C749.139+387.05+750.11+359.306+756.767+342.037C763.424+324.768+761.629+326.441+773.307+314.557C784.984+302.672+778.981+298.567+782.742+294.335C784.527+272.813+785.262+265.238+785.262+265.238C785.262+265.238+750.626+253.374+742.834+264.175" opacity="1" fill="#b7a1a3"/>
<path d="M750.525+380.585C750.525+380.585+750.96+393.424+759.011+403.434C767.062+413.445+771.194+459.579+767.907+476.4C764.62+493.221+759.613+519.552+759.613+519.552C759.613+519.552+709.17+534.869+706.518+487.778C703.866+440.686+700.384+436.116+703.366+423.691C706.348+411.265+694.009+419.773+698.776+401.995C703.543+384.216+702.555+393.301+712.586+384.043C722.617+374.784+715.535+375.511+728.579+373.297C741.622+371.083+750.132+371.228+750.41+372.378" opacity="1" fill="#524c58"/>
<path d="M822.211+494.611C842.624+489.607+859.86+536.152+863.244+576.438C866.627+616.724+875.047+683.325+875.047+683.325C875.047+683.325+963.935+697.241+963.371+726.176C962.807+755.112+1149+635.644+1174.37+588.725C1199.74+541.807+1276.76+543.983+1280+582.974C1283.23+621.966+1279.68+523.959+1288.77+500.591C1297.85+477.223+1303.83+438.47+1292.93+418.089C1282.02+397.708+1269.1+376.905+1278.55+367.93C1288+358.954+1285.8+351.337+1329.13+351.536C1372.46+351.734+1367.78+311.599+1367.8+289.288C1367.83+266.976+1310.52+236.913+1310.52+236.913C1310.52+236.913+1306.25+245.284+1282.64+245.412C1259.03+245.539+1253.51+246.808+1242.71+236.997C1231.91+227.186+1222.17+226.171+1192.05+218.235C1161.93+210.299+1152.02+220.554+1129.83+225.204C1107.65+229.854+1108.01+234.845+1095.82+223.604C1083.64+212.363+1109.92+208.643+1063.46+206.529C1016.99+204.415+988.882+213.528+972.392+221.624C955.901+229.72+927.197+235.572+939.583+247.9C951.97+260.228+942.187+262.031+931.518+265.121C920.848+268.211+859.434+283.253+850.843+273.972C842.251+264.691+838.137+267.836+834.676+286.153C831.216+304.469+832.742+318.435+820.33+329.659C807.918+340.883+814.014+343.459+811.993+353.019C809.972+362.579+827.08+347.406+796.963+367.86C766.846+388.314+770.807+381.996+764.477+389.049C758.146+396.102+764.411+408.598+751.069+411.801C737.728+415.003+733.877+422.014+735.169+445.609C736.462+469.203+734.149+479.165+749.074+499.155C763.999+519.145+746.42+535.815+760.232+531.116" opacity="1" fill="#c2c6c7"/>
<path d="M1450.95+1045.79L1447.59+1042.76L1444.8+1038.43L1444.97+1041.62L1445.14+1044.82L1445.31+1048.01L1447.36+1050.46L1452.03+1054.05L1452.03+1054.05" opacity="1" fill="#c2c6c7"/>
<path d="M1496-464.667L1489.33-466L1486.67-471.333L1490.67-467.333L1494.67-466L1494.67-466" opacity="1" fill="#0984e3"/>
</g>
<g id="Effect foreground" vectornator:layerName="Effect foreground">
<path d="M1544.41+741.376C1532.28+732.554+1517.31+765.417+1518.15+771.09C1519.32+779.062+1559.66+752.467+1544.41+741.376Z" opacity="1" fill="#4d6762"/>
<path d="M1520.14+779.878C1524.35+774.216+1549.41+742.937+1556.12+751.127C1559.55+755.305+1515.42+786.227+1520.14+779.878Z" opacity="1" fill="#4d6762"/>
<path d="M1591.71+767.055C1568.9+751.446+1615.1+711.664+1631.64+719.06C1635.27+720.682+1621.97+739.207+1620.48+740.862C1587.89+777.171+1592.56+767.637+1591.71+767.055Z" opacity="1" fill="#4d6762"/>
<path d="M1429.67+1061.35C1421.38+1047.23+1477.32+994.798+1486.93+1003.62C1506.91+1021.94+1443.4+1084.72+1429.67+1061.35Z" opacity="1" fill="#4d6762"/>
<path d="M1096.79+1025.48C1049.76+995.845+951.885+1191.94+978.726+1143.26C992.259+1118.72+1113.57+1036.05+1096.79+1025.48Z" opacity="1" fill="#4d6762"/>
<path d="M1333.25+403.917C1347.24+400.165+1226.59+495.983+1229.01+496.624C1282.38+510.76+1303.27+411.961+1333.25+403.917Z" opacity="1" fill="#4d6762"/>
<path d="M800.128+566.647C815.689+538.424+1050.19+304.757+1081.16+349.717C1100.04+377.127+934.674+456.04+923.064+477.095" opacity="1" fill="#4d6762"/>
<path d="M987.779+1256.55C1020.7+1233.86+970.95+1247.46+957.362+1256.12C925.733+1276.29+871.853+1348.07+937.872+1302.59C957.857+1288.82+902.903+1326.68+931.282+1307.13" opacity="1" fill="#4d6762"/>
</g>
</svg>
